<?xml version="1.0" standalone="no"?>
<!DOCTYPE svg PUBLIC "-//W3C//DTD SVG 1.1//EN" "http://www.w3.org/Graphics/SVG/1.1/DTD/svg11.dtd" >
<svg xmlns="http://www.w3.org/2000/svg" xmlns:xlink="http://www.w3.org/1999/xlink" version="1.1">
<metadata>
Created by FontForge 20170924 at Thu Mar 21 17:30:55 2019
 By www-data
Copyright (c) 2013 by Jonas Hecksher, Playtype, e-Types AS. All rights reserved.
</metadata>
<defs>
<font id="BerlingskeSerif-SemiBold" horiz-adv-x="1167" >
  <font-face 
    font-family="Berlingske Serif SemBd"
    font-weight="600"
    font-stretch="normal"
    units-per-em="2048"
    panose-1="2 0 7 3 8 0 0 2 0 4"
    ascent="1638"
    descent="-410"
    x-height="1044"
    cap-height="1413"
    bbox="-737 -709 3811 2114"
    underline-thickness="102"
    underline-position="-408"
    unicode-range="U+0020-FB06"
  />
<missing-glyph horiz-adv-x="1116" 
d="M1116 1413v-1413h-1116v1413h1116zM924 662q-61 0 -62 61v297h101v51h-101v119h-8q-71 -91 -152 -141l-34 -21v-8h43v-289q0 -143 127 -143q80 0 137 78l-4 8q-19 -12 -47 -12zM135 596h277v8q-43 17 -54.5 42.5t-11.5 78.5v143h64q105 0 169 46t64 147q0 178 -225 178
h-283v-8q31 -12 40 -35q9 -22 9 -80v-397q0 -63 -7 -81q-8 -21 -42 -34v-8zM379 903h-33v299h41q94 0 94 -150q0 -75 -25.5 -112.5t-76.5 -36.5z" />
    <glyph glyph-name="f_f" unicode="ff" horiz-adv-x="1331" 
d="M1278 8v-8h-555v8q83 31 112 87t27 184v669h-413v-669q0 -128 31 -184q32 -55 132 -87v-8h-555v8q83 31 112 87q28 55 28 184v669h-177l23 96h154v89q-1 194 121 303q121 108 290 108q96 0 162 -51t66 -113q0 -57 -35.5 -98t-91.5 -41q-54 0 -87.5 31t-33.5 84
q0 92 86 139q-29 8 -58 8q-87 0 -127 -82q-41 -84 -40 -260v-117h413v89q0 195 122 303t290 108q86 0 157 -47t70 -129q0 -50 -38.5 -88.5t-88.5 -38.5q-54 0 -87.5 31t-33.5 84q0 92 86 139q-29 8 -57 8q-39 0 -69 -16.5t-47.5 -47.5t-28.5 -63t-15.5 -76.5t-6 -72.5
t-1.5 -66v-117h223v-96h-223v-669q0 -60 5 -97.5t21.5 -73.5t50 -59.5t87.5 -40.5z" />
    <glyph glyph-name="f_f_i" unicode="ffi" horiz-adv-x="1966" 
d="M1919 8v-8h-526v8q84 31 113 87q28 55 28 184v411q0 147 -31 202q-32 56 -123 56h-262v-669q0 -60 5 -97.5t21.5 -73.5t50 -59.5t87.5 -40.5v-8h-553v8q85 32 114 87q29 56 27 184v669h-415v-669q0 -128 31 -184q32 -55 132 -87v-8h-552v8q86 32 114 87q29 56 27 184v669
h-180l22 96h158v89q0 197 118 305q116 106 291 106q85 0 150 -52q66 -52 66 -116q0 -58 -33 -96.5t-91 -38.5q-54 0 -88 30.5t-34 84.5q0 92 86 139q-40 8 -56 8q-88 0 -124 -79q-35 -78 -37 -263v-117h415v48q0 163 85 267q84 103 204.5 144t274.5 41q150 0 241 -55
q92 -56 92 -146q0 -55 -38.5 -94t-93.5 -39t-93.5 34.5t-38.5 88.5q0 86 101 133q-99 31 -179 31q-307 0 -307 -377v-76h346q142 0 305 25h9v-790q0 -127 27 -184q29 -55 114 -87z" />
    <glyph glyph-name="f_f_l" unicode="ffl" horiz-adv-x="1959" 
d="M1923 8v-8h-530v8q84 31 113 87q28 55 28 184v933q-51 6 -82 38.5t-31 82.5q0 86 101 133q-58 31 -142 31q-69 0 -118.5 -24.5t-76.5 -61t-42.5 -94.5t-20 -107t-4.5 -116v-50h223v-96h-223v-669q0 -60 5 -97.5t21.5 -73.5t50 -59.5t87.5 -40.5v-8h-553v8q85 32 114 87
q29 56 27 184v669h-415v-669q0 -128 31 -184q32 -55 132 -87v-8h-552v8q86 32 114 87q29 56 27 184v669h-180l22 96h158v89q0 197 118 305q116 106 291 106q85 0 150 -52q66 -52 66 -116q0 -58 -33 -96.5t-91 -38.5q-54 0 -88 30.5t-34 84.5q0 92 86 139q-40 8 -56 8
q-88 0 -124 -79q-35 -78 -37 -263v-117h415v48q0 164 75 268q41 56 92.5 94t112.5 57t120 26t134 7q164 0 241 -80q77 34 129 72h8v-1257q0 -127 27 -184q29 -55 114 -87z" />
    <glyph glyph-name="f_b" unicode="fb" horiz-adv-x="1978" 
d="M1272 29q160 0 272 135t111 366q-2 183 -101 297q-100 115 -221 115t-215 -57v-815q79 -41 154 -41zM758 1333q0 87 100 133q-58 31 -139 31q-129 0 -197 -86q-68 -87 -67 -291v-76h223v-96h-223v-669q0 -128 31 -184q32 -55 132 -87v-8h-552v8q86 32 114 87
q29 56 27 184v669h-180l22 96h158v48q0 240 144 346q143 106 372 106q173 0 256 -78q79 40 131 80h8v-633q50 53 144 105q92 51 200 51q133 0 235.5 -64.5t156 -172.5t53.5 -240q1 -152 -63 -276t-164 -194q-208 -147 -438 -147q-86 2 -193 19t-179 43v1175q-50 6 -81 39
t-31 82z" />
    <glyph glyph-name="f_h" unicode="fh" horiz-adv-x="1959" 
d="M1913 8v-8h-527v8q86 32 114 87t28 184v446q0 99 -51 154t-149 55q-97 0 -210 -64v-591q0 -38 1.5 -62.5t5.5 -54t13.5 -49.5t25 -41t39.5 -36.5t57 -27.5v-8h-531v8q85 32 114 87q29 56 27 184v933q-50 6 -81 39t-31 82q0 87 100 133q-61 31 -143 31q-126 0 -194 -86
q-67 -85 -66 -291v-76h223v-96h-223v-669q0 -128 31 -184q32 -55 132 -87v-8h-552v8q86 32 114 87q29 56 27 184v669h-180l22 96h158v48q0 240 144 346q143 106 372 106q173 0 256 -78q80 39 131 78h8v-641q194 166 339 166q161 0 238 -100t77 -267v-423q0 -127 27 -184
q29 -55 114 -87z" />
    <glyph glyph-name="f_i" unicode="fi" horiz-adv-x="1302" 
d="M1255 8v-8h-526v8q85 32 114 87q29 56 27 184v411q0 148 -30 203q-31 55 -123 55h-262v-669q0 -128 31 -184q32 -55 132 -87v-8h-552v8q86 32 114 87q29 56 27 184v669h-180l22 96h158v48q0 163 85 267q84 103 204 144t274 41q151 0 242 -55q92 -56 92 -146
q0 -55 -38.5 -94t-93.5 -39t-93.5 34.5t-38.5 88.5q0 87 100 133q-99 31 -178 31q-307 0 -307 -377v-76h299q215 0 352 25h8v-790q0 -38 1.5 -62t5.5 -54t13.5 -50t24.5 -41t39 -36.5t57 -27.5z" />
    <glyph glyph-name="f_j" unicode="fj" horiz-adv-x="1296" 
d="M866 -92v782q0 151 -28 204q-28 54 -121 54h-262v-669q0 -128 31 -184q32 -55 132 -87v-8h-552v8q86 32 114 87q29 56 27 184v669h-180l22 96h158v48q0 111 44.5 205t133.5 149q158 98 389 98q52 0 104.5 -9.5t105.5 -30.5t86.5 -63t33.5 -98q0 -55 -39 -94t-94 -39
q-56 0 -93.5 34t-37.5 89q0 87 100 133q-83 31 -168 31q-317 0 -317 -377v-76h299q215 0 352 25h8v-1061q0 -106 -39 -203.5t-115 -161.5q-120 -104 -251 -155l-7 10q85 54 124.5 171t39.5 239z" />
    <glyph glyph-name="f_k" unicode="fk" horiz-adv-x="1906" 
d="M1960 8v-8h-229q-135 0 -179 26t-147 162q-13 17 -23 29l-231 303q39 40 110 113q70 74 101 104q96 96 96 174q0 85 -145 119v14h565v-10q-94 -22 -156 -60q-63 -38 -212 -192q-152 -156 -152 -157q50 -63 161 -197q125 -151 179 -220q61 -78 122.5 -128.5t139.5 -71.5z
M1260 8v-8h-531v8q85 32 114 87q29 56 27 184v933q-50 6 -81 39t-31 82q0 87 100 133q-58 31 -139 31q-129 0 -197 -86q-68 -87 -67 -291v-76h223v-96h-223v-669q0 -128 31 -184q32 -55 132 -87v-8h-552v8q86 32 114 87q29 56 27 184v669h-180l22 96h158v48q0 164 75 268
q79 107 190 145.5t266 38.5q160 0 241 -78q79 40 131 80h8v-1267q0 -38 1.5 -62.5t5.5 -54t13.5 -49.5t25 -41t39.5 -36.5t57 -27.5z" />
    <glyph glyph-name="f_l" unicode="fl" horiz-adv-x="1296" 
d="M1260 8v-8h-531v8q85 32 114 87q29 56 27 184v933q-50 6 -81 39t-31 82q0 87 100 133q-58 31 -141 31q-135 0 -199 -90t-63 -313v-50h223v-96h-223v-669q0 -128 31 -184q32 -55 132 -87v-8h-552v8q86 32 114 87q29 56 27 184v669h-180l22 96h158v48q0 164 75 268
q79 107 190 145.5t266 38.5q160 0 241 -78q80 39 131 78h8v-1265q0 -38 1.5 -62.5t5.5 -54t13.5 -49.5t25 -41t39.5 -36.5t57 -27.5z" />
    <glyph glyph-name="f_t" unicode="ft" horiz-adv-x="1409" 
d="M858 295v653h-409v-669q0 -128 31 -184q32 -55 132 -87v-8h-555v8q83 31 112 87q28 55 28 184v669h-177l23 96h154v89q-1 194 121 303q121 108 290 108q96 0 162 -51t66 -115q0 -59 -33.5 -98t-91.5 -39q-55 0 -89 30.5t-34 84.5q0 92 86 139q-29 8 -58 8q-87 0 -127 -82
q-41 -84 -40 -260v-117h296q83 0 162 45q59 30 152 160q31 44 35 49h10v-254h270v-106h-270v-631q0 -84 44 -136t127 -52q81 0 144 39l8 -11q-130 -164 -294 -163q-124 0 -200 74q-75 74 -75 237z" />
    <glyph glyph-name="f_f_b" unicode="ffb" horiz-adv-x="2641" 
d="M1935 29q159 0 272 135t111 366q0 182 -100 297t-221 115q-120 0 -215 -57v-815q79 -41 153 -41zM1421 1333q0 86 101 133q-58 31 -140 31q-81 0 -135.5 -31.5t-81.5 -89t-37 -118t-10 -138.5v-76h223v-96h-223v-669q0 -60 5 -97.5t21.5 -73.5t50 -59.5t87.5 -40.5v-8
h-553v8q85 32 114 87q29 56 27 184v669h-415v-669q0 -128 31 -184q32 -55 132 -87v-8h-552v8q86 32 114 87q29 56 27 184v669h-180l22 96h158v89q0 197 118 305q116 106 291 106q85 0 150 -52q66 -52 66 -116q0 -58 -33 -96.5t-91 -38.5q-54 0 -88 30.5t-34 84.5
q0 92 86 139q-27 8 -51 8q-91 0 -128 -79q-38 -81 -38 -263v-117h415v27q0 252 142 363q143 111 374 110q182 0 259 -80q86 46 129 82h8v-633q51 53 144 105q92 51 200 51q133 0 235.5 -64.5t155.5 -172.5t53 -240q0 -140 -58.5 -267t-167.5 -203q-106 -74 -211 -110.5
t-228 -36.5q-87 2 -191.5 18.5t-179.5 43.5v1175q-51 6 -82 38.5t-31 82.5z" />
    <glyph glyph-name="f_f_f" unicode="fff" horiz-adv-x="1996" 
d="M1528 279v669h-414v-669q0 -60 5 -97.5t21.5 -73.5t50 -59.5t87.5 -40.5v-8h-555v8q83 31 112 87t27 184v669h-413v-669q0 -128 31 -184q32 -55 132 -87v-8h-555v8q83 31 112 87q28 55 28 184v669h-177l23 96h154v89q-1 194 121 303q121 108 290 108q96 0 162 -51
t66 -113q0 -57 -35.5 -98t-91.5 -41q-54 0 -87.5 31t-33.5 84q0 92 86 139q-29 8 -58 8q-87 0 -127 -82q-41 -84 -40 -260v-117h413v89q0 195 122 303t290 108q86 0 157 -47t70 -129q0 -50 -38.5 -88.5t-88.5 -38.5q-54 0 -87.5 31t-33.5 84q0 92 86 139q-29 8 -57 8
q-39 0 -69 -16.5t-47.5 -47.5t-28.5 -63t-15.5 -76.5t-6 -72.5t-1.5 -66v-117h414v89q0 195 122 303t289 108q96 0 162 -51t66 -113q0 -57 -35.5 -98t-91.5 -41q-54 0 -87.5 31t-33.5 84q0 92 86 139q-29 8 -57 8q-39 0 -69 -16.5t-47.5 -47.5t-28.5 -63t-15.5 -76.5
t-6 -72.5t-1.5 -66v-117h223v-96h-223v-669q0 -128 31 -184q31 -55 133 -87v-8h-555v8q83 32 111 87t28 184z" />
    <glyph glyph-name="f_f_h" unicode="ffh" horiz-adv-x="2623" 
d="M2576 8v-8h-526v8q86 32 114 87q29 56 27 184v446q0 99 -51 154t-148 55q-95 0 -210 -64v-591q0 -127 27 -184q29 -55 114 -87v-8h-530v8q84 31 113 87q28 55 28 184v933q-51 6 -82 38.5t-31 82.5q0 86 101 133q-58 31 -142 31q-69 0 -118.5 -24.5t-76.5 -61t-42.5 -94.5
t-20 -107t-4.5 -116v-50h223v-96h-223v-669q0 -60 5 -97.5t21.5 -73.5t50 -59.5t87.5 -40.5v-8h-553v8q85 32 114 87q29 56 27 184v669h-415v-669q0 -128 31 -184q32 -55 132 -87v-8h-552v8q86 32 114 87q29 56 27 184v669h-180l22 96h158v89q0 197 118 305q116 106 291 106
q85 0 150 -52q66 -52 66 -116q0 -58 -33 -96.5t-91 -38.5q-54 0 -88 30.5t-34 84.5q0 92 86 139q-40 8 -56 8q-88 0 -124 -79q-35 -78 -37 -263v-117h415v48q0 164 75 268q41 56 92.5 94t112.5 57t120 26t134 7q164 0 241 -80q95 51 129 80h8v-641q194 166 339 166
q143 0 229 -90q85 -89 85 -277v-423q0 -38 1.5 -62t5.5 -54t13.5 -50t24.5 -41t39 -36.5t57 -27.5z" />
    <glyph glyph-name="f_f_j" unicode="ffj" horiz-adv-x="1961" 
d="M1534 -92v782q0 149 -29 204q-29 54 -121 54h-266v-669q0 -60 5 -97.5t21.5 -73.5t50 -59.5t87.5 -40.5v-8h-553v8q85 32 114 87q29 56 27 184v669h-415v-669q0 -128 31 -184q32 -55 132 -87v-8h-552v8q86 32 114 87q29 56 27 184v669h-180l22 96h158v89q0 197 118 305
q116 106 291 106q85 0 150 -52q66 -52 66 -116q0 -58 -33 -96.5t-91 -38.5q-54 0 -88 30.5t-34 84.5q0 92 86 139q-40 8 -56 8q-88 0 -124 -79q-35 -78 -37 -263v-117h415v48q0 170 93.5 278.5t264.5 150.5q100 23 226 23q49 0 100 -10.5t100.5 -32.5t81 -63t31.5 -95
q0 -55 -38.5 -94t-94.5 -39t-93.5 34t-37.5 89q0 86 101 133q-83 31 -168 31q-316 0 -318 -377v-76h348q145 0 308 25h8v-1061q0 -106 -39 -203.5t-115 -161.5q-126 -107 -252 -155l-6 10q85 54 124.5 171t39.5 239z" />
    <glyph glyph-name="f_f_k" unicode="ffk" horiz-adv-x="2570" 
d="M2623 8v-8h-229q-134 0 -184 30q-48 29 -164 187l-231 303q178 177 242 254q66 78 67 135q0 84 -148 121v14h566v-10q-94 -22 -156 -60t-213 -192q-152 -156 -152 -157q8 -9 161 -197t161 -197q48 -60 81 -95.5t87 -74t112 -53.5zM1923 8v-8h-530v8q84 31 113 87
q28 55 28 184v933q-51 6 -82 38.5t-31 82.5q0 86 101 133q-58 31 -142 31q-69 0 -118.5 -24.5t-76.5 -61t-42.5 -94.5t-20 -107t-4.5 -116v-50h223v-96h-223v-669q0 -60 5 -97.5t21.5 -73.5t50 -59.5t87.5 -40.5v-8h-553v8q85 32 114 87q29 56 27 184v669h-415v-669
q0 -128 31 -184q32 -55 132 -87v-8h-552v8q86 32 114 87q29 56 27 184v669h-180l22 96h158v89q0 197 118 305q116 106 291 106q85 0 150 -52q66 -52 66 -116q0 -58 -33 -96.5t-91 -38.5q-54 0 -88 30.5t-34 84.5q0 92 86 139q-40 8 -56 8q-88 0 -124 -79q-35 -78 -37 -263
v-117h415v48q0 164 75 268q41 56 92.5 94t112.5 57t120 26t134 7q164 0 241 -80q77 34 129 72h8v-1257q0 -127 27 -184q29 -55 114 -87z" />
    <glyph glyph-name=".notdef" horiz-adv-x="1116" 
d="M1116 1413v-1413h-1116v1413h1116zM924 662q-61 0 -62 61v297h101v51h-101v119h-8q-71 -91 -152 -141l-34 -21v-8h43v-289q0 -143 127 -143q80 0 137 78l-4 8q-19 -12 -47 -12zM135 596h277v8q-43 17 -54.5 42.5t-11.5 78.5v143h64q105 0 169 46t64 147q0 178 -225 178
h-283v-8q31 -12 40 -35q9 -22 9 -80v-397q0 -63 -7 -81q-8 -21 -42 -34v-8zM379 903h-33v299h41q94 0 94 -150q0 -75 -25.5 -112.5t-76.5 -36.5z" />
    <glyph glyph-name=".null" horiz-adv-x="0" 
 />
    <glyph glyph-name="nonmarkingreturn" horiz-adv-x="682" 
 />
    <glyph glyph-name="space" unicode=" " horiz-adv-x="430" 
 />
    <glyph glyph-name="exclam" unicode="!" horiz-adv-x="530" 
d="M265 -25q-61 0 -103.5 42t-42.5 103t42.5 103.5t103.5 42.5q60 0 103.5 -43t43.5 -103q0 -61 -43 -103t-104 -42zM180 892q-63 324 -63 398q0 67 40 109.5t107 42.5t107.5 -42.5t40.5 -109.5q0 -74 -63 -398q-64 -330 -77 -501h-14q-14 175 -78 501z" />
    <glyph glyph-name="quotedbl" unicode="&#x22;" horiz-adv-x="831" 
d="M526 1149q-51 146 -51 185q0 44 36.5 76t80.5 32t80.5 -32t36.5 -76q1 -40 -51 -185q-51 -142 -56 -231h-20q-5 89 -56 231zM164 1149q-51 146 -51 185q0 44 35.5 76t80.5 32q44 0 80.5 -32t36.5 -76q0 -40 -51 -185q-50 -144 -55 -231h-21q-5 87 -55 231z" />
    <glyph glyph-name="numbersign" unicode="#" 
d="M438 567h238l49 279h-238zM336 479h-213v88h227l49 279h-276v88h293l84 479h88l-84 -479h237l84 479h88l-84 -479h215v-88h-231l-49 -279h280v-88h-294l-84 -479h-88l84 479h-238l-84 -479h-88z" />
    <glyph glyph-name="dollar" unicode="$" 
d="M813 283q0 122 -184 245v-479q83 25 133.5 87t50.5 147zM547 864v465q-84 -12 -140.5 -68t-56.5 -139q0 -45 16 -84t47 -71t60.5 -54t73.5 -49zM629 -23v-149h-82v141q-245 0 -406 88v355h9q174 -373 397 -373v541q-209 126 -281 192q-129 120 -129 266q0 79 36.5 145.5
t96 110t131 70t146.5 33.5v147h82v-145q148 -5 334 -82v-299h-9q-146 272 -325 309v-512q253 -149 313 -227q84 -106 84 -221q0 -110 -56 -196t-144 -133.5t-197 -60.5z" />
    <glyph glyph-name="percent" unicode="%" horiz-adv-x="1796" 
d="M1280 47q69 0 125 44.5t88.5 112t50 139t17.5 134.5q0 50 -16 98.5t-53.5 85.5t-88.5 37q-117 0 -189 -145q-72 -146 -71 -311q0 -70 36 -133t101 -62zM1250 -25q-129 -1 -214.5 91.5t-85.5 222.5q0 177 122 329t296 152q123 0 194.5 -81t71.5 -205t-42.5 -235
t-127.5 -191q-89 -83 -214 -83zM485 717q56 0 104 29.5t80 76t55 104.5t33.5 114t10.5 106q0 80 -43 150.5t-117 70.5q-118 0 -188 -144q-70 -143 -70 -313q0 -74 33.5 -134t101.5 -60zM961 1225q-64 0 -142 32q17 -45 19 -122q0 -168 -104 -329t-254 -161
q-151 0 -236.5 93.5t-85.5 245.5q0 154 122 306t287 152q96 0 197 -71t207 -71q202 0 377 199h82l-990 -1595h-98l877 1411l-7 4q-20 -10 -50 -28q-110 -66 -201 -66z" />
    <glyph glyph-name="ampersand" unicode="&#x26;" horiz-adv-x="1499" 
d="M352 559q0 -122 106 -271t220 -148q114 0 223 102l-250 333q-85 111 -125 175q-41 -17 -67 -31t-53 -36.5t-40.5 -53.5t-13.5 -70zM952 1185q0 87 -39.5 148t-122.5 61t-126 -65t-43 -152q0 -104 133 -300q111 54 154.5 121t43.5 187zM1550 8v-8h-467l-151 201
q-110 -120 -202 -176q-91 -55 -234 -55q-142 0 -263 148t-121 290t78 217q78 74 310 168q-84 135 -84 239q0 196 114 303q116 107 275 107q66 0 126 -14t112.5 -43.5t84 -82t31.5 -122.5q0 -122 -93 -198q-92 -74 -288 -142q32 -48 117 -154l178 -229q88 139 88 235
q0 128 -157 150v8h542v-8q-97 -29 -170 -108q-76 -82 -153 -181q-68 -90 -111 -143l84 -107q44 -57 73 -91.5t78.5 -84t100 -79.5t102.5 -40z" />
    <glyph glyph-name="quotesingle" unicode="'" horiz-adv-x="458" 
d="M164 1149q-51 146 -51 185q0 44 35.5 76t80.5 32q44 0 80.5 -32t36.5 -76q0 -40 -51 -185q-50 -144 -55 -231h-21q-5 87 -55 231z" />
    <glyph glyph-name="parenleft" unicode="(" horiz-adv-x="710" 
d="M166 649q0 453 483 899h37q-274 -418 -274 -928t274 -907h-37q-151 142 -293 348q-89 129 -139.5 282.5t-50.5 305.5z" />
    <glyph glyph-name="parenright" unicode=")" horiz-adv-x="712" 
d="M545 649q0 -479 -484 -936h-36q274 397 274 907t-274 928h36q482 -445 484 -899z" />
    <glyph glyph-name="asterisk" unicode="*" horiz-adv-x="802" 
d="M440 1047l236 -197l-152 -109l-123 281l-125 -281l-151 107l240 199l-318 43l62 172l274 -166l-70 317h183l-74 -317l274 166l58 -172z" />
    <glyph glyph-name="plus" unicode="+" 
d="M657 504v-352h-147v352h-352v147h352v353h147v-353h353v-147h-353z" />
    <glyph glyph-name="comma" unicode="," horiz-adv-x="479" 
d="M174 -31q0 32 -35 82t-35 99q0 55 39 89.5t94 34.5q57 0 97 -43t39 -106q1 -97 -90.5 -216t-190.5 -190l-6 5q88 122 88 245z" />
    <glyph glyph-name="hyphen" unicode="-" horiz-adv-x="587" 
d="M537 676v-178h-486v178h486z" />
    <glyph glyph-name="period" unicode="." horiz-adv-x="479" 
d="M389 125q0 -64 -43 -107t-107 -43q-63 0 -107 43t-44 106q0 64 43 107t107 43q63 0 107 -43t44 -106z" />
    <glyph glyph-name="slash" unicode="/" horiz-adv-x="829" 
d="M817 1434l-692 -1457h-115l692 1457h115z" />
    <glyph glyph-name="zero" unicode="0" 
d="M588 23q225 0 225 645q0 45 -1 86.5t-5.5 118.5t-13 140.5t-26 136.5t-40.5 122.5t-60 83t-83 33.5q-40 0 -73.5 -23.5t-56.5 -66t-40.5 -92.5t-28.5 -113.5t-18 -118t-10 -116.5t-4 -99t-1 -74q0 -663 236 -663zM1079 692q-1 -404 -219 -612q-115 -109 -277 -111
q-161 0 -277 111q-218 209 -218 612q0 185 53.5 351t170.5 283q116 116 272 116q81 0 154.5 -34t128 -91.5t94.5 -127t64 -146.5q54 -167 54 -351z" />
    <glyph glyph-name="one" unicode="1" 
d="M909 8v-8h-612v8q121 31 160 87t39 186v858q-136 -60 -265 -86l-6 28q134 44 269 141.5t239 215.5h8v-1157q0 -127 33 -185t135 -88z" />
    <glyph glyph-name="two" unicode="2" 
d="M1004 0h-887v53l418 514q219 269 219 496q0 113 -82.5 197.5t-196.5 85.5q-159 0 -256 -109q10 2 25 2q68 0 121 -43.5t53 -109.5t-41 -112t-107 -46q-70 0 -111.5 52t-43.5 124q0 118 134 228q136 110 329 110q88 0 165 -22.5t138.5 -65.5t97 -114.5t35.5 -162.5
q0 -77 -54.5 -166.5t-125.5 -165.5q-84 -87 -180 -185q-100 -101 -173 -185l-145 -170h682q-7 -78 -14 -205z" />
    <glyph glyph-name="three" unicode="3" 
d="M692 1200h-557v213h809v-8l-356 -477q175 -28 311 -155q135 -126 135 -298q0 -215 -181 -360q-180 -144 -409 -146q-160 0 -257 70t-97 176q0 65 46 107.5t112 42.5q64 0 107 -39.5t44 -103.5q-1 -57 -32.5 -100.5t-85.5 -64.5q66 -32 131 -30q150 0 256 96t106 261
t-127 253t-291 88l-8 10z" />
    <glyph glyph-name="four" unicode="4" 
d="M1083 8v-8h-602v8q121 31 159 87t38 186v118h-623v9l703 1019h160v-897h153v-131h-153v-118q0 -126 32 -185q33 -57 133 -88zM227 530h451v652z" />
    <glyph glyph-name="five" unicode="5" 
d="M952 1413v-213h-608l-63 -442q146 127 326 127q184 0 305.5 -119t121.5 -303q0 -171 -105 -288t-279 -174q-99 -32 -191 -32q-47 0 -93.5 7t-94.5 24t-84.5 42.5t-60 67t-24.5 93.5q0 66 45 110.5t111 44.5q64 0 108 -41t44 -104q0 -109 -111 -164q75 -27 133 -26
q103 0 183.5 59t120.5 149t40 191q0 149 -78 243.5t-224 94.5q-133 0 -255 -98l-14 6l96 745h651z" />
    <glyph glyph-name="six" unicode="6" 
d="M356 750q-10 -56 -10 -180q0 -297 115 -458q63 -87 151 -87q63 0 110.5 34t72 89t36.5 112.5t12 116.5q1 61 -9 118.5t-34 111t-59 93t-89 63.5t-120 23q-105 0 -176 -36zM84 580q0 335 238 576q240 243 589 286v-31q-192 -39 -347 -206q-154 -166 -199 -412
q138 75 286 75q193 0 314 -110.5t121 -301.5q0 -194 -135 -340q-134 -146 -352 -146q-219 0 -367 175t-148 435z" />
    <glyph glyph-name="seven" unicode="7" 
d="M915 1196h-819v217h967v-8q-179 -303 -323 -693q-142 -384 -210 -712h-254q38 129 118 295q78 163 149 285q50 86 197 328q33 54 73.5 120.5t64 105.5t37.5 62z" />
    <glyph glyph-name="eight" unicode="8" 
d="M811 1104q0 112 -67.5 194t-177.5 82q-107 0 -169.5 -72t-62.5 -180q0 -107 104 -176q42 -30 126 -73q81 -42 114 -60q133 106 133 285zM303 328q0 -114 78 -205q78 -92 202 -92q120 0 199.5 78.5t79.5 198.5q0 116 -92 191q-91 74 -299 171q-80 -60 -124 -150.5
t-44 -191.5zM931 83q-159 -114 -357 -114q-87 0 -170 20t-157 60.5t-119.5 112t-45.5 164.5q0 236 346 366q-54 28 -96 54t-85 62.5t-71 75.5t-46 91t-17 110q0 155 135 255q135 102 338 102t328 -97q126 -97 126 -214t-99 -201q-98 -83 -222 -127q157 -79 250 -161
q121 -106 121 -276q0 -169 -159 -283z" />
    <glyph glyph-name="nine" unicode="9" 
d="M803 841q0 298 -115 458q-62 87 -150 87q-64 0 -111 -33.5t-72 -89t-37 -112.5t-12 -117q-1 -77 16 -147.5t52 -130.5t97.5 -96t144.5 -35q104 0 177 37q10 54 10 179zM63 954q2 194 135 341q134 147 352 147q217 0 366 -176q147 -174 149 -435q2 -335 -237 -577
t-590 -285v31q191 39 346 206q153 165 200 412q-138 -75 -286 -75q-192 0 -313.5 110.5t-121.5 300.5z" />
    <glyph glyph-name="colon" unicode=":" horiz-adv-x="479" 
d="M88 919q0 62 44 106t106 44q63 0 107 -43.5t44 -106.5t-43.5 -107t-106.5 -44t-107 44t-44 107zM88 125q0 63 43.5 106t106.5 43t107 -43t44 -106q0 -64 -43 -107t-107 -43t-107.5 43t-43.5 107z" />
    <glyph glyph-name="semicolon" unicode=";" horiz-adv-x="479" 
d="M88 919q0 62 44 106t106 44q63 0 107 -43.5t44 -106.5t-43.5 -107t-106.5 -44t-107 44t-44 107zM174 -31q0 32 -35 82t-35 99q0 55 39 89.5t94 34.5q57 0 97 -43t39 -106q1 -97 -90.5 -216t-190.5 -190l-6 5q88 122 88 245z" />
    <glyph glyph-name="less" unicode="&#x3c;" horiz-adv-x="1257" 
d="M1008 162v-17l-850 420v25l850 420v-17l-576 -415z" />
    <glyph glyph-name="equal" unicode="=" 
d="M1010 799v-148h-852v148h852zM1010 504v-148h-852v148h852z" />
    <glyph glyph-name="greater" unicode="&#x3e;" horiz-adv-x="1257" 
d="M1008 590v-25l-850 -420v17l575 416l-575 415v17z" />
    <glyph glyph-name="question" unicode="?" horiz-adv-x="966" 
d="M492 383h-23q0 203 95 382q98 175 96 315q-2 126 -69.5 205t-190.5 79q-110 0 -193 -96q69 0 124.5 -43.5t55.5 -110.5q0 -64 -42 -105.5t-107 -41.5q-69 0 -110.5 45t-41.5 114q0 117 118 216q118 100 297 100q83 0 155.5 -22t128.5 -64t88.5 -110t32.5 -154
q0 -164 -143 -313q-49 -53 -119 -121q-145 -143 -152 -275zM631 125q0 -64 -43.5 -107t-107.5 -43q-63 0 -106.5 43t-43.5 106q0 64 43 107t107 43q63 0 106 -43t45 -106z" />
    <glyph glyph-name="at" unicode="@" horiz-adv-x="1595" 
d="M1106 147q0 -14 5.5 -21.5t16.5 -6.5q88 0 188 129q99 129 99 327q0 246 -162 405t-409 159q-250 0 -418 -200q-168 -199 -168 -479t173 -450t429 -170q216 0 371 88q2 -2 8 -12q-188 -143 -428 -143q-281 0 -510 184q-106 85 -171 220q-65 136 -64 290q0 310 224 537
q223 225 548 227q287 0 498 -179q210 -178 210 -452q0 -181 -99 -319t-272 -204q-91 -36 -178 -36q-86 0 -88 53q0 65 20 150q8 33 19.5 79.5t12.5 51.5l-13 2q-171 -336 -307 -336q-57 0 -100.5 28.5t-67 75t-34.5 97t-11 104.5q0 243 152 425q151 181 385 181
q61 0 151 -24l109 18l4 -2l-84 -452l-37 -306q-2 -36 -2 -39zM975 874q-109 0 -191.5 -80t-119.5 -194q-38 -115 -37 -218q0 -25 2.5 -54t9.5 -68t25 -64.5t43 -25.5q53 0 114 90q39 55 109 174l43 74l53 360q-22 6 -51 6z" />
    <glyph glyph-name="A" unicode="A" horiz-adv-x="1482" 
d="M444 582h465l-235 684zM1477 8v-8h-564v8q66 15 92.5 45.5t26.5 96.5q0 70 -96 354h-518q-84 -258 -84 -334q0 -73 31 -108t104 -54v-8h-463v8q92 38 150 132q58 96 170 413l305 860h246l358 -1024q66 -187 119 -269q51 -79 123 -112z" />
    <glyph glyph-name="B" unicode="B" horiz-adv-x="1310" 
d="M653 0h-594v8q104 27 140 84q35 59 34 187v856q0 49 -3 82t-13.5 65.5t-29.5 53.5t-50.5 39t-77.5 30v8h578q526 0 526 -346q0 -129 -91 -205t-216 -106v-8q71 -5 140 -30.5t127 -67t93.5 -105.5t34.5 -139q0 -302 -381 -383q-104 -23 -217 -23zM494 1339v-577h110
q142 0 222 78.5t79 220.5q0 143 -83.5 210.5t-229.5 67.5h-98zM494 690v-616h153q152 0 243 75.5t91 224.5q0 152 -105 234q-104 82 -251 82h-131z" />
    <glyph glyph-name="C" unicode="C" horiz-adv-x="1468" 
d="M920 -31q-348 0 -586 198t-238 519q0 248 145 432.5t387 271.5q144 52 276 52q245 0 442 -82v-299h-9q-155 311 -438 311q-221 0 -371 -182t-150 -483t159 -485q157 -183 393 -185q297 0 452 332h9l-27 -314q-74 -36 -195 -61q-129 -26 -249 -25z" />
    <glyph glyph-name="D" unicode="D" horiz-adv-x="1632" 
d="M494 1339v-1265h225q259 0 404 184q147 184 147 456q0 271 -152 449q-152 176 -375 176h-249zM719 0h-653v8q102 32 135 88q33 58 32 185v854q0 124 -32 182q-33 56 -135 88v8h675q342 0 577 -176q234 -176 234 -508q0 -141 -43.5 -260t-121 -204.5t-182.5 -146
t-228 -89.5t-258 -29z" />
    <glyph glyph-name="E" unicode="E" horiz-adv-x="1216" 
d="M1108 0h-1036v8q102 32 135 88q33 57 33 185v854q0 120 -32 179t-136 91v8h977v-315h-9q-90 155 -148 198q-56 43 -173 43h-219v-575h223q82 0 130 30.5t95 104.5h8v-344h-8q-49 76 -94.5 104.5t-130.5 28.5h-223v-614h188q100 0 139 4q47 5 100 39t90 76q57 69 124 153
h8z" />
    <glyph glyph-name="F" unicode="F" horiz-adv-x="1169" 
d="M692 8v-8h-626v8q102 32 135 88q33 58 32 185v854q0 124 -32 182q-33 56 -135 88v8h1003v-315h-10q-99 172 -155 207q-54 34 -222 34h-188v-596h264q85 0 131 30t94 108h8v-351h-8q-50 76 -96.5 107t-128.5 31h-264v-387q0 -123 41 -182t157 -91z" />
    <glyph glyph-name="G" unicode="G" horiz-adv-x="1587" 
d="M1186 104v326q0 114 -32.5 170t-133.5 88v8h536v-8q-80 -32 -104 -79q-23 -47 -25 -179v-379q-338 -82 -542 -82q-319 0 -554 202q-234 202 -235 527q0 249 150 429.5t399 265.5q144 49 277 49q110 0 243.5 -21t223.5 -57v-299h-9q-181 307 -460 307q-226 0 -384 -182
q-157 -181 -157 -479q0 -296 161 -474q160 -176 400 -178q129 0 246 45z" />
    <glyph glyph-name="H" unicode="H" horiz-adv-x="1689" 
d="M1618 8v-8h-594v8q102 32 135 88q33 57 33 185v401h-692v-401q0 -126 32 -185q33 -56 134 -88v-8h-594v8q102 32 135 88q33 57 33 185v854q0 120 -32 179t-136 91v8h594v-8q-100 -31 -134 -88q-34 -55 -32 -182v-369h692v369q0 120 -32 179t-136 91v8h594v-8
q-54 -17 -87.5 -40.5t-50.5 -59t-22.5 -73t-5.5 -97.5v-854q0 -60 5.5 -98t22 -74.5t50.5 -60.5t88 -40z" />
    <glyph glyph-name="I" unicode="I" horiz-adv-x="739" 
d="M666 8v-8h-594v8q55 17 89 40t51 58.5t22.5 73t5.5 99.5v856q0 120 -32 179t-136 91v8h594v-8q-100 -31 -134 -88q-34 -55 -32 -182v-856q0 -126 32 -184q33 -55 134 -87z" />
    <glyph glyph-name="J" unicode="J" horiz-adv-x="735" 
d="M240 -18v1153q0 120 -32 179t-136 91v8h594v-8q-100 -31 -134 -88q-34 -55 -32 -182v-1053q0 -221 -160 -348q-126 -100 -272 -162l-5 6q175 112 177 404z" />
    <glyph glyph-name="K" unicode="K" horiz-adv-x="1515" 
d="M1556 8v-8h-622v8q56 13 82 30q26 16 24 54q0 62 -120 246l-246 369l-180 -191v-237q0 -126 32 -184q33 -56 133 -87v-8h-593v8q102 32 135 87q34 56 32 184v856q0 124 -32 182q-33 56 -135 88v8h593v-8q-100 -31 -133 -88q-33 -58 -32 -182v-519l405 449
q125 137 125 218t-125 122v8h571v-8q-116 -43 -200 -102q-80 -56 -244 -230l-180 -188l379 -555q114 -168 175 -226q64 -62 156 -96z" />
    <glyph glyph-name="L" unicode="L" horiz-adv-x="1155" 
d="M1077 0h-1011v8q102 32 135 87q34 56 32 184v856q0 124 -32 182q-33 56 -135 88v8h593v-8q-100 -31 -133 -88q-33 -58 -32 -182v-1061h188q82 0 111 4q46 6 96.5 39t85.5 73q61 69 133 156h10z" />
    <glyph glyph-name="M" unicode="M" horiz-adv-x="1982" 
d="M1944 6v-6h-572v8q85 36 117.5 79.5t32.5 131.5q0 85 -6 170l-52 813l-512 -1202h-104l-475 1212h-6l-54 -800q-6 -84 -6 -172q0 -94 36 -147.5t124 -84.5v-8h-447v8q106 34 138 112q30 73 47 292l47 628q8 123 8 178q0 72 -37.5 113t-111.5 74v8h452l426 -1087l461 1087
h420v-8q-81 -34 -115.5 -78t-34.5 -127q0 -76 6 -158l43 -632q17 -228 43 -294q27 -66 132 -110z" />
    <glyph glyph-name="N" unicode="N" horiz-adv-x="1644" 
d="M1436 973v-987h-117q-110 131 -484 582q-329 396 -501 603v-729q0 -295 64 -369q34 -40 104 -65v-8h-443v8q74 27 106 67.5t47 119.5q15 84 15 247v746q0 66 -48 127t-150 90v8h426l874 -1038v598q0 230 -33 313q-33 81 -135 119v8h443v-8q-74 -28 -106.5 -68t-46.5 -119
q-15 -84 -15 -245z" />
    <glyph glyph-name="O" unicode="O" horiz-adv-x="1716" 
d="M1630 705q0 -234 -134 -414.5t-359 -267.5q-138 -53 -305 -53q-169 0 -344 88q-183 93 -292.5 267t-109.5 377q0 151 64.5 289t170.5 236t247.5 156.5t289.5 58.5t289.5 -58.5t247.5 -156t170.5 -235t64.5 -287.5zM858 39q214 1 351 195t137 473q0 280 -136 473
q-136 192 -352 192q-217 0 -352 -194t-135 -471q0 -279 136 -473q137 -195 351 -195z" />
    <glyph glyph-name="P" unicode="P" horiz-adv-x="1277" 
d="M692 8v-8h-626v8q102 32 135 88q33 58 32 185v854q0 124 -32 182q-33 56 -135 88v8h636q502 0 502 -377q0 -90 -28 -161.5t-76 -118t-115 -77t-141.5 -43.5t-159.5 -13h-190v-342q0 -123 41 -182t157 -91zM494 1343v-651h98q190 0 273 96q83 97 83 234q0 139 -70 230
t-223 91h-161z" />
    <glyph glyph-name="Q" unicode="Q" horiz-adv-x="1716" 
d="M858 39q214 1 351 195t137 473q0 280 -136 473q-136 192 -352 192q-217 0 -352 -194t-135 -471q0 -279 136 -473q137 -195 351 -195zM2030 -502q-115 0 -362 83q-244 81 -527 257l-219 135q-36 -4 -64 -4q-153 0 -294.5 56t-246.5 152.5t-168 234t-63 290.5
q0 151 64.5 289t170.5 236t247.5 156.5t289.5 58.5t289 -58.5t247.5 -156.5t171 -235.5t64.5 -286.5q0 -256 -161 -447q-161 -190 -396 -258q338 -145 611.5 -220t568.5 -75q150 0 291 33v-8q-54 -66 -136 -122q-87 -59 -177.5 -84.5t-200.5 -25.5z" />
    <glyph glyph-name="R" unicode="R" horiz-adv-x="1366" 
d="M1421 8v-8h-155q-134 0 -188 12q-55 12 -90 46q-37 36 -101 135l-287 442h-106v-354q0 -126 32 -185q33 -57 133 -88v-8h-593v8q102 32 135 88q33 58 32 185v854q0 124 -32 182q-33 56 -135 88v8h620q524 0 524 -369q0 -143 -110 -233q-109 -90 -260 -129l331 -459
q93 -127 133 -161q42 -36 117 -54zM494 1343v-645h81q172 0 271.5 84t99.5 248q0 128 -74.5 220.5t-199.5 92.5h-178z" />
    <glyph glyph-name="S" unicode="S" horiz-adv-x="1071" 
d="M117 57v355h8q178 -373 401 -373q101 0 175.5 63.5t74.5 162.5q-2 161 -234 308q-119 76 -194 127q-104 70 -170 162t-65 199q0 68 26 129t70 106.5t101 78.5t121.5 50t128.5 17q170 0 368 -84v-299h-8q-163 313 -371 313q-92 0 -157.5 -59t-65.5 -149q0 -150 235 -292
q109 -64 197 -124q104 -70 170 -167.5t65 -209.5q0 -171 -135 -287q-134 -115 -357 -115t-384 88z" />
    <glyph glyph-name="T" unicode="T" horiz-adv-x="1363" 
d="M979 8v-8h-594v8q102 32 135 88q33 57 33 185v1058h-96q-79 0 -149 -17q-28 -7 -79 -63q-55 -59 -155 -186h-8l36 340h1162l36 -340h-10q-151 194 -203 231q-50 35 -178 35h-96v-1058q0 -60 5.5 -98t22 -74.5t50.5 -60.5t88 -40z" />
    <glyph glyph-name="U" unicode="U" horiz-adv-x="1591" 
d="M1260 391v582q0 292 -69 367q-36 39 -104 65v8h451v-8q-72 -27 -106 -64q-68 -77 -68 -368v-588q0 -90 -32.5 -162t-86.5 -118.5t-127.5 -77.5t-150 -44t-159.5 -14q-83 0 -161 13t-154.5 44t-133 77.5t-91.5 119t-35 162.5v750q0 124 -32 182q-33 56 -135 88v8h593v-8
q-100 -31 -133 -88q-33 -58 -32 -182v-779q0 -130 91 -209t272 -79q81 0 151 18t127.5 55.5t91 101.5t33.5 148z" />
    <glyph glyph-name="V" unicode="V" horiz-adv-x="1482" 
d="M6 1405v8h563v-8q-62 -16 -91 -45q-28 -28 -27 -84q0 -86 104 -389l252 -740l244 721q98 289 98 370q0 77 -29 111t-106 56v8h463v-8q-95 -39 -151 -134q-58 -98 -169 -413l-305 -858h-246l-358 1022q-67 193 -119 272q-51 78 -123 111z" />
    <glyph glyph-name="W" unicode="W" horiz-adv-x="2187" 
d="M12 1405v8h563v-8q-57 -20 -83 -53t-25 -100q0 -69 76 -363l188 -735l211 714q66 218 66 320q0 91 -30.5 139t-113.5 78v8h518v-8q-64 -21 -87 -56t-23 -104q0 -73 51 -258l223 -805l219 688q74 231 74 328q0 87 -29 132.5t-108 74.5v8h481v-8q-59 -27 -98 -68
q-86 -90 -217 -479l-291 -858h-221l-279 995l-307 -995h-244l-243 866q-79 290 -135 396q-54 105 -136 143z" />
    <glyph glyph-name="X" unicode="X" horiz-adv-x="1445" 
d="M1438 8v-8h-613v8q129 47 129 127q0 42 -41 109l-249 362l-209 -295q-86 -122 -86 -171q1 -28 10 -49t28.5 -36.5t36.5 -24.5t48 -22v-8h-480v8q88 42 150 100q59 54 168 197l284 373l-325 485q-111 164 -262 242v8h610v-10q-121 -40 -121 -123q0 -45 45 -111l221 -331
l187 274q78 117 78 168q0 28 -8.5 48.5t-27.5 34.5t-36 21.5t-47 18.5v10h471v-8q-94 -46 -157 -109q-62 -62 -191 -233l-220 -297l355 -516q61 -90 115.5 -145.5t136.5 -96.5z" />
    <glyph glyph-name="Y" unicode="Y" horiz-adv-x="1337" 
d="M969 8v-8h-594v8q102 32 135 88q33 57 33 185v340l-213 393q-114 207 -178 284q-67 80 -142 107v8h574v-8q-102 -27 -102 -107t102 -278l168 -324l155 324q90 190 90 252q0 61 -27.5 88t-92.5 45v8h450v-8q-98 -23 -202 -184q-102 -160 -322 -598v-342q0 -60 5.5 -98
t22 -74.5t50.5 -60.5t88 -40z" />
    <glyph glyph-name="Z" unicode="Z" horiz-adv-x="1183" 
d="M1098 0h-1051v8l768 1331h-280q-140 0 -211 -37q-72 -38 -240 -204h-8l41 315h1001v-8l-758 -1331h310q181 0 243 37q64 38 183 194q21 30 32 43h9z" />
    <glyph glyph-name="bracketleft" unicode="[" horiz-adv-x="776" 
d="M647 -215v-72h-457v1835h457v-71h-233v-1692h233z" />
    <glyph glyph-name="backslash" unicode="\" horiz-adv-x="829" 
d="M817 -23h-115q-198 404 -692 1457h115q198 -404 692 -1457z" />
    <glyph glyph-name="bracketright" unicode="]" horiz-adv-x="776" 
d="M586 1548v-1835h-457v72h233v1692h-233v71h457z" />
    <glyph glyph-name="asciicircum" unicode="^" horiz-adv-x="874" 
d="M514 1413l211 -485h-41l-248 342l-246 -342h-40l206 485h158z" />
    <glyph glyph-name="underscore" unicode="_" horiz-adv-x="942" 
d="M866 -168v-147h-790v147h790z" />
    <glyph glyph-name="grave" unicode="`" horiz-adv-x="501" 
d="M432 1176l-10 -2q-252 73 -375 239l217 12q45 -108 168 -249z" />
    <glyph glyph-name="a" unicode="a" horiz-adv-x="1071" 
d="M649 584v125q1 127 -65 207t-174 81q-109 0 -183 -55q53 -10 88 -44.5t35 -85.5t-36 -84.5t-87 -33.5t-88 35.5t-37 85.5q0 98 140 176q139 78 304 78q164 0 256.5 -82t92.5 -244v-485q0 -106 39 -146.5t145 -48.5v-8q-48 -29 -126.5 -50.5t-133.5 -21.5
q-70 0 -114.5 32.5t-53.5 99.5q-159 -138 -313 -140q-114 0 -190.5 68t-75.5 180q0 133 141 233q139 99 436 128zM588 528q-108 0 -188.5 -60t-80.5 -164q2 -103 59 -150q59 -50 136 -50t135 35v383q-32 6 -61 6z" />
    <glyph glyph-name="b" unicode="b" horiz-adv-x="1282" 
d="M575 29q160 0 271 133q110 134 110 346q0 213 -98 322q-98 108 -222 108q-125 0 -214 -55v-813q79 -41 153 -41zM170 37v1128q0 136 -29 189q-28 52 -133 90v8q191 12 406 92h8v-635q160 160 346 160t315 -132t129 -355q0 -135 -59.5 -259t-166.5 -201
q-107 -78 -211.5 -112.5t-235.5 -34.5q-86 2 -190.5 18.5t-178.5 43.5z" />
    <glyph glyph-name="c" unicode="c" horiz-adv-x="954" 
d="M551 -25q-198 1 -338 141q-139 139 -139 390q0 249 164 407q164 156 383 156q123 0 209 -51q87 -53 88 -124q0 -67 -37 -113t-103 -46q-55 0 -98 33t-43 87q0 46 22 86t60 63q-40 8 -64 8q-74 0 -131 -25t-92.5 -66t-58.5 -98.5t-32 -117.5t-9 -129q0 -214 100 -323
q101 -110 253 -110q153 0 257 78l14 -8q-168 -238 -405 -238z" />
    <glyph glyph-name="d" unicode="d" horiz-adv-x="1265" 
d="M856 -25h-8v177q-144 -176 -328 -176q-183 0 -319 134q-135 133 -135 353q0 273 186 440q185 166 430 166q74 0 166 -18v114q0 137 -31 189t-147 90v8q95 6 213.5 32t208.5 60h8v-1190q0 -136 29 -188q29 -51 135 -90v-8q-208 -18 -408 -93zM670 133q99 0 178 43v785
q-30 23 -79 37t-93 16q-158 0 -260 -134t-102 -331t108 -307q110 -110 248 -109z" />
    <glyph glyph-name="e" unicode="e" horiz-adv-x="1038" 
d="M559 1014q-49 0 -88.5 -29.5t-63.5 -72.5t-41 -100t-24 -103t-10 -91l418 27q0 369 -191 369zM565 -25q-215 2 -353 145q-138 144 -138 384t150 402q150 161 341 163q191 0 301 -101q109 -100 109 -327v-68h-643q0 -207 102 -321t258 -112q155 0 285 104l12 -8
q-55 -94 -165 -178q-110 -85 -259 -83z" />
    <glyph glyph-name="f" unicode="f" horiz-adv-x="665" 
d="M612 8v-8h-555v8q83 31 112 87q28 55 28 184v669h-177l23 96h154v89q-1 194 121 303q121 108 290 108q96 0 162 -51t66 -113q0 -57 -35.5 -98t-91.5 -41q-54 0 -87.5 31t-33.5 84q0 92 86 139q-29 8 -58 8q-87 0 -127 -82q-41 -84 -40 -260v-117h223v-96h-223v-669
q0 -128 31 -184q32 -55 132 -87z" />
    <glyph glyph-name="g" unicode="g" horiz-adv-x="1069" 
d="M520 397q53 0 89.5 31t53 82.5t23 98t6.5 97.5q0 49 -7 96t-24 98t-53.5 82.5t-87.5 31.5q-48 0 -83.5 -28.5t-54 -74t-26.5 -91t-8 -90.5q0 -65 2.5 -103t18.5 -91t47 -90q42 -49 104 -49zM522 -440q151 0 260 74q107 73 109 176q0 118 -164 129l-356 18q-52 5 -64 8
q-109 -76 -109 -178q0 -62 30 -108.5t79.5 -71t103 -36t111.5 -11.5zM1063 -86q0 -68 -28 -128.5t-76.5 -104.5t-105 -76.5t-121.5 -52.5q-138 -44 -296 -44q-159 0 -300 65q-138 65 -138 169q0 159 268 238q-114 41 -112 155q0 72 50 137t122 111q-107 42 -166 125t-60 197
q0 114 58.5 198.5t151.5 125t206 40.5q110 0 219 -55l357 55l-23 -143l-240 16q113 -92 113 -244q0 -151 -122 -252q-121 -100 -298 -100q-86 0 -164 25q-66 -56 -65 -109q0 -70 119 -76l295 -14q58 -2 104.5 -9t95.5 -24.5t81.5 -45t53.5 -73t21 -106.5z" />
    <glyph glyph-name="h" unicode="h" horiz-adv-x="1302" 
d="M1255 8v-8h-526v8q85 32 114 87q29 56 27 184v446q0 100 -51.5 154.5t-150.5 54.5q-98 0 -213 -64v-591q0 -127 27 -184q28 -55 114 -87v-8h-533v8q83 31 112 87q28 55 28 184v886q0 136 -29 189q-28 52 -135 90v8q194 12 407 92h9v-641q194 166 342 166q146 0 232 -86
q85 -85 85 -270v-434q0 -38 1.5 -62t5.5 -54t13.5 -50t24.5 -41t39 -36.5t57 -27.5z" />
    <glyph glyph-name="i" unicode="i" horiz-adv-x="643" 
d="M596 8v-8h-526v8q86 32 114 87q29 56 27 184v411q0 135 -29 188q-28 52 -135 91v8q183 12 399 92h9v-790q0 -127 27 -184q28 -55 114 -87zM467 1321q0 -57 -41 -97t-98 -40q-58 0 -98 39.5t-40 97.5t40 98.5t98 40.5t98.5 -40.5t40.5 -98.5z" />
    <glyph glyph-name="j" unicode="j" horiz-adv-x="636" 
d="M205 -72v762q0 135 -29 188q-28 52 -135 91v8q192 12 405 92h9v-1038q0 -232 -155 -367q-124 -107 -253 -156l-6 11q85 54 124.5 170.5t39.5 238.5zM467 1321q0 -57 -41 -97t-98 -40q-58 0 -98 39.5t-40 97.5t40 98.5t98 40.5t98.5 -40.5t40.5 -98.5z" />
    <glyph glyph-name="k" unicode="k" horiz-adv-x="1239" 
d="M590 8v-8h-533v8q85 32 114 87q28 55 28 184v886q0 136 -29 189q-28 52 -135 90v8q186 12 407 92h9v-1265q0 -127 27 -184q29 -56 112 -87zM1290 8v-8h-225q-111 0 -152 9q-42 9 -85 51q-47 45 -115 157l-215 338l192 180q104 95 104 175q0 81 -151 120v14h608v-10
q-237 -57 -415 -243l-129 -132l303 -428q65 -92 125.5 -143t154.5 -80z" />
    <glyph glyph-name="l" unicode="l" horiz-adv-x="620" 
d="M590 8v-8h-533v8q85 32 114 87q28 55 28 184v886q0 136 -29 189q-28 52 -135 90v8q186 12 407 92h9v-1265q0 -127 27 -184q29 -56 112 -87z" />
    <glyph glyph-name="m" unicode="m" horiz-adv-x="1918" 
d="M1872 8v-8h-524v8q83 31 112 87t27 184v446q0 93 -43.5 151t-132.5 58q-45 0 -116 -22.5t-124 -47.5q23 -74 23 -162v-423q0 -127 27 -184q29 -56 112 -87v-8h-524v8q83 32 111 87t28 184v446q0 209 -172 209q-103 0 -221 -64v-591q0 -127 27 -184q28 -55 114 -87v-8
h-526v8q86 32 114 87q29 56 27 184v411q0 135 -29 188q-28 52 -135 91v8q178 11 395 92h9v-170q72 69 167 118t181 50q201 0 266 -180q73 70 180 125.5t195 56.5q133 0 213 -89t80 -278v-423q0 -127 27 -184q29 -56 112 -87z" />
    <glyph glyph-name="n" unicode="n" horiz-adv-x="1308" 
d="M1262 8v-8h-525v8q83 31 112 87q28 55 28 184v446q1 100 -55 155q-56 54 -152 54q-97 0 -215 -64v-591q0 -127 27 -184q28 -55 114 -87v-8h-526v8q86 32 114 87q29 56 27 184v411q0 135 -29 188q-28 52 -135 91v8q178 11 395 92h9v-170q79 70 177 118.5t189 49.5
q134 0 219 -85q86 -86 86 -269v-434q0 -45 2 -73t9.5 -62t22 -56.5t41 -43.5t65.5 -36z" />
    <glyph glyph-name="o" unicode="o" horiz-adv-x="1245" 
d="M897 522q0 58 -6.5 118t-25.5 129t-48.5 122t-80.5 88t-116 35q-55 0 -99.5 -24t-73 -66t-49.5 -91.5t-32 -107.5t-15.5 -107t-4.5 -96q0 -65 6 -125.5t25 -130t49 -120t83.5 -84t123.5 -33.5q86 -1 151 77q114 137 113 416zM1008 135q-161 -160 -387 -160
q-113 0 -214.5 43t-174.5 116.5t-115.5 175.5t-42.5 215q0 229 164 387q163 157 384 157q220 0 384 -156t164 -387q0 -230 -162 -391z" />
    <glyph glyph-name="p" unicode="p" horiz-adv-x="1300" 
d="M588 27q159 0 272 134q112 133 111 339q2 206 -99 323q-100 117 -241 117q-106 0 -195 -59v-813q74 -41 152 -41zM600 -463v-8h-557v8q86 32 114 88q29 57 27 182v883q0 137 -28 189q-28 51 -136 90v8q207 18 408 92h8v-158q158 158 348 158q189 0 317 -138
q126 -138 126 -356q2 -203 -117 -349t-320 -214q-108 -37 -194 -37q-80 0 -160 11v-179q0 -127 32 -183t132 -87z" />
    <glyph glyph-name="q" unicode="q" horiz-adv-x="1277" 
d="M682 1012q-152 0 -256 -135q-104 -136 -104 -334q0 -199 108 -304q107 -104 252 -106q103 0 174 47v783q-77 49 -174 49zM688 1069q62 0 260 -33q62 8 135 33h25v-1262q0 -42 2 -71.5t10.5 -63t23 -57t41 -44.5t64.5 -34v-8h-557v8q100 31 132 87t32 183v347
q-65 -79 -153 -128.5t-183 -50.5q-174 2 -310 133q-136 132 -136 357q0 265 181 434q182 170 433 170z" />
    <glyph glyph-name="r" unicode="r" horiz-adv-x="827" 
d="M680 784q-60 0 -100.5 41t-40.5 101q0 59 40.5 101t99.5 42t100.5 -42t41.5 -101t-41 -100.5t-100 -41.5zM614 8v-8h-548v8q83 31 112 87t27 184v411q0 135 -29 188q-28 52 -135 91v8q184 11 401 92h9v-790q0 -128 31 -184q32 -55 132 -87z" />
    <glyph glyph-name="s" unicode="s" horiz-adv-x="868" 
d="M438 27q77 0 132.5 45t55.5 120q0 72 -54 120q-56 49 -134 83q-65 29 -156 76q-86 44 -136.5 120.5t-51.5 170.5q0 94 52 165.5t132 106.5t172 35q144 0 289 -57v-258h-8q-157 262 -299 262q-68 0 -117 -41.5t-49 -108.5q0 -113 193 -194q66 -29 159 -76q88 -45 140 -123
t53 -174q0 -81 -33.5 -144t-90.5 -101.5t-126.5 -58t-146.5 -20.5q-174 0 -322 74l-6 291h10q174 -313 342 -313z" />
    <glyph glyph-name="t" unicode="t" horiz-adv-x="737" 
d="M195 295v643h-150v10l90 49q50 28 112.5 82.5t94.5 100.5q1 1 88 118h10v-254h271v-110h-271v-627q0 -85 44 -136.5t128 -51.5q82 0 144 39l8 -11q-130 -164 -295 -163q-124 0 -200 74q-75 74 -74 237z" />
    <glyph glyph-name="u" unicode="u" horiz-adv-x="1253" 
d="M848 -25h-8v177q-187 -176 -328 -176q-142 0 -227 76q-86 77 -86 257v381q0 135 -29 188q-28 52 -135 91v8q184 11 401 92h8v-743q0 -94 62 -144q63 -50 154 -49q93 0 174 45v512q0 135 -29 188q-28 52 -135 91v8q184 11 401 92h8v-715q0 -136 29 -188q28 -51 135 -90v-8
q-192 -18 -395 -93z" />
    <glyph glyph-name="v" unicode="v" horiz-adv-x="1204" 
d="M12 1036v8h549v-8q-62 -14 -87.5 -44t-25.5 -94q0 -70 64 -265l147 -469l181 502q45 128 45 219q0 123 -129 151v8h436v-8q-78 -26 -132 -102q-55 -78 -134 -279l-258 -655h-189l-231 639q-80 223 -126 295q-47 74 -110 102z" />
    <glyph glyph-name="w" unicode="w" horiz-adv-x="1785" 
d="M12 1036v8h549v-8q-62 -14 -85.5 -43t-23.5 -93q0 -69 64 -294l119 -432l278 870h82l262 -870l123 361q86 253 86 336q0 75 -28.5 112.5t-100.5 52.5v8h439v-8q-80 -27 -137 -102q-58 -79 -130 -279l-241 -655h-185l-215 657l-225 -657h-188l-211 655q-66 205 -111 279
t-121 102z" />
    <glyph glyph-name="x" unicode="x" horiz-adv-x="1234" 
d="M532 829l156 -198q176 227 176 293q0 67 -106 110v10h452v-10q-24 -15 -55 -34t-39 -24q-85 -52 -194 -177l-195 -221l270 -349q112 -150 238 -221v-8h-559v8q61 31 86 52q26 23 26 58q0 36 -77 134l-148 188l-84 -100q-137 -164 -137 -231q0 -35 30 -55q34 -22 99 -46
v-8h-457v8q146 83 279 230l229 254l-237 309q-46 58 -74 91t-74.5 75t-93.5 69v8h561v-10q-62 -29 -88 -52q-27 -24 -27 -60q0 -37 43 -93z" />
    <glyph glyph-name="y" unicode="y" horiz-adv-x="1159" 
d="M16 1036v8h531v-10q-61 -17 -86 -45t-25 -89q0 -66 64 -255l162 -491l147 446q57 174 57 279q0 131 -114 155v10h405v-8q-74 -35 -127 -133q-54 -100 -149 -360l-226 -619q-14 -38 -24 -64t-30.5 -73t-39 -80.5t-46 -73.5t-54.5 -65t-61.5 -42.5t-69.5 -17.5
q-87 0 -130 40q-46 40 -46 94q0 57 36 96t92 39q61 0 92.5 -44.5t31.5 -107.5q45 23 84 87q41 68 92 206l30 82h-133l-254 721q-67 186 -101 240q-34 51 -108 75z" />
    <glyph glyph-name="z" unicode="z" horiz-adv-x="1030" 
d="M936 0h-873v8l586 965h-246q-30 0 -50.5 -5.5t-33.5 -14t-41 -30.5q-28 -23 -84 -81q-52 -54 -88 -86h-8l41 288h803v-10l-575 -964h288q71 0 117 36t197 185h8z" />
    <glyph glyph-name="braceleft" unicode="{" horiz-adv-x="649" 
d="M242 78v178q0 156 -20 228q-18 63 -50 93.5t-94 38.5v17q112 16 140 119q24 88 24 241v178q0 201 92 279q91 77 289 94v-8q-94 -19 -126 -103t-32 -264v-159q0 -296 -299 -385q299 -89 299 -385v-160q0 -179 32 -264q31 -83 126 -103v-8q-198 17 -289 94q-92 78 -92 279z
" />
    <glyph glyph-name="bar" unicode="|" horiz-adv-x="417" 
d="M248 1544v-1780h-78v1780h78z" />
    <glyph glyph-name="braceright" unicode="}" horiz-adv-x="647" 
d="M184 80v160q0 296 299 385q-299 89 -299 385v159q0 181 -31 264q-32 84 -126 103v8q198 -17 289 -94q92 -78 92 -279v-178q0 -155 18 -225q16 -64 49 -95.5t96 -39.5v-17q-116 -17 -141 -118q-22 -84 -22 -242v-178q0 -201 -92 -279q-91 -77 -289 -94v8q95 20 126 103
q32 87 31 264z" />
    <glyph glyph-name="asciitilde" unicode="~" 
d="M395 725q79 0 233 -57q153 -58 194 -58q39 0 91.5 30.5t69.5 64.5l49 -41q-100 -189 -258 -191q-70 0 -222 57q-150 58 -201 58q-43 0 -93.5 -27t-69.5 -63l-55 43q96 184 262 184z" />
    <glyph glyph-name="exclamdown" unicode="&#xa1;" horiz-adv-x="530" 
d="M265 1069q60 0 103.5 -42t43.5 -102t-43 -103.5t-103 -43.5q-61 0 -104 42.5t-43 103.5t42.5 103t103.5 42zM264 -397q-66 0 -106.5 42t-40.5 109q-2 74 63 398q64 324 78 501h14q13 -168 76 -501q63 -330 64 -398q0 -67 -40.5 -109t-107.5 -42z" />
    <glyph glyph-name="cent" unicode="&#xa2;" 
d="M379 721q0 -306 229 -397v806q-81 -34 -133.5 -100t-73.5 -142t-22 -167zM690 129v-301h-82v297q-184 -1 -336 144q-152 146 -152 371q0 226 144 378q143 152 344 188v207h82v-199q11 2 31 3q125 0 216 -51q93 -52 93 -124q0 -67 -38 -113t-103 -46q-54 0 -96.5 34.5
t-42.5 87.5q0 45 21 87t58 61q-35 6 -71 6t-68 -6v-854q56 -8 106 -8q55 2 134 27t123 55l14 -11q-178 -205 -377 -233z" />
    <glyph glyph-name="sterling" unicode="&#xa3;" horiz-adv-x="1110" 
d="M465 1105q0 -127 63 -333h328v-70h-311q18 -88 18 -156q0 -62 -36.5 -131.5t-86.5 -118.5t-110 -95h467q105 0 140 20q33 19 50 84h8q2 -22 2 -65q0 -240 -225 -240h-680v8q102 79 176 189.5t74 220.5q0 107 -55 284h-178v70h157q-41 143 -41 256q0 112 74 213.5
t181 152.5q100 48 219 48t204 -58q86 -59 86 -132q0 -66 -36.5 -111t-101.5 -45q-55 0 -95.5 34.5t-40.5 88.5q0 51 29 90.5t77 50.5q-51 26 -123 26q-121 0 -177 -77t-56 -204z" />
    <glyph glyph-name="currency" unicode="&#xa4;" 
d="M977 715q0 167 -113 287t-280 120t-280.5 -120t-113.5 -288t114 -287.5t281 -119.5q166 0 280 120.5t112 287.5zM1001 195l-110 116q-122 -104 -307 -104t-303 104l-113 -116l-105 104l115 117q-102 120 -102 306t102 296l-115 110l105 107l113 -113q122 100 302 100
t308 -100l110 113l103 -107l-111 -110q99 -111 99 -298t-99 -304l111 -117z" />
    <glyph glyph-name="yen" unicode="&#xa5;" 
d="M879 8v-8h-584v8q102 32 135 88q33 57 33 185v92h-254v69h254v170h-254v72h223l-156 330q-101 216 -156 290q-56 76 -132 101v8h544v-8q-70 -19 -90 -57q-19 -37 -3 -109q17 -72 81 -219l139 -322l134 322q84 208 73 283q-11 74 -127 102v8h441v-8q-76 -18 -136 -99
q-62 -83 -155 -292l-152 -330h219v-72h-245v-170h245v-69h-245v-92q0 -126 32 -185q33 -57 136 -88z" />
    <glyph glyph-name="brokenbar" unicode="&#xa6;" horiz-adv-x="417" 
d="M248 1544v-756h-78v756h78zM248 520v-756h-78v756h78z" />
    <glyph glyph-name="section" unicode="&#xa7;" horiz-adv-x="1052" 
d="M295 907q-66 -61 -66 -148q0 -86 131 -157q310 -157 375 -205q80 66 80 151t-106 140l-351 180q-45 26 -63 39zM270 926q-106 88 -106 214q0 133 104.5 216.5t241.5 83.5q144 0 234 -60q88 -60 90 -147q0 -56 -37 -95.5t-93 -39.5q-51 0 -91 34t-40 85q0 47 29 85.5
t74 45.5q-53 30 -142 30q-51 0 -98 -15.5t-81.5 -52.5t-35.5 -89q0 -100 160 -179l291 -145q87 -36 143 -98t56 -147q-1 -82 -61.5 -156.5t-141.5 -118.5q121 -94 121 -229q0 -134 -115 -231t-272 -97q-156 0 -256 72q-99 71 -101 167q0 59 40.5 98.5t100.5 41.5
q59 0 99.5 -37.5t40.5 -95.5q0 -106 -115 -146q66 -39 170 -39q95 0 170.5 48.5t75.5 138.5q0 83 -125 155l-367 209q-155 89 -155 240q0 152 192 254z" />
    <glyph glyph-name="dieresis" unicode="&#xa8;" horiz-adv-x="712" 
d="M391 1319q0 52 36.5 88.5t88.5 36.5t88.5 -36.5t36.5 -88.5q0 -51 -37 -87t-88 -36t-88 36t-37 87zM72 1319q0 52 36.5 88.5t88.5 36.5t88.5 -36.5t36.5 -88.5q0 -51 -37 -87t-88 -36t-88 36t-37 87z" />
    <glyph glyph-name="copyright" unicode="&#xa9;" horiz-adv-x="1630" 
d="M1409 705q0 259 -172 449q-173 192 -422 192t-422 -192q-172 -191 -172 -449t172 -449q173 -192 422 -192q127 0 239 53.5t189 142t121.5 205t44.5 240.5zM310 186q-206 217 -206 519t206 519q206 216 505 216t505 -216q206 -217 206 -519t-206 -519q-205 -215 -505 -217
q-300 2 -505 217zM1120 383l19 -23q-141 -129 -313 -129t-292 127q-120 128 -120 346t131 346t299 128q125 0 239 -52v-165h-8q-26 36 -45 58.5t-47 48t-60.5 38t-70.5 12.5q-57 0 -102.5 -28.5t-72.5 -72t-44.5 -101t-24 -109.5t-6.5 -103q0 -57 10 -111t33 -104.5
t56.5 -88.5t84 -60.5t112.5 -22.5q136 0 222 66z" />
    <glyph glyph-name="ordfeminine" unicode="&#xaa;" horiz-adv-x="772" 
d="M709 602v-76h-650v76h650zM356 801q44 0 82 18v250l-59 -6q-63 -10 -101 -47t-38 -98q0 -49 33.5 -83t82.5 -34zM621 1169v-270q-1 -69 29 -93q31 -25 98 -32q-23 -21 -87.5 -38t-103.5 -17q-93 0 -115 78q-113 -82 -198 -82q-77 0 -134 39.5t-57 113.5q0 195 385 240v84
q0 67 -44 117.5t-110 50.5q-60 0 -98 -27q74 -29 74 -88q0 -38 -26.5 -59t-65.5 -21t-65 25q-28 25 -27 59q0 65 95 115q94 49 214 49q236 0 236 -244z" />
    <glyph glyph-name="guillemotleft" unicode="&#xab;" horiz-adv-x="933" 
d="M313 543l246 -359h-18l-478 359q23 17 478 360h18zM848 836h10l-174 -293q75 -126 82 -137q42 -73 92 -154h-8l-381 291q12 10 379 293z" />
    <glyph glyph-name="logicalnot" unicode="&#xac;" 
d="M1010 651v-499h-148v352h-704v147h852z" />
    <glyph glyph-name="registered" unicode="&#xae;" horiz-adv-x="1630" 
d="M1405 705q0 167 -74 311.5t-211 233.5t-305 89t-305 -89t-211 -233.5t-74 -311.5q0 -259 170 -447t420 -188t420 188t170 447zM109 705q0 302 203 516q204 213 503 213t503 -213t204 -516t-204 -517q-204 -215 -503 -213q-150 0 -282 58t-224.5 156.5t-146 232.5
t-53.5 283zM707 1100v-389h110q83 0 132.5 53t49.5 137q0 83 -48 140.5t-130 58.5h-114zM1190 262v-8h-172l-223 397h-88v-231q0 -80 10 -101q11 -23 55 -57v-8h-274v8q44 30 55 54q10 23 10 104v571q0 34 -1.5 51t-7 39t-19.5 38.5t-37 31.5v8h327q59 0 113.5 -13
t102.5 -39.5t77 -74.5t29 -110q1 -105 -61 -167q-61 -60 -148 -87z" />
    <glyph glyph-name="macron" unicode="&#xaf;" horiz-adv-x="581" 
d="M547 1352v-109h-512v109h512z" />
    <glyph glyph-name="degree" unicode="&#xb0;" horiz-adv-x="835" 
d="M625 1106q-2 95 -59 161.5t-150 66.5q-94 0 -151.5 -66.5t-57.5 -161.5q0 -96 57.5 -163t151.5 -67q93 0 150 67.5t59 162.5zM84 1106q0 138 98 234t236 96q139 0 236.5 -96t97.5 -234q0 -139 -97.5 -234.5t-236.5 -95.5t-236.5 96t-97.5 234z" />
    <glyph glyph-name="plusminus" unicode="&#xb1;" 
d="M657 565v-352h-147v352h-352v148h352v352h147v-352h353v-148h-353zM1010 147v-147h-852v147h852z" />
    <glyph glyph-name="twosuperior" unicode="&#xb2;" horiz-adv-x="806" 
d="M700 532h-610v41l264 297q144 165 146 308q0 82 -54 130t-118 48q-67 0 -123 -37q51 -2 89 -36t38 -84q0 -49 -35 -82.5t-84 -33.5q-51 0 -87 37t-36 88q0 78 91 148t225 70q57 0 110 -13.5t99 -40t74 -73t28 -107.5q0 -73 -52 -135q-53 -63 -147 -135t-129 -111
l-117 -121h439z" />
    <glyph glyph-name="threesuperior" unicode="&#xb3;" horiz-adv-x="806" 
d="M463 1255h-365v158h568v-8l-232 -283q124 -20 206.5 -97t82.5 -197q0 -122 -129 -216q-128 -94 -279 -94q-106 0 -173 43t-66 109q0 48 36 80t84 32q49 0 83 -32t32 -74q0 -70 -59 -111q23 -4 43 -4q84 2 151 63q68 62 68 164t-68 147q-67 46 -151 46q-23 0 -31 -2
l-10 10z" />
    <glyph glyph-name="acute" unicode="&#xb4;" horiz-adv-x="501" 
d="M57 1174l-10 2q123 136 168 249l217 -12q-119 -166 -375 -239z" />
    <glyph glyph-name="mu" unicode="&#xb5;" horiz-adv-x="1253" 
d="M848 -25h-8v177q-16 -12 -36 -29q-92 -77 -135 -97q-111 -51 -201 -51q-92 0 -161 50q9 -63 63 -216t54 -195q0 -39 -29 -72.5t-68 -33.5t-60.5 7.5t-44.5 34.5q-24 29 -23 77v1063q0 135 -29 188q-28 52 -135 91v8q184 11 401 92h8v-747q0 -99 50 -154t136 -53
q86 0 204 63v512q0 135 -29 188q-28 52 -135 91v8q184 11 401 92h8v-715q0 -136 29 -188q28 -51 135 -90v-8q-192 -18 -395 -93z" />
    <glyph glyph-name="paragraph" unicode="&#xb6;" horiz-adv-x="1077" 
d="M885 1270v-1741h-92v1796h-340v-1796h-93v1276q-162 0 -244 88q-82 89 -81 216q0 127 77 216q76 88 224 88h639v-8q-90 -41 -90 -135z" />
    <glyph glyph-name="periodcentered" unicode="&#xb7;" horiz-adv-x="479" 
d="M88 730q0 63 43.5 106t106.5 45q63 0 107 -44t44 -107q0 -62 -44 -106t-106 -44q-63 0 -107 43.5t-44 106.5z" />
    <glyph glyph-name="cedilla" unicode="&#xb8;" horiz-adv-x="489" 
d="M59 -375l25 23q60 -27 116 -27q50 0 84 22t34 69q0 32 -36.5 57t-77.5 35.5t-73 11.5l143 184h58l-68 -104q71 -7 133 -50q61 -42 61 -118q0 -56 -39.5 -93t-88.5 -50t-104 -13q-94 0 -167 53z" />
    <glyph glyph-name="onesuperior" unicode="&#xb9;" horiz-adv-x="806" 
d="M635 543v-11h-457v11q78 22 104 67t25 148v471q-89 -19 -182 -33l-4 21q182 51 385 221h10v-639q0 -130 20 -181q20 -50 99 -75z" />
    <glyph glyph-name="ordmasculine" unicode="&#xba;" horiz-adv-x="860" 
d="M782 602v-76h-712v76h712zM598 1067q0 47 -7 93.5t-24 96t-53 80.5t-86 31t-86 -31t-53 -81t-24 -96.5t-7 -93.5q0 -38 3.5 -74.5t14.5 -80.5t29 -76.5t50 -54.5t74 -22t74 22t49.5 54.5t28.5 77t14 81t3 74.5zM430 1413q152 0 264 -98t111 -247q0 -152 -111.5 -251.5
t-265.5 -101.5q-154 2 -265 101.5t-110 251.5q0 100 53.5 180t139 122.5t184.5 42.5z" />
    <glyph glyph-name="guillemotright" unicode="&#xbb;" horiz-adv-x="933" 
d="M870 543l-477 -359h-18l246 359l-246 360h18q438 -331 477 -360zM84 252h-8l174 291q-20 31 -91 152q-16 26 -34 57.5t-30 51.5t-19 32h10q367 -283 379 -293z" />
    <glyph glyph-name="onequarter" unicode="&#xbc;" horiz-adv-x="1986" 
d="M1884 8v-8h-434v8q86 23 106 67q19 43 21 161h-412v12q238 316 484 645h129v-565h108v-92h-108q0 -118 17 -161q16 -41 89 -67zM1317 328h260v350q-17 -22 -260 -350zM635 543v-11h-457v11q78 22 104 67t25 148v471q-89 -19 -182 -33l-4 21q182 51 385 221h10v-639
q0 -130 20 -181q20 -50 99 -75zM1536 1499l-971 -1595h-114l972 1595h113z" />
    <glyph glyph-name="onehalf" unicode="&#xbd;" horiz-adv-x="1986" 
d="M1835 0h-610v41l264 297q145 166 145 307q0 74 -49 126t-123 52q-67 0 -123 -37q53 -1 92 -37q35 -37 35 -82q0 -48 -35 -82t-83 -34q-51 0 -87 37t-36 88q0 78 91 148q89 69 225 69q57 -1 110 -14t99 -39.5t73.5 -73t27.5 -107.5q0 -73 -52 -135q-54 -65 -146 -135
q-93 -71 -129 -110l-117 -121h438zM635 543v-11h-457v11q78 22 104 67t25 148v471q-89 -19 -182 -33l-4 21q182 51 385 221h10v-639q0 -130 20 -181q20 -50 99 -75zM1536 1499l-971 -1595h-114l972 1595h113z" />
    <glyph glyph-name="threequarters" unicode="&#xbe;" horiz-adv-x="1986" 
d="M463 1255h-365v158h568v-8l-232 -283q124 -20 206.5 -97t82.5 -197q0 -122 -129 -216q-128 -94 -279 -94q-106 0 -173 43t-66 109q0 48 36 80t84 32q49 0 83 -32t32 -74q0 -70 -59 -111q23 -4 43 -4q84 2 151 63q68 62 68 164t-68 147q-67 46 -151 46q-23 0 -31 -2
l-10 10zM1884 8v-8h-434v8q86 23 106 67q19 43 21 161h-412v12q238 316 484 645h129v-565h108v-92h-108q0 -118 17 -161q16 -41 89 -67zM1317 328h260v350q-17 -22 -260 -350zM1536 1499l-971 -1595h-114l972 1595h113z" />
    <glyph glyph-name="questiondown" unicode="&#xbf;" horiz-adv-x="966" 
d="M526 662h23q0 -94 -25.5 -198t-69.5 -184q-96 -174 -96 -315t75 -213t185 -72q111 0 193 97q-69 0 -124.5 43.5t-55.5 109.5q0 64 42 106t107 42q69 0 110.5 -45.5t41.5 -114.5q0 -117 -118 -216t-297 -99q-84 0 -156 22t-128.5 64t-88.5 110.5t-32 154.5q0 165 143 311
q49 53 119 121q145 143 152 276zM387 920q0 63 44 106t107 43t106.5 -43t43.5 -106q0 -62 -44 -106t-106 -44q-64 0 -107.5 43t-43.5 107z" />
    <glyph glyph-name="Agrave" unicode="&#xc0;" horiz-adv-x="1482" 
d="M938 1544l-10 -2q-252 74 -375 240l217 12q45 -109 168 -250zM444 582h465l-235 684zM1477 8v-8h-564v8q66 15 92.5 45.5t26.5 96.5q0 70 -96 354h-518q-84 -258 -84 -334q0 -73 31 -108t104 -54v-8h-463v8q92 38 150 132q58 96 170 413l305 860h246l358 -1024
q66 -187 119 -269q51 -79 123 -112z" />
    <glyph glyph-name="Aacute" unicode="&#xc1;" horiz-adv-x="1482" 
d="M563 1542l-10 2q122 136 168 250l217 -12q-118 -166 -375 -240zM444 582h465l-235 684zM1477 8v-8h-564v8q66 15 92.5 45.5t26.5 96.5q0 70 -96 354h-518q-84 -258 -84 -334q0 -73 31 -108t104 -54v-8h-463v8q92 38 150 132q58 96 170 413l305 860h246l358 -1024
q66 -187 119 -269q51 -79 123 -112z" />
    <glyph glyph-name="Acircumflex" unicode="&#xc2;" horiz-adv-x="1482" 
d="M803 1796l190 -264h-16l-232 115l-229 -115h-16l186 264h117zM444 582h465l-235 684zM1477 8v-8h-564v8q66 15 92.5 45.5t26.5 96.5q0 70 -96 354h-518q-84 -258 -84 -334q0 -73 31 -108t104 -54v-8h-463v8q92 38 150 132q58 96 170 413l305 860h246l358 -1024
q66 -187 119 -269q51 -79 123 -112z" />
    <glyph glyph-name="Atilde" unicode="&#xc3;" horiz-adv-x="1482" 
d="M856 1573q-55 0 -148 36t-124 36q-85 0 -125 -76l-15 4q23 86 79 144q57 59 111 59t146 -33t129 -33q81 0 125 72l13 -4q-20 -74 -72 -139.5t-119 -65.5zM444 582h465l-235 684zM1477 8v-8h-564v8q66 15 92.5 45.5t26.5 96.5q0 70 -96 354h-518q-84 -258 -84 -334
q0 -73 31 -108t104 -54v-8h-463v8q92 38 150 132q58 96 170 413l305 860h246l358 -1024q66 -187 119 -269q51 -79 123 -112z" />
    <glyph glyph-name="Adieresis" unicode="&#xc4;" horiz-adv-x="1482" 
d="M780 1688q0 52 36.5 88t88.5 36t88.5 -36t36.5 -88q0 -51 -37 -87t-88 -36t-88 36t-37 87zM461 1688q0 52 36.5 88t88.5 36t88.5 -36t36.5 -88q0 -51 -37 -87t-88 -36t-88 36t-37 87zM444 582h465l-235 684zM1477 8v-8h-564v8q66 15 92.5 45.5t26.5 96.5q0 70 -96 354
h-518q-84 -258 -84 -334q0 -73 31 -108t104 -54v-8h-463v8q92 38 150 132q58 96 170 413l305 860h246l358 -1024q66 -187 119 -269q51 -79 123 -112z" />
    <glyph glyph-name="Aring" unicode="&#xc5;" horiz-adv-x="1482" 
d="M748 1356q58 0 97.5 41.5t39.5 99.5t-39.5 99.5t-97.5 41.5q-59 0 -98.5 -41t-39.5 -100t39.5 -100t98.5 -41zM444 582h465l-235 684zM1477 8v-8h-564v8q66 15 92.5 45.5t26.5 96.5q0 70 -96 354h-518q-84 -258 -84 -334q0 -73 31 -108t104 -54v-8h-463v8q92 38 150 132
q58 96 170 413l272 768q-84 67 -84 169q0 99 67.5 167.5t166.5 68.5q97 0 164 -68t69 -165q0 -98 -76 -164l330 -940q66 -187 119 -269q51 -79 123 -112z" />
    <glyph glyph-name="AE" unicode="&#xc6;" horiz-adv-x="1992" 
d="M571 582h445v761h-12zM1882 0h-1034v8q102 32 135 88q33 57 33 185v213h-496q-154 -269 -154 -356q0 -86 119 -130v-8h-479v8q93 38 179 146q89 112 257 399l338 582q36 60 41 118q0 57 -51 89q-51 31 -158 63v8h1211v-315h-11q-51 89 -86 137q-68 90 -151 101
q-27 3 -76 3h-26h-201v-575h223q79 0 128.5 32t96.5 103h11v-344h-11q-46 71 -95.5 102t-129.5 31h-223v-614h203q164 0 213 32q71 50 121 110q43 50 104 130h10z" />
    <glyph glyph-name="Ccedilla" unicode="&#xc7;" horiz-adv-x="1468" 
d="M674 -375l24 23q60 -27 116 -27q50 0 84 22t34 69q0 32 -36.5 57t-77.5 35.5t-73 11.5l121 155q-157 8 -295 59.5t-244.5 140t-168.5 221.5t-62 294q0 248 145 432.5t387 271.5q144 52 276 52q245 0 442 -82v-299h-9q-155 311 -438 311q-221 0 -371 -182t-150 -483
t159 -485q157 -183 393 -185q297 0 452 332h9l-27 -314q-160 -81 -438 -86l-47 -73q71 -7 133 -50q61 -42 61 -118q-1 -56 -40 -93t-88 -50t-104 -13q-94 0 -167 53z" />
    <glyph glyph-name="Egrave" unicode="&#xc8;" horiz-adv-x="1216" 
d="M799 1544l-11 -2q-253 74 -374 240l217 12q45 -109 168 -250zM1108 0h-1036v8q102 32 135 88q33 57 33 185v854q0 120 -32 179t-136 91v8h977v-315h-9q-90 155 -148 198q-56 43 -173 43h-219v-575h223q82 0 130 30.5t95 104.5h8v-344h-8q-49 76 -94.5 104.5t-130.5 28.5
h-223v-614h188q100 0 139 4q47 5 100 39t90 76q57 69 124 153h8z" />
    <glyph glyph-name="Eacute" unicode="&#xc9;" horiz-adv-x="1216" 
d="M424 1542l-10 2q122 136 168 250l217 -12q-119 -166 -375 -240zM1108 0h-1036v8q102 32 135 88q33 57 33 185v854q0 120 -32 179t-136 91v8h977v-315h-9q-90 155 -148 198q-56 43 -173 43h-219v-575h223q82 0 130 30.5t95 104.5h8v-344h-8q-49 76 -94.5 104.5
t-130.5 28.5h-223v-614h188q100 0 139 4q47 5 100 39t90 76q57 69 124 153h8z" />
    <glyph glyph-name="Ecircumflex" unicode="&#xca;" horiz-adv-x="1216" 
d="M664 1796l190 -264h-16l-232 115l-229 -115h-17l187 264h117zM1108 0h-1036v8q102 32 135 88q33 57 33 185v854q0 120 -32 179t-136 91v8h977v-315h-9q-90 155 -148 198q-56 43 -173 43h-219v-575h223q82 0 130 30.5t95 104.5h8v-344h-8q-49 76 -94.5 104.5t-130.5 28.5
h-223v-614h188q100 0 139 4q47 5 100 39t90 76q57 69 124 153h8z" />
    <glyph glyph-name="Edieresis" unicode="&#xcb;" horiz-adv-x="1216" 
d="M641 1688q0 52 36.5 88t88.5 36t88.5 -36t36.5 -88q0 -51 -37 -87t-88 -36t-88 36t-37 87zM322 1688q0 52 36 88t88 36t89 -36t37 -88q0 -51 -37.5 -87t-88.5 -36q-52 0 -88 35.5t-36 87.5zM1108 0h-1036v8q102 32 135 88q33 57 33 185v854q0 120 -32 179t-136 91v8h977
v-315h-9q-90 155 -148 198q-56 43 -173 43h-219v-575h223q82 0 130 30.5t95 104.5h8v-344h-8q-49 76 -94.5 104.5t-130.5 28.5h-223v-614h188q100 0 139 4q47 5 100 39t90 76q57 69 124 153h8z" />
    <glyph glyph-name="Igrave" unicode="&#xcc;" horiz-adv-x="739" 
d="M561 1544l-10 -2q-252 74 -375 240l217 12q45 -109 168 -250zM666 8v-8h-594v8q55 17 89 40t51 58.5t22.5 73t5.5 99.5v856q0 120 -32 179t-136 91v8h594v-8q-100 -31 -134 -88q-34 -55 -32 -182v-856q0 -126 32 -184q33 -55 134 -87z" />
    <glyph glyph-name="Iacute" unicode="&#xcd;" horiz-adv-x="739" 
d="M186 1542l-10 2q122 136 168 250l217 -12q-119 -166 -375 -240zM666 8v-8h-594v8q55 17 89 40t51 58.5t22.5 73t5.5 99.5v856q0 120 -32 179t-136 91v8h594v-8q-100 -31 -134 -88q-34 -55 -32 -182v-856q0 -126 32 -184q33 -55 134 -87z" />
    <glyph glyph-name="Icircumflex" unicode="&#xce;" horiz-adv-x="739" 
d="M426 1796l190 -264h-16l-231 115l-230 -115h-16l186 264h117zM666 8v-8h-594v8q55 17 89 40t51 58.5t22.5 73t5.5 99.5v856q0 120 -32 179t-136 91v8h594v-8q-100 -31 -134 -88q-34 -55 -32 -182v-856q0 -126 32 -184q33 -55 134 -87z" />
    <glyph glyph-name="Idieresis" unicode="&#xcf;" horiz-adv-x="739" 
d="M403 1688q0 52 36.5 88t88.5 36t88.5 -36t36.5 -88q0 -51 -37 -87t-88 -36t-88 36t-37 87zM84 1688q0 52 36.5 88t88.5 36t88.5 -36t36.5 -88q0 -51 -37 -87t-88 -36t-88 36t-37 87zM666 8v-8h-594v8q55 17 89 40t51 58.5t22.5 73t5.5 99.5v856q0 120 -32 179t-136 91v8
h594v-8q-100 -31 -134 -88q-34 -55 -32 -182v-856q0 -126 32 -184q33 -55 134 -87z" />
    <glyph glyph-name="Eth" unicode="&#xd0;" horiz-adv-x="1622" 
d="M494 684v-610h225q259 0 404 184q147 184 147 456q0 271 -152 449q-152 176 -375 176h-249v-567h241v-88h-241zM719 0h-653v8q102 32 135 88q33 58 32 185v403h-143v88h143v363q0 115 -33.5 176t-133.5 94v8h675q342 0 577 -176q234 -176 234 -508q0 -141 -43.5 -260
t-121 -204.5t-182.5 -146t-228 -89.5t-258 -29z" />
    <glyph glyph-name="Ntilde" unicode="&#xd1;" horiz-adv-x="1665" 
d="M942 1573q-55 0 -148 36t-124 36q-85 0 -125 -76l-15 4q23 86 79 144q57 59 111 59t146 -33t129 -33q81 0 125 72l13 -4q-20 -74 -72 -139.5t-119 -65.5zM1436 973v-987h-117q-110 131 -484 582q-329 396 -501 603v-729q0 -295 64 -369q34 -40 104 -65v-8h-443v8
q74 27 106 67.5t47 119.5q15 84 15 247v746q0 66 -48 127t-150 90v8h426l874 -1038v598q0 230 -33 313q-33 81 -135 119v8h443v-8q-74 -28 -106.5 -68t-46.5 -119q-15 -84 -15 -245z" />
    <glyph glyph-name="Ograve" unicode="&#xd2;" horiz-adv-x="1716" 
d="M1049 1544l-11 -2q-253 74 -374 240l217 12q45 -109 168 -250zM1630 705q0 -234 -134 -414.5t-359 -267.5q-138 -53 -305 -53q-169 0 -344 88q-183 93 -292.5 267t-109.5 377q0 151 64.5 289t170.5 236t247.5 156.5t289.5 58.5t289.5 -58.5t247.5 -156t170.5 -235
t64.5 -287.5zM858 39q214 1 351 195t137 473q0 280 -136 473q-136 192 -352 192q-217 0 -352 -194t-135 -471q0 -279 136 -473q137 -195 351 -195z" />
    <glyph glyph-name="Oacute" unicode="&#xd3;" horiz-adv-x="1716" 
d="M674 1542l-10 2q123 137 167 250l218 -12q-119 -166 -375 -240zM1630 705q0 -234 -134 -414.5t-359 -267.5q-138 -53 -305 -53q-169 0 -344 88q-183 93 -292.5 267t-109.5 377q0 151 64.5 289t170.5 236t247.5 156.5t289.5 58.5t289.5 -58.5t247.5 -156t170.5 -235
t64.5 -287.5zM858 39q214 1 351 195t137 473q0 280 -136 473q-136 192 -352 192q-217 0 -352 -194t-135 -471q0 -279 136 -473q137 -195 351 -195z" />
    <glyph glyph-name="Ocircumflex" unicode="&#xd4;" horiz-adv-x="1716" 
d="M913 1796l191 -264h-17l-231 115l-229 -115h-17l187 264h116zM1630 705q0 -234 -134 -414.5t-359 -267.5q-138 -53 -305 -53q-169 0 -344 88q-183 93 -292.5 267t-109.5 377q0 151 64.5 289t170.5 236t247.5 156.5t289.5 58.5t289.5 -58.5t247.5 -156t170.5 -235
t64.5 -287.5zM858 39q214 1 351 195t137 473q0 280 -136 473q-136 192 -352 192q-217 0 -352 -194t-135 -471q0 -279 136 -473q137 -195 351 -195z" />
    <glyph glyph-name="Otilde" unicode="&#xd5;" horiz-adv-x="1716" 
d="M967 1573q-55 0 -149 36t-124 36q-85 0 -125 -76l-14 4q19 72 71.5 137.5t117.5 65.5q54 0 146 -33t130 -33q82 0 125 72l12 -4q-18 -74 -70.5 -139.5t-119.5 -65.5zM1630 705q0 -234 -134 -414.5t-359 -267.5q-138 -53 -305 -53q-169 0 -344 88q-183 93 -292.5 267
t-109.5 377q0 151 64.5 289t170.5 236t247.5 156.5t289.5 58.5t289.5 -58.5t247.5 -156t170.5 -235t64.5 -287.5zM858 39q214 1 351 195t137 473q0 280 -136 473q-136 192 -352 192q-217 0 -352 -194t-135 -471q0 -279 136 -473q137 -195 351 -195z" />
    <glyph glyph-name="Odieresis" unicode="&#xd6;" horiz-adv-x="1716" 
d="M893 1688q0 52 36.5 88t88.5 36t88.5 -36t36.5 -88q0 -51 -37 -87t-88 -36t-88 36t-37 87zM573 1688q0 52 36.5 88t88.5 36t88.5 -36t36.5 -88q0 -51 -37 -87t-88 -36t-88 36t-37 87zM1630 705q0 -234 -134 -414.5t-359 -267.5q-138 -53 -305 -53q-169 0 -344 88
q-183 93 -292.5 267t-109.5 377q0 151 64.5 289t170.5 236t247.5 156.5t289.5 58.5t289.5 -58.5t247.5 -156t170.5 -235t64.5 -287.5zM858 39q214 1 351 195t137 473q0 280 -136 473q-136 192 -352 192q-217 0 -352 -194t-135 -471q0 -279 136 -473q137 -195 351 -195z" />
    <glyph glyph-name="multiply" unicode="&#xd7;" 
d="M967 299l-105 -104l-278 278l-279 -278l-104 104l278 279l-278 278l104 105l279 -279l278 279l105 -105l-279 -278z" />
    <glyph glyph-name="Oslash" unicode="&#xd8;" horiz-adv-x="1675" 
d="M838 29q207 -2 338 201q130 202 130 482t-139 476q-466 -802 -604 -1034q119 -125 275 -125zM838 1380q-208 0 -339 -200q-130 -199 -130 -480t137 -477l604 1034q-119 123 -272 123zM82 709q0 205 115 377q116 173 287 264q173 92 344 92q175 0 341 -84l74 125
q59 -34 74 -41l-74 -127q165 -106 256.5 -267.5t91.5 -355.5q0 -196 -104 -363.5t-275.5 -263.5t-365.5 -96q-180 0 -346 78l-72 -121l-72 45l70 117q-166 102 -255 263.5t-89 357.5z" />
    <glyph glyph-name="Ugrave" unicode="&#xd9;" horiz-adv-x="1591" 
d="M965 1544l-11 -2q-253 74 -374 240l217 12q45 -109 168 -250zM1260 391v582q0 292 -69 367q-36 39 -104 65v8h451v-8q-72 -27 -106 -64q-68 -77 -68 -368v-588q0 -90 -32.5 -162t-86.5 -118.5t-127.5 -77.5t-150 -44t-159.5 -14q-83 0 -161 13t-154.5 44t-133 77.5
t-91.5 119t-35 162.5v750q0 124 -32 182q-33 56 -135 88v8h593v-8q-100 -31 -133 -88q-33 -58 -32 -182v-779q0 -130 91 -209t272 -79q81 0 151 18t127.5 55.5t91 101.5t33.5 148z" />
    <glyph glyph-name="Uacute" unicode="&#xda;" horiz-adv-x="1591" 
d="M590 1542l-10 2q122 136 168 250l217 -12q-119 -166 -375 -240zM1260 391v582q0 292 -69 367q-36 39 -104 65v8h451v-8q-72 -27 -106 -64q-68 -77 -68 -368v-588q0 -90 -32.5 -162t-86.5 -118.5t-127.5 -77.5t-150 -44t-159.5 -14q-83 0 -161 13t-154.5 44t-133 77.5
t-91.5 119t-35 162.5v750q0 124 -32 182q-33 56 -135 88v8h593v-8q-100 -31 -133 -88q-33 -58 -32 -182v-779q0 -130 91 -209t272 -79q81 0 151 18t127.5 55.5t91 101.5t33.5 148z" />
    <glyph glyph-name="Ucircumflex" unicode="&#xdb;" horiz-adv-x="1591" 
d="M829 1796l191 -264h-16l-232 115l-229 -115h-17l187 264h116zM1260 391v582q0 292 -69 367q-36 39 -104 65v8h451v-8q-72 -27 -106 -64q-68 -77 -68 -368v-588q0 -90 -32.5 -162t-86.5 -118.5t-127.5 -77.5t-150 -44t-159.5 -14q-83 0 -161 13t-154.5 44t-133 77.5
t-91.5 119t-35 162.5v750q0 124 -32 182q-33 56 -135 88v8h593v-8q-100 -31 -133 -88q-33 -58 -32 -182v-779q0 -130 91 -209t272 -79q81 0 151 18t127.5 55.5t91 101.5t33.5 148z" />
    <glyph glyph-name="Udieresis" unicode="&#xdc;" horiz-adv-x="1591" 
d="M807 1688q0 52 36.5 88t88.5 36t88.5 -36t36.5 -88q0 -51 -37 -87t-88 -36t-88 36t-37 87zM487 1688q0 52 36.5 88t88.5 36t88.5 -36t36.5 -88q0 -51 -37 -87t-88 -36t-88 36t-37 87zM1260 391v582q0 292 -69 367q-36 39 -104 65v8h451v-8q-72 -27 -106 -64
q-68 -77 -68 -368v-588q0 -90 -32.5 -162t-86.5 -118.5t-127.5 -77.5t-150 -44t-159.5 -14q-83 0 -161 13t-154.5 44t-133 77.5t-91.5 119t-35 162.5v750q0 124 -32 182q-33 56 -135 88v8h593v-8q-100 -31 -133 -88q-33 -58 -32 -182v-779q0 -130 91 -209t272 -79
q81 0 151 18t127.5 55.5t91 101.5t33.5 148z" />
    <glyph glyph-name="Yacute" unicode="&#xdd;" horiz-adv-x="1343" 
d="M487 1542l-10 2q122 136 168 250l217 -12q-118 -166 -375 -240zM975 8v-8h-594v8q102 32 135 88q33 57 33 185v340l-213 393q-114 207 -178 284q-67 80 -142 107v8h574v-8q-102 -27 -102 -107t102 -278l168 -324l155 324q91 189 91 252q0 60 -28.5 87.5t-92.5 45.5v8h450
v-8q-97 -22 -201 -185q-99 -154 -323 -597v-342q0 -60 5.5 -98t22 -74.5t50.5 -60.5t88 -40z" />
    <glyph glyph-name="Thorn" unicode="&#xde;" horiz-adv-x="1277" 
d="M494 1038v-647h165q150 1 220 103q69 102 69 232t-66 221q-67 91 -206 91h-182zM692 8v-8h-626v8q102 32 135 88q33 58 32 185v854q0 124 -32 182q-33 56 -135 88v8h593v-8q-100 -31 -133 -88q-33 -58 -32 -182v-27h229q479 0 479 -377q0 -108 -39.5 -189t-109.5 -128
t-157 -69.5t-191 -22.5h-211v-41q0 -123 41 -182t157 -91z" />
    <glyph glyph-name="germandbls" unicode="&#xdf;" horiz-adv-x="1267" 
d="M670 -25v31q137 10 223 107t86 236q0 58 -26 115.5t-67.5 102.5t-96 85.5t-108.5 68.5t-108 47l-6 16q289 169 289 437q0 66 -17 122t-62.5 97t-112.5 41q-127 0 -182 -99q-56 -101 -56 -338v-765q0 -45 2 -74.5t10.5 -64t24 -57t43.5 -43t69 -32.5v-8h-546v8
q89 27 119 84t30 187v411q0 136 -31 188t-143 91v8l189 35q0 235 131.5 383.5t359.5 148.5q172 0 276 -90q103 -90 105 -218q0 -128 -131 -239q-45 -37 -108 -77q-28 -18 -33 -21v-8q139 -55 267 -156q77 -60 121 -146.5t44 -182.5q0 -86 -33 -158t-88 -121.5t-127 -84.5
t-149.5 -51t-157.5 -16z" />
    <glyph glyph-name="agrave" unicode="&#xe0;" horiz-adv-x="1071" 
d="M719 1176l-10 -2q-252 73 -375 239l217 12q45 -108 168 -249zM649 584v125q1 127 -65 207t-174 81q-109 0 -183 -55q53 -10 88 -44.5t35 -85.5t-36 -84.5t-87 -33.5t-88 35.5t-37 85.5q0 98 140 176q139 78 304 78q164 0 256.5 -82t92.5 -244v-485q0 -106 39 -146.5
t145 -48.5v-8q-48 -29 -126.5 -50.5t-133.5 -21.5q-70 0 -114.5 32.5t-53.5 99.5q-159 -138 -313 -140q-114 0 -190.5 68t-75.5 180q0 133 141 233q139 99 436 128zM588 528q-108 0 -188.5 -60t-80.5 -164q2 -103 59 -150q59 -50 136 -50t135 35v383q-32 6 -61 6z" />
    <glyph glyph-name="aacute" unicode="&#xe1;" horiz-adv-x="1071" 
d="M344 1174l-10 2q123 136 168 249l217 -12q-119 -166 -375 -239zM649 584v125q1 127 -65 207t-174 81q-109 0 -183 -55q53 -10 88 -44.5t35 -85.5t-36 -84.5t-87 -33.5t-88 35.5t-37 85.5q0 98 140 176q139 78 304 78q164 0 256.5 -82t92.5 -244v-485q0 -106 39 -146.5
t145 -48.5v-8q-48 -29 -126.5 -50.5t-133.5 -21.5q-70 0 -114.5 32.5t-53.5 99.5q-159 -138 -313 -140q-114 0 -190.5 68t-75.5 180q0 133 141 233q139 99 436 128zM588 528q-108 0 -188.5 -60t-80.5 -164q2 -103 59 -150q59 -50 136 -50t135 35v383q-32 6 -61 6z" />
    <glyph glyph-name="acircumflex" unicode="&#xe2;" horiz-adv-x="1071" 
d="M584 1427l190 -264h-16l-232 115l-229 -115h-16l186 264h117zM649 584v125q1 127 -65 207t-174 81q-109 0 -183 -55q53 -10 88 -44.5t35 -85.5t-36 -84.5t-87 -33.5t-88 35.5t-37 85.5q0 98 140 176q139 78 304 78q164 0 256.5 -82t92.5 -244v-485q0 -106 39 -146.5
t145 -48.5v-8q-48 -29 -126.5 -50.5t-133.5 -21.5q-70 0 -114.5 32.5t-53.5 99.5q-159 -138 -313 -140q-114 0 -190.5 68t-75.5 180q0 133 141 233q139 99 436 128zM588 528q-108 0 -188.5 -60t-80.5 -164q2 -103 59 -150q59 -50 136 -50t135 35v383q-32 6 -61 6z" />
    <glyph glyph-name="atilde" unicode="&#xe3;" horiz-adv-x="1071" 
d="M748 1260q-56 -56 -111 -56t-149 36t-123 36q-85 0 -125 -76l-15 4q19 72 71.5 137.5t117.5 65.5q54 0 147 -33q91 -33 129 -33q82 0 125 72l12 -4q-24 -94 -79 -149zM649 584v125q1 127 -65 207t-174 81q-109 0 -183 -55q53 -10 88 -44.5t35 -85.5t-36 -84.5t-87 -33.5
t-88 35.5t-37 85.5q0 98 140 176q139 78 304 78q164 0 256.5 -82t92.5 -244v-485q0 -106 39 -146.5t145 -48.5v-8q-48 -29 -126.5 -50.5t-133.5 -21.5q-70 0 -114.5 32.5t-53.5 99.5q-159 -138 -313 -140q-114 0 -190.5 68t-75.5 180q0 133 141 233q139 99 436 128zM588 528
q-108 0 -188.5 -60t-80.5 -164q2 -103 59 -150q59 -50 136 -50t135 35v383q-32 6 -61 6z" />
    <glyph glyph-name="adieresis" unicode="&#xe4;" horiz-adv-x="1071" 
d="M561 1319q0 52 36.5 88.5t88.5 36.5t88.5 -36.5t36.5 -88.5q0 -51 -37 -87t-88 -36t-88 36t-37 87zM242 1319q0 52 36.5 88.5t88.5 36.5t88.5 -36.5t36.5 -88.5q0 -51 -37 -87t-88 -36t-88 36t-37 87zM649 584v125q1 127 -65 207t-174 81q-109 0 -183 -55
q53 -10 88 -44.5t35 -85.5t-36 -84.5t-87 -33.5t-88 35.5t-37 85.5q0 98 140 176q139 78 304 78q164 0 256.5 -82t92.5 -244v-485q0 -106 39 -146.5t145 -48.5v-8q-48 -29 -126.5 -50.5t-133.5 -21.5q-70 0 -114.5 32.5t-53.5 99.5q-159 -138 -313 -140q-114 0 -190.5 68
t-75.5 180q0 133 141 233q139 99 436 128zM588 528q-108 0 -188.5 -60t-80.5 -164q2 -103 59 -150q59 -50 136 -50t135 35v383q-32 6 -61 6z" />
    <glyph glyph-name="aring" unicode="&#xe5;" horiz-adv-x="1071" 
d="M651 1366q0 52 -36.5 90.5t-88.5 38.5t-88.5 -38.5t-36.5 -90.5t36.5 -90.5t88.5 -38.5t88.5 38.5t36.5 90.5zM526 1157q-88 0 -150 60.5t-63 148.5q-1 86 62.5 147t150.5 61q86 0 150 -60q65 -62 63 -148q2 -86 -63 -148q-62 -61 -150 -61zM649 584v125q1 127 -65 207
t-174 81q-109 0 -183 -55q53 -10 88 -44.5t35 -85.5t-36 -84.5t-87 -33.5t-88 35.5t-37 85.5q0 98 140 176q139 78 304 78q164 0 256.5 -82t92.5 -244v-485q0 -106 39 -146.5t145 -48.5v-8q-48 -29 -126.5 -50.5t-133.5 -21.5q-70 0 -114.5 32.5t-53.5 99.5
q-159 -138 -313 -140q-114 0 -190.5 68t-75.5 180q0 133 141 233q139 99 436 128zM588 528q-108 0 -188.5 -60t-80.5 -164q2 -103 59 -150q59 -50 136 -50t135 35v383q-32 6 -61 6z" />
    <glyph glyph-name="ae" unicode="&#xe6;" horiz-adv-x="1566" 
d="M637 498v24l-45 6q-113 0 -193 -59t-80 -182q-1 -78 57 -132q58 -55 156 -55t187 78q-82 133 -82 320zM1096 1016q-47 0 -86.5 -28.5t-63.5 -70.5t-41.5 -96.5t-25.5 -101t-11 -88.5v-15l406 27q0 35 -0.5 60t-4.5 67t-10.5 72t-19.5 65t-31.5 57t-47 37t-64.5 15z
M1104 -23q-236 0 -363 168q-57 -46 -95.5 -72t-87.5 -51t-101.5 -36t-115.5 -11q-112 0 -190.5 68t-78.5 178q0 135 135 235q133 99 432 128v123q2 129 -63 209q-64 80 -168 81q-105 0 -181 -55q54 -10 88.5 -44t34.5 -86t-35.5 -85t-87.5 -33q-51 0 -88 35.5t-37 85.5
q0 98 138 176t297 78q189 0 266 -135q131 135 307 135q389 0 389 -428v-68h-633q0 -215 98 -325q95 -108 250 -108q152 0 283 102l10 -9q-59 -97 -165 -177q-106 -79 -238 -79z" />
    <glyph glyph-name="ccedilla" unicode="&#xe7;" horiz-adv-x="964" 
d="M723 -272q0 -56 -39.5 -93t-89 -50t-104.5 -13q-95 0 -166 53l24 23q60 -27 116 -27q50 0 84 22t34 69q0 32 -36.5 57t-77.5 35.5t-73 11.5l125 161q-188 11 -317 149t-129 363q0 268 164 424t383 156q123 0 209 -51q87 -53 88 -124q0 -67 -37 -113t-103 -46
q-55 0 -98 33t-43 87q0 46 22 86t60 63q-40 8 -64 8q-74 0 -131 -25t-92.5 -66t-58.5 -98.5t-32 -117.5t-9 -129q0 -214 100 -323q101 -110 253 -110q153 0 257 78l14 -8q-154 -222 -376 -236l-52 -81q78 -9 137 -52.5t58 -115.5z" />
    <glyph glyph-name="egrave" unicode="&#xe8;" horiz-adv-x="1038" 
d="M696 1176l-10 -2q-252 73 -375 239l217 12q45 -108 168 -249zM559 1014q-49 0 -88.5 -29.5t-63.5 -72.5t-41 -100t-24 -103t-10 -91l418 27q0 369 -191 369zM565 -25q-215 2 -353 145q-138 144 -138 384t150 402q150 161 341 163q191 0 301 -101q109 -100 109 -327v-68
h-643q0 -207 102 -321t258 -112q155 0 285 104l12 -8q-55 -94 -165 -178q-110 -85 -259 -83z" />
    <glyph glyph-name="eacute" unicode="&#xe9;" horiz-adv-x="1038" 
d="M451 1174l-11 2q123 136 168 249l217 -12q-119 -166 -374 -239zM559 1014q-49 0 -88.5 -29.5t-63.5 -72.5t-41 -100t-24 -103t-10 -91l418 27q0 369 -191 369zM565 -25q-215 2 -353 145q-138 144 -138 384t150 402q150 161 341 163q191 0 301 -101q109 -100 109 -327v-68
h-643q0 -207 102 -321t258 -112q155 0 285 104l12 -8q-55 -94 -165 -178q-110 -85 -259 -83z" />
    <glyph glyph-name="ecircumflex" unicode="&#xea;" horiz-adv-x="1038" 
d="M575 1427l191 -264h-16l-232 115l-229 -115h-17l187 264h116zM559 1014q-49 0 -88.5 -29.5t-63.5 -72.5t-41 -100t-24 -103t-10 -91l418 27q0 369 -191 369zM565 -25q-215 2 -353 145q-138 144 -138 384t150 402q150 161 341 163q191 0 301 -101q109 -100 109 -327v-68
h-643q0 -207 102 -321t258 -112q155 0 285 104l12 -8q-55 -94 -165 -178q-110 -85 -259 -83z" />
    <glyph glyph-name="edieresis" unicode="&#xeb;" horiz-adv-x="1038" 
d="M553 1319q0 52 36.5 88.5t88.5 36.5t88.5 -36.5t36.5 -88.5q0 -51 -37 -87t-88 -36t-88 36t-37 87zM233 1319q0 52 36.5 88.5t88.5 36.5t88.5 -36.5t36.5 -88.5q0 -51 -37 -87t-88 -36t-88 36t-37 87zM559 1014q-49 0 -88.5 -29.5t-63.5 -72.5t-41 -100t-24 -103t-10 -91
l418 27q0 369 -191 369zM565 -25q-215 2 -353 145q-138 144 -138 384t150 402q150 161 341 163q191 0 301 -101q109 -100 109 -327v-68h-643q0 -207 102 -321t258 -112q155 0 285 104l12 -8q-55 -94 -165 -178q-110 -85 -259 -83z" />
    <glyph glyph-name="igrave" unicode="&#xec;" horiz-adv-x="643" 
d="M596 8v-8h-526v8q86 32 114 87q29 56 27 184v411q0 135 -29 188q-28 52 -135 91v8q183 12 399 92h9v-790q0 -127 27 -184q28 -55 114 -87zM512 1176l-10 -2q-252 73 -375 239l217 12q45 -108 168 -249z" />
    <glyph glyph-name="iacute" unicode="&#xed;" horiz-adv-x="643" 
d="M596 8v-8h-526v8q86 32 114 87q29 56 27 184v411q0 135 -29 188q-28 52 -135 91v8q183 12 399 92h9v-790q0 -127 27 -184q28 -55 114 -87zM137 1174l-10 2q123 136 168 249l217 -12q-119 -166 -375 -239z" />
    <glyph glyph-name="icircumflex" unicode="&#xee;" horiz-adv-x="643" 
d="M377 1427l190 -264h-16l-232 115l-229 -115h-16l186 264h117zM596 8v-8h-526v8q86 32 114 87q29 56 27 184v411q0 135 -29 188q-28 52 -135 91v8q183 12 399 92h9v-790q0 -127 27 -184q28 -55 114 -87z" />
    <glyph glyph-name="idieresis" unicode="&#xef;" horiz-adv-x="643" 
d="M596 8v-8h-526v8q86 32 114 87q29 56 27 184v411q0 135 -29 188q-28 52 -135 91v8q183 12 399 92h9v-790q0 -127 27 -184q28 -55 114 -87zM356 1319q0 52 36.5 88.5t88.5 36.5t88.5 -36.5t36.5 -88.5q0 -51 -37 -87t-88 -36t-88 36t-37 87zM37 1319q0 52 36.5 88.5
t88.5 36.5t88.5 -36.5t36.5 -88.5q0 -51 -37 -87t-88 -36t-88 36t-37 87z" />
    <glyph glyph-name="eth" unicode="&#xf0;" horiz-adv-x="1245" 
d="M622 29q97 -1 162 77q114 137 113 416q0 58 -6.5 118t-25.5 129t-48.5 122t-80.5 88t-116 35q-55 0 -99.5 -24t-73 -66t-49.5 -91.5t-32 -107.5t-15.5 -107t-4.5 -96q0 -275 114 -416q65 -77 162 -77zM1169 522q1 -149 -72.5 -275t-199.5 -199t-275 -73q-225 0 -386 160
q-162 159 -162 391t164 388t383 155q89 0 165 -39q-83 163 -211 309l-184 -71l-31 57l168 68q-53 58 -151 149q14 0 22 2q93 -53 199 -125l205 84l31 -57l-175 -72q510 -392 510 -852z" />
    <glyph glyph-name="ntilde" unicode="&#xf1;" horiz-adv-x="1292" 
d="M752 1204q-54 0 -148 36q-95 36 -125 36q-85 0 -125 -76l-14 4q19 72 71.5 137.5t117.5 65.5q55 0 147 -33t129 -33q81 0 125 72l12 -4q-18 -74 -70.5 -139.5t-119.5 -65.5zM1257 8v-8h-524v8q83 31 112 87t27 184v446q0 99 -54 154t-152 55q-97 0 -215 -64v-591
q0 -127 27 -184q28 -55 114 -87v-8h-526v8q86 32 114 87q29 56 27 184v411q0 135 -29 188q-28 52 -135 91v8q178 11 395 92h8v-170q78 70 177 118.5t190 49.5q134 0 219 -85q86 -86 86 -269v-434q0 -57 3.5 -91t16.5 -72t42.5 -64t76.5 -44z" />
    <glyph glyph-name="ograve" unicode="&#xf2;" horiz-adv-x="1245" 
d="M813 1176l-10 -2q-252 73 -375 239l217 12q45 -108 168 -249zM897 522q0 58 -6.5 118t-25.5 129t-48.5 122t-80.5 88t-116 35q-55 0 -99.5 -24t-73 -66t-49.5 -91.5t-32 -107.5t-15.5 -107t-4.5 -96q0 -65 6 -125.5t25 -130t49 -120t83.5 -84t123.5 -33.5q86 -1 151 77
q114 137 113 416zM1008 135q-161 -160 -387 -160q-113 0 -214.5 43t-174.5 116.5t-115.5 175.5t-42.5 215q0 229 164 387q163 157 384 157q220 0 384 -156t164 -387q0 -230 -162 -391z" />
    <glyph glyph-name="oacute" unicode="&#xf3;" horiz-adv-x="1245" 
d="M438 1174l-10 2q123 136 168 249l217 -12q-119 -166 -375 -239zM897 522q0 58 -6.5 118t-25.5 129t-48.5 122t-80.5 88t-116 35q-55 0 -99.5 -24t-73 -66t-49.5 -91.5t-32 -107.5t-15.5 -107t-4.5 -96q0 -65 6 -125.5t25 -130t49 -120t83.5 -84t123.5 -33.5q86 -1 151 77
q114 137 113 416zM1008 135q-161 -160 -387 -160q-113 0 -214.5 43t-174.5 116.5t-115.5 175.5t-42.5 215q0 229 164 387q163 157 384 157q220 0 384 -156t164 -387q0 -230 -162 -391z" />
    <glyph glyph-name="ocircumflex" unicode="&#xf4;" horiz-adv-x="1245" 
d="M678 1427l190 -264h-16l-231 115l-230 -115h-16l186 264h117zM897 522q0 58 -6.5 118t-25.5 129t-48.5 122t-80.5 88t-116 35q-55 0 -99.5 -24t-73 -66t-49.5 -91.5t-32 -107.5t-15.5 -107t-4.5 -96q0 -65 6 -125.5t25 -130t49 -120t83.5 -84t123.5 -33.5q86 -1 151 77
q114 137 113 416zM1008 135q-161 -160 -387 -160q-113 0 -214.5 43t-174.5 116.5t-115.5 175.5t-42.5 215q0 229 164 387q163 157 384 157q220 0 384 -156t164 -387q0 -230 -162 -391z" />
    <glyph glyph-name="otilde" unicode="&#xf5;" horiz-adv-x="1245" 
d="M731 1204q-55 0 -148 36t-124 36q-85 0 -125 -76l-15 4q23 86 79 144q57 59 111 59q55 0 146 -33t129 -33q82 0 125 72l13 -4q-20 -74 -72 -139.5t-119 -65.5zM897 522q0 58 -6.5 118t-25.5 129t-48.5 122t-80.5 88t-116 35q-55 0 -99.5 -24t-73 -66t-49.5 -91.5
t-32 -107.5t-15.5 -107t-4.5 -96q0 -65 6 -125.5t25 -130t49 -120t83.5 -84t123.5 -33.5q86 -1 151 77q114 137 113 416zM1008 135q-161 -160 -387 -160q-113 0 -214.5 43t-174.5 116.5t-115.5 175.5t-42.5 215q0 229 164 387q163 157 384 157q220 0 384 -156t164 -387
q0 -230 -162 -391z" />
    <glyph glyph-name="odieresis" unicode="&#xf6;" horiz-adv-x="1245" 
d="M655 1319q0 52 36.5 88.5t88.5 36.5t88.5 -36.5t36.5 -88.5q0 -51 -37 -87t-88 -36t-88 36t-37 87zM336 1319q0 52 36.5 88.5t88.5 36.5t88.5 -36.5t36.5 -88.5q0 -51 -37 -87t-88 -36t-88 36t-37 87zM897 522q0 58 -6.5 118t-25.5 129t-48.5 122t-80.5 88t-116 35
q-55 0 -99.5 -24t-73 -66t-49.5 -91.5t-32 -107.5t-15.5 -107t-4.5 -96q0 -65 6 -125.5t25 -130t49 -120t83.5 -84t123.5 -33.5q86 -1 151 77q114 137 113 416zM1008 135q-161 -160 -387 -160q-113 0 -214.5 43t-174.5 116.5t-115.5 175.5t-42.5 215q0 229 164 387
q163 157 384 157q220 0 384 -156t164 -387q0 -230 -162 -391z" />
    <glyph glyph-name="divide" unicode="&#xf7;" 
d="M453 984q0 55 38.5 93.5t93.5 38.5t93.5 -38.5t38.5 -93.5t-38.5 -93.5t-93.5 -38.5t-93.5 38.5t-38.5 93.5zM717 155q0 -54 -39 -93.5t-93 -39.5t-93 39.5t-39 93.5q0 55 38.5 93.5t93.5 38.5t93.5 -38.5t38.5 -93.5zM1010 651v-147h-852v147h852z" />
    <glyph glyph-name="oslash" unicode="&#xf8;" horiz-adv-x="1228" 
d="M605 1018q-61 0 -108.5 -34t-75 -85t-45.5 -117.5t-24 -123t-6 -110.5q0 -190 39 -304l418 645q-72 129 -198 129zM612 27q65 0 115.5 36t78.5 89t46 124t23.5 129.5t5.5 116.5q0 150 -39 277l-420 -647q68 -125 190 -125zM76 522q0 236 158 392t378 155q135 0 265 -70
l73 117l68 -45l-76 -115q96 -77 154 -188q58 -112 57 -246q0 -148 -71.5 -274t-196 -199.5t-273.5 -73.5q-138 0 -262 68l-74 -115l-67 43l76 117q-100 79 -154.5 192.5t-54.5 241.5z" />
    <glyph glyph-name="ugrave" unicode="&#xf9;" horiz-adv-x="1253" 
d="M817 1176l-10 -2q-252 73 -375 239l217 12q45 -108 168 -249zM848 -25h-8v177q-187 -176 -328 -176q-142 0 -227 76q-86 77 -86 257v381q0 135 -29 188q-28 52 -135 91v8q184 11 401 92h8v-743q0 -94 62 -144q63 -50 154 -49q93 0 174 45v512q0 135 -29 188
q-28 52 -135 91v8q184 11 401 92h8v-715q0 -136 29 -188q28 -51 135 -90v-8q-192 -18 -395 -93z" />
    <glyph glyph-name="uacute" unicode="&#xfa;" horiz-adv-x="1253" 
d="M442 1174l-10 2q123 136 168 249l217 -12q-119 -166 -375 -239zM848 -25h-8v177q-187 -176 -328 -176q-142 0 -227 76q-86 77 -86 257v381q0 135 -29 188q-28 52 -135 91v8q184 11 401 92h8v-743q0 -94 62 -144q63 -50 154 -49q93 0 174 45v512q0 135 -29 188
q-28 52 -135 91v8q184 11 401 92h8v-715q0 -136 29 -188q28 -51 135 -90v-8q-192 -18 -395 -93z" />
    <glyph glyph-name="ucircumflex" unicode="&#xfb;" horiz-adv-x="1253" 
d="M682 1427l190 -264h-16l-231 115l-230 -115h-16l186 264h117zM848 -25h-8v177q-187 -176 -328 -176q-142 0 -227 76q-86 77 -86 257v381q0 135 -29 188q-28 52 -135 91v8q184 11 401 92h8v-743q0 -94 62 -144q63 -50 154 -49q93 0 174 45v512q0 135 -29 188
q-28 52 -135 91v8q184 11 401 92h8v-715q0 -136 29 -188q28 -51 135 -90v-8q-192 -18 -395 -93z" />
    <glyph glyph-name="udieresis" unicode="&#xfc;" horiz-adv-x="1253" 
d="M659 1319q0 52 36.5 88.5t88.5 36.5t88.5 -36.5t36.5 -88.5q0 -51 -37 -87t-88 -36t-88 36t-37 87zM340 1319q0 52 36.5 88.5t88.5 36.5t88.5 -36.5t36.5 -88.5q0 -51 -37 -87t-88 -36t-88 36t-37 87zM848 -25h-8v177q-187 -176 -328 -176q-142 0 -227 76q-86 77 -86 257
v381q0 135 -29 188q-28 52 -135 91v8q184 11 401 92h8v-743q0 -94 62 -144q63 -50 154 -49q93 0 174 45v512q0 135 -29 188q-28 52 -135 91v8q184 11 401 92h8v-715q0 -136 29 -188q28 -51 135 -90v-8q-192 -18 -395 -93z" />
    <glyph glyph-name="yacute" unicode="&#xfd;" horiz-adv-x="1159" 
d="M395 1174l-10 2q123 136 168 249l217 -12q-119 -166 -375 -239zM16 1036v8h531v-10q-61 -17 -86 -45t-25 -89q0 -66 64 -255l162 -491l147 446q57 174 57 279q0 131 -114 155v10h405v-8q-74 -35 -127 -133q-54 -100 -149 -360l-226 -619q-14 -38 -24 -64t-30.5 -73
t-39 -80.5t-46 -73.5t-54.5 -65t-61.5 -42.5t-69.5 -17.5q-87 0 -130 40q-46 40 -46 94q0 57 36 96t92 39q61 0 92.5 -44.5t31.5 -107.5q45 23 84 87q41 68 92 206l30 82h-133l-254 721q-67 186 -101 240q-34 51 -108 75z" />
    <glyph glyph-name="thorn" unicode="&#xfe;" horiz-adv-x="1290" 
d="M600 -463v-8h-553v8q84 31 112 88q29 57 27 182v1358q0 137 -28 189q-28 51 -135 90v8q205 18 405 92h8v-657q174 182 360 182q97 0 178 -39.5t133 -106.5t80 -153t27 -180q0 -344 -282 -517q-161 -98 -346 -98q-68 0 -150 11v-179q0 -127 32 -183t132 -87zM592 27
q156 0 262 133q105 132 107 370q-2 181 -93 290q-92 110 -225 110q-101 0 -207 -78v-784q74 -41 156 -41z" />
    <glyph glyph-name="ydieresis" unicode="&#xff;" horiz-adv-x="1159" 
d="M614 1319q0 52 36.5 88.5t88.5 36.5t88.5 -36.5t36.5 -88.5q0 -51 -37 -87t-88 -36t-88 36t-37 87zM295 1319q0 52 36.5 88.5t88.5 36.5t88.5 -36.5t36.5 -88.5q0 -51 -37 -87t-88 -36t-88 36t-37 87zM16 1036v8h531v-10q-61 -17 -86 -45t-25 -89q0 -66 64 -255l162 -491
l147 446q57 174 57 279q0 131 -114 155v10h405v-8q-74 -35 -127 -133q-54 -100 -149 -360l-226 -619q-14 -38 -24 -64t-30.5 -73t-39 -80.5t-46 -73.5t-54.5 -65t-61.5 -42.5t-69.5 -17.5q-87 0 -130 40q-46 40 -46 94q0 57 36 96t92 39q61 0 92.5 -44.5t31.5 -107.5
q45 23 84 87q41 68 92 206l30 82h-133l-254 721q-67 186 -101 240q-34 51 -108 75z" />
    <glyph glyph-name="Amacron" unicode="&#x100;" horiz-adv-x="1482" 
d="M1001 1720v-108h-512v108h512zM444 582h465l-235 684zM1477 8v-8h-564v8q66 15 92.5 45.5t26.5 96.5q0 70 -96 354h-518q-84 -258 -84 -334q0 -73 31 -108t104 -54v-8h-463v8q92 38 150 132q58 96 170 413l305 860h246l358 -1024q66 -187 119 -269q51 -79 123 -112z" />
    <glyph glyph-name="amacron" unicode="&#x101;" horiz-adv-x="1071" 
d="M782 1352v-109h-512v109h512zM649 584v125q1 127 -65 207t-174 81q-109 0 -183 -55q53 -10 88 -44.5t35 -85.5t-36 -84.5t-87 -33.5t-88 35.5t-37 85.5q0 98 140 176q139 78 304 78q164 0 256.5 -82t92.5 -244v-485q0 -106 39 -146.5t145 -48.5v-8q-48 -29 -126.5 -50.5
t-133.5 -21.5q-70 0 -114.5 32.5t-53.5 99.5q-159 -138 -313 -140q-114 0 -190.5 68t-75.5 180q0 133 141 233q139 99 436 128zM588 528q-108 0 -188.5 -60t-80.5 -164q2 -103 59 -150q59 -50 136 -50t135 35v383q-32 6 -61 6z" />
    <glyph glyph-name="Abreve" unicode="&#x102;" horiz-adv-x="1482" 
d="M746 1528q-53 0 -96 23.5t-71 63.5t-46 85t-27 96h8q28 -65 93.5 -99t142.5 -34q71 0 135.5 36t91.5 97h8q-9 -51 -27 -96t-46 -85t-71 -63.5t-95 -23.5zM444 582h465l-235 684zM1477 8v-8h-564v8q66 15 92.5 45.5t26.5 96.5q0 70 -96 354h-518q-84 -258 -84 -334
q0 -73 31 -108t104 -54v-8h-463v8q92 38 150 132q58 96 170 413l305 860h246l358 -1024q66 -187 119 -269q51 -79 123 -112z" />
    <glyph glyph-name="abreve" unicode="&#x103;" horiz-adv-x="1071" 
d="M366 1239q-59 78 -79 188h8q27 -62 93.5 -97.5t137.5 -35.5q73 0 138.5 35t93.5 98h8q-8 -50 -26 -95t-45.5 -85t-70.5 -64t-95 -24q-103 0 -163 80zM649 584v125q1 127 -65 207t-174 81q-109 0 -183 -55q53 -10 88 -44.5t35 -85.5t-36 -84.5t-87 -33.5t-88 35.5
t-37 85.5q0 98 140 176q139 78 304 78q164 0 256.5 -82t92.5 -244v-485q0 -106 39 -146.5t145 -48.5v-8q-48 -29 -126.5 -50.5t-133.5 -21.5q-70 0 -114.5 32.5t-53.5 99.5q-159 -138 -313 -140q-114 0 -190.5 68t-75.5 180q0 133 141 233q139 99 436 128zM588 528
q-108 0 -188.5 -60t-80.5 -164q2 -103 59 -150q59 -50 136 -50t135 35v383q-32 6 -61 6z" />
    <glyph glyph-name="Aogonek" unicode="&#x104;" horiz-adv-x="1482" 
d="M444 582h465l-235 684zM1464 -344v-8q-61 -76 -138 -76q-67 0 -113 35.5t-46 100.5q1 54 52 115t108 98q49 33 127 79h-541v8q66 15 92.5 45.5t26.5 96.5q0 70 -96 354h-518q-84 -258 -84 -334q0 -73 31 -108t104 -54v-8h-463v8q92 38 150 132q58 96 170 413l305 860h246
l358 -1024q66 -187 119 -269q51 -79 123 -112v-8h-13q-131 -157 -131 -268q0 -34 23.5 -58.5t57.5 -26.5q23 0 50 9z" />
    <glyph glyph-name="aogonek" unicode="&#x105;" horiz-adv-x="1071" 
d="M588 528q-108 0 -188.5 -60t-80.5 -164q2 -103 59 -150q59 -50 136 -50t135 35v383q-32 6 -61 6zM1079 -344v-8q-61 -76 -138 -76q-72 0 -115.5 37.5t-43.5 108.5q0 50 47.5 117.5t101.5 116.5t103 83q-129 -53 -206 -53q-158 0 -177 133q-159 -138 -313 -140
q-114 0 -190.5 68t-75.5 180q0 133 141 233q139 99 436 128v125q1 127 -65 207t-174 81q-109 0 -183 -55q53 -10 88 -44.5t35 -85.5t-36 -84.5t-87 -33.5t-88 35.5t-37 85.5q0 98 140 176q139 78 304 78q164 0 256.5 -82t92.5 -244v-485q0 -106 39 -145.5t145 -49.5v-8
q-45 -52 -88 -148.5t-43 -158.5q0 -50 23.5 -74.5t70.5 -23.5q19 0 37 6z" />
    <glyph glyph-name="Cacute" unicode="&#x106;" horiz-adv-x="1468" 
d="M621 1542l-11 2q122 136 168 250l217 -12q-119 -167 -374 -240zM920 -31q-348 0 -586 198t-238 519q0 248 145 432.5t387 271.5q144 52 276 52q245 0 442 -82v-299h-9q-155 311 -438 311q-221 0 -371 -182t-150 -483t159 -485q157 -183 393 -185q297 0 452 332h9
l-27 -314q-74 -36 -195 -61q-129 -26 -249 -25z" />
    <glyph glyph-name="cacute" unicode="&#x107;" horiz-adv-x="964" 
d="M367 1174l-11 2q123 136 168 249l217 -12q-119 -166 -374 -239zM551 -25q-198 1 -338 141q-139 139 -139 390q0 249 164 407q164 156 383 156q123 0 209 -51q87 -53 88 -124q0 -67 -37 -113t-103 -46q-55 0 -98 33t-43 87q0 46 22 86t60 63q-40 8 -64 8q-74 0 -131 -25
t-92.5 -66t-58.5 -98.5t-32 -117.5t-9 -129q0 -214 100 -323q101 -110 253 -110q153 0 257 78l14 -8q-168 -238 -405 -238z" />
    <glyph glyph-name="Ccircumflex" unicode="&#x108;" horiz-adv-x="1468" 
d="M870 1796l191 -264h-17l-231 115l-229 -115h-17l187 264h116zM920 -31q-348 0 -586 198t-238 519q0 248 145 432.5t387 271.5q144 52 276 52q245 0 442 -82v-299h-9q-155 311 -438 311q-221 0 -371 -182t-150 -483t159 -485q157 -183 393 -185q297 0 452 332h9l-27 -314
q-74 -36 -195 -61q-129 -26 -249 -25z" />
    <glyph glyph-name="ccircumflex" unicode="&#x109;" horiz-adv-x="964" 
d="M578 1427l190 -264h-16l-232 115l-229 -115h-17l187 264h117zM551 -25q-198 1 -338 141q-139 139 -139 390q0 249 164 407q164 156 383 156q123 0 209 -51q87 -53 88 -124q0 -67 -37 -113t-103 -46q-55 0 -98 33t-43 87q0 46 22 86t60 63q-40 8 -64 8q-74 0 -131 -25
t-92.5 -66t-58.5 -98.5t-32 -117.5t-9 -129q0 -214 100 -323q101 -110 253 -110q153 0 257 78l14 -8q-168 -238 -405 -238z" />
    <glyph glyph-name="Cdotaccent" unicode="&#x10a;" horiz-adv-x="1468" 
d="M688 1681q0 58 39.5 99t97.5 41q56 0 99 -41q42 -41 41 -98q0 -58 -40.5 -98t-98.5 -40t-98 39.5t-40 97.5zM920 -31q-348 0 -586 198t-238 519q0 248 145 432.5t387 271.5q144 52 276 52q245 0 442 -82v-299h-9q-155 311 -438 311q-221 0 -371 -182t-150 -483t159 -485
q157 -183 393 -185q297 0 452 332h9l-27 -314q-74 -36 -195 -61q-129 -26 -249 -25z" />
    <glyph glyph-name="cdotaccent" unicode="&#x10b;" horiz-adv-x="964" 
d="M391 1313q0 57 40 98t97 41t98.5 -41t41.5 -98q0 -58 -41 -97.5t-99 -39.5t-97.5 39.5t-39.5 97.5zM551 -25q-198 1 -338 141q-139 139 -139 390q0 249 164 407q164 156 383 156q123 0 209 -51q87 -53 88 -124q0 -67 -37 -113t-103 -46q-55 0 -98 33t-43 87q0 46 22 86
t60 63q-40 8 -64 8q-74 0 -131 -25t-92.5 -66t-58.5 -98.5t-32 -117.5t-9 -129q0 -214 100 -323q101 -110 253 -110q153 0 257 78l14 -8q-168 -238 -405 -238z" />
    <glyph glyph-name="Ccaron" unicode="&#x10c;" horiz-adv-x="1468" 
d="M1067 1796l-190 -264h-117l-187 264h17l229 -115l232 115h16zM920 -31q-348 0 -586 198t-238 519q0 248 145 432.5t387 271.5q144 52 276 52q245 0 442 -82v-299h-9q-155 311 -438 311q-221 0 -371 -182t-150 -483t159 -485q157 -183 393 -185q297 0 452 332h9l-27 -314
q-74 -36 -195 -61q-129 -26 -249 -25z" />
    <glyph glyph-name="ccaron" unicode="&#x10d;" horiz-adv-x="964" 
d="M766 1427l-191 -264h-116l-187 264h17l229 -114l232 114h16zM551 -25q-198 1 -338 141q-139 139 -139 390q0 249 164 407q164 156 383 156q123 0 209 -51q87 -53 88 -124q0 -67 -37 -113t-103 -46q-55 0 -98 33t-43 87q0 46 22 86t60 63q-40 8 -64 8q-74 0 -131 -25
t-92.5 -66t-58.5 -98.5t-32 -117.5t-9 -129q0 -214 100 -323q101 -110 253 -110q153 0 257 78l14 -8q-168 -238 -405 -238z" />
    <glyph glyph-name="Dcaron" unicode="&#x10e;" horiz-adv-x="1622" 
d="M1057 1796l-191 -264h-116l-187 264h17l229 -115l231 115h17zM494 1339v-1265h225q259 0 404 184q147 184 147 456q0 271 -152 449q-152 176 -375 176h-249zM719 0h-653v8q102 32 135 88q33 58 32 185v854q0 124 -32 182q-33 56 -135 88v8h675q342 0 577 -176
q234 -176 234 -508q0 -141 -43.5 -260t-121 -204.5t-182.5 -146t-228 -89.5t-258 -29z" />
    <glyph glyph-name="dcaron" unicode="&#x10f;" horiz-adv-x="1355" 
d="M1182 1446q0 40 31 69t71 29t72.5 -29t32.5 -69q1 -36 -45 -163q-45 -123 -50 -210h-20q-4 84 -48 210q-44 127 -44 163zM854 -25h-8v177q-144 -176 -328 -176q-183 0 -319 134q-134 133 -136 353q1 274 187 440q185 166 430 166q74 0 166 -18v114q0 137 -31 189t-147 90
v8q95 6 213.5 32t208.5 60h8v-1190q0 -136 29 -188q29 -51 135 -90v-8q-208 -18 -408 -93zM668 133q99 0 178 43v785q-30 23 -79 37t-93 16q-158 0 -260 -134t-102 -331t108 -307q110 -110 248 -109z" />
    <glyph glyph-name="Dcroat" unicode="&#x110;" horiz-adv-x="1622" 
d="M494 684v-610h225q259 0 404 184q147 184 147 456q0 271 -152 449q-152 176 -375 176h-249v-567h241v-88h-241zM719 0h-653v8q102 32 135 88q33 58 32 185v403h-143v88h143v363q0 115 -33.5 176t-133.5 94v8h675q342 0 577 -176q234 -176 234 -508q0 -141 -43.5 -260
t-121 -204.5t-182.5 -146t-228 -89.5t-258 -29z" />
    <glyph glyph-name="dcroat" unicode="&#x111;" horiz-adv-x="1263" 
d="M668 133q99 0 178 43v785q-30 23 -79 37t-93 16q-151 0 -255 -134q-103 -133 -103 -331t106 -307q107 -110 246 -109zM854 -25h-8v177q-144 -176 -328 -176t-316 134t-132 336t91 344q87 136 221 206.5t298 72.5q74 0 166 -18v133h-289v86h285q-8 76 -48.5 111t-125.5 63
v8q201 12 419 92h9v-274h106v-86h-106v-830q0 -136 29 -188q29 -51 135 -90v-8q-206 -18 -406 -93z" />
    <glyph glyph-name="Emacron" unicode="&#x112;" horiz-adv-x="1216" 
d="M864 1720v-108h-512v108h512zM1108 0h-1036v8q102 32 135 88q33 57 33 185v854q0 120 -32 179t-136 91v8h977v-315h-9q-90 155 -148 198q-56 43 -173 43h-219v-575h223q82 0 130 30.5t95 104.5h8v-344h-8q-49 76 -94.5 104.5t-130.5 28.5h-223v-614h188q100 0 139 4
q47 5 100 39t90 76q57 69 124 153h8z" />
    <glyph glyph-name="emacron" unicode="&#x113;" horiz-adv-x="1038" 
d="M791 1352v-109h-512v109h512zM559 1014q-49 0 -88.5 -29.5t-63.5 -72.5t-41 -100t-24 -103t-10 -91l418 27q0 369 -191 369zM565 -25q-215 2 -353 145q-138 144 -138 384t150 402q150 161 341 163q191 0 301 -101q109 -100 109 -327v-68h-643q0 -207 102 -321t258 -112
q155 0 285 104l12 -8q-55 -94 -165 -178q-110 -85 -259 -83z" />
    <glyph glyph-name="Ebreve" unicode="&#x114;" horiz-adv-x="1216" 
d="M608 1528q-69 0 -121.5 42t-79.5 99.5t-38 126.5h8q28 -64 94 -98.5t141 -34.5q72 0 136.5 35t91.5 98h8q-8 -51 -26 -96t-46.5 -85t-71.5 -63.5t-96 -23.5zM1108 0h-1036v8q102 32 135 88q33 57 33 185v854q0 120 -32 179t-136 91v8h977v-315h-9q-90 155 -148 198
q-56 43 -173 43h-219v-575h223q82 0 130 30.5t95 104.5h8v-344h-8q-49 76 -94.5 104.5t-130.5 28.5h-223v-614h188q100 0 139 4q47 5 100 39t90 76q57 69 124 153h8z" />
    <glyph glyph-name="ebreve" unicode="&#x115;" horiz-adv-x="1038" 
d="M299 1427h8q27 -62 93.5 -97.5t138.5 -35.5t138 35.5t93 97.5h8q-8 -50 -25.5 -95t-45.5 -85t-70.5 -64t-94.5 -24q-53 0 -97 23t-72.5 63t-46.5 85t-27 97zM559 1014q-49 0 -88.5 -29.5t-63.5 -72.5t-41 -100t-24 -103t-10 -91l418 27q0 369 -191 369zM565 -25
q-215 2 -353 145q-138 144 -138 384t150 402q150 161 341 163q191 0 301 -101q109 -100 109 -327v-68h-643q0 -207 102 -321t258 -112q155 0 285 104l12 -8q-55 -94 -165 -178q-110 -85 -259 -83z" />
    <glyph glyph-name="Edotaccent" unicode="&#x116;" horiz-adv-x="1216" 
d="M469 1681q0 58 39.5 99t97.5 41q57 0 98.5 -41t41.5 -98q0 -58 -41 -98t-99 -40t-97.5 39.5t-39.5 97.5zM1108 0h-1036v8q102 32 135 88q33 57 33 185v854q0 120 -32 179t-136 91v8h977v-315h-9q-90 155 -148 198q-56 43 -173 43h-219v-575h223q82 0 130 30.5t95 104.5h8
v-344h-8q-49 76 -94.5 104.5t-130.5 28.5h-223v-614h188q100 0 139 4q47 5 100 39t90 76q57 69 124 153h8z" />
    <glyph glyph-name="edotaccent" unicode="&#x117;" horiz-adv-x="1038" 
d="M381 1313q0 57 40 98t97 41t98 -41t41 -98t-41 -97t-98 -40q-58 0 -97.5 39.5t-39.5 97.5zM559 1014q-49 0 -88.5 -29.5t-63.5 -72.5t-41 -100t-24 -103t-10 -91l418 27q0 369 -191 369zM565 -25q-215 2 -353 145q-138 144 -138 384t150 402q150 161 341 163
q191 0 301 -101q109 -100 109 -327v-68h-643q0 -207 102 -321t258 -112q155 0 285 104l12 -8q-55 -94 -165 -178q-110 -85 -259 -83z" />
    <glyph glyph-name="Eogonek" unicode="&#x118;" horiz-adv-x="1216" 
d="M1087 -344v-8q-61 -76 -138 -76q-67 0 -113 35.5t-46 100.5q0 54 51.5 115t108.5 98q49 33 127 79h-1005v8q102 32 135 88q33 57 33 185v854q0 120 -32 179t-136 91v8h977v-315h-9q-90 155 -148 198q-56 43 -173 43h-219v-575h223q82 0 130 30.5t95 104.5h8v-344h-8
q-49 76 -94.5 104.5t-130.5 28.5h-223v-614h188q100 0 139 4q47 5 100 39t90 76q57 69 124 153h8l-41 -346h-21q-131 -157 -131 -268q0 -34 23.5 -58.5t57.5 -26.5q23 0 50 9z" />
    <glyph glyph-name="eogonek" unicode="&#x119;" horiz-adv-x="1038" 
d="M559 1014q-49 0 -88.5 -29.5t-63.5 -72.5t-41 -100t-24 -103t-10 -91l418 27q0 369 -191 369zM989 -344v-8q-61 -76 -138 -76q-78 0 -118 40q-41 41 -41 93q0 53 42 128t114 183q73 110 104 164q-162 -205 -382 -205q-153 1 -266.5 70t-171.5 188t-58 271q0 240 150 402
q150 161 341 163q191 0 301 -101q109 -100 109 -327v-68h-643q0 -207 102 -321t258 -113q156 0 285 105l12 -8q-44 -103 -87 -268q-44 -168 -44 -221q0 -50 23.5 -74t70.5 -23q19 0 37 6z" />
    <glyph glyph-name="Ecaron" unicode="&#x11a;" horiz-adv-x="1216" 
d="M854 1796l-190 -264h-117l-187 264h17l229 -115l232 115h16zM1108 0h-1036v8q102 32 135 88q33 57 33 185v854q0 120 -32 179t-136 91v8h977v-315h-9q-90 155 -148 198q-56 43 -173 43h-219v-575h223q82 0 130 30.5t95 104.5h8v-344h-8q-49 76 -94.5 104.5t-130.5 28.5
h-223v-614h188q100 0 139 4q47 5 100 39t90 76q57 69 124 153h8z" />
    <glyph glyph-name="ecaron" unicode="&#x11b;" horiz-adv-x="1038" 
d="M778 1427l-190 -264h-117l-186 264h16l229 -114l232 114h16zM559 1014q-49 0 -88.5 -29.5t-63.5 -72.5t-41 -100t-24 -103t-10 -91l418 27q0 369 -191 369zM565 -25q-215 2 -353 145q-138 144 -138 384t150 402q150 161 341 163q191 0 301 -101q109 -100 109 -327v-68
h-643q0 -207 102 -321t258 -112q155 0 285 104l12 -8q-55 -94 -165 -178q-110 -85 -259 -83z" />
    <glyph glyph-name="Gcircumflex" unicode="&#x11c;" horiz-adv-x="1587" 
d="M850 1796l190 -264h-16l-231 115l-230 -115h-16l186 264h117zM1186 104v326q0 114 -32.5 170t-133.5 88v8h536v-8q-80 -32 -104 -79q-23 -47 -25 -179v-379q-338 -82 -542 -82q-319 0 -554 202q-234 202 -235 527q0 249 150 429.5t399 265.5q144 49 277 49
q110 0 243.5 -21t223.5 -57v-299h-9q-181 307 -460 307q-226 0 -384 -182q-157 -181 -157 -479q0 -296 161 -474q160 -176 400 -178q129 0 246 45z" />
    <glyph glyph-name="gcircumflex" unicode="&#x11d;" horiz-adv-x="1058" 
d="M582 1427l190 -264h-16l-232 115l-229 -115h-16l186 264h117zM520 397q53 0 89.5 31t53 82.5t23 98t6.5 97.5q0 49 -7 96t-24 98t-53.5 82.5t-87.5 31.5q-48 0 -83.5 -28.5t-54 -74t-26.5 -91t-8 -90.5q0 -65 2.5 -103t18.5 -91t47 -90q42 -49 104 -49zM522 -440
q151 0 260 74q107 73 109 176q0 118 -164 129l-356 18q-52 5 -64 8q-109 -76 -109 -178q0 -62 30 -108.5t79.5 -71t103 -36t111.5 -11.5zM1063 -86q0 -68 -28 -128.5t-76.5 -104.5t-105 -76.5t-121.5 -52.5q-138 -44 -296 -44q-159 0 -300 65q-138 65 -138 169
q0 159 268 238q-114 41 -112 155q0 72 50 137t122 111q-107 42 -166 125t-60 197q0 114 58.5 198.5t151.5 125t206 40.5q110 0 219 -55l357 55l-23 -143l-240 16q113 -92 113 -244q0 -151 -122 -252q-121 -100 -298 -100q-86 0 -164 25q-66 -56 -65 -109q0 -70 119 -76
l295 -14q58 -2 104.5 -9t95.5 -24.5t81.5 -45t53.5 -73t21 -106.5z" />
    <glyph glyph-name="Gbreve" unicode="&#x11e;" horiz-adv-x="1587" 
d="M793 1528q-53 0 -96 23.5t-71 63.5t-46 85t-27 96h8q28 -65 94 -99t142 -34q72 0 136 35.5t91 97.5h8q-8 -51 -26 -96t-46 -85t-71.5 -63.5t-95.5 -23.5zM1186 104v326q0 114 -32.5 170t-133.5 88v8h536v-8q-80 -32 -104 -79q-23 -47 -25 -179v-379q-338 -82 -542 -82
q-319 0 -554 202q-234 202 -235 527q0 249 150 429.5t399 265.5q144 49 277 49q110 0 243.5 -21t223.5 -57v-299h-9q-181 307 -460 307q-226 0 -384 -182q-157 -181 -157 -479q0 -296 161 -474q160 -176 400 -178q129 0 246 45z" />
    <glyph glyph-name="gbreve" unicode="&#x11f;" horiz-adv-x="1058" 
d="M366 1239q-59 78 -79 188h8q27 -62 93.5 -97.5t137.5 -35.5q73 0 138.5 35t93.5 98h8q-8 -50 -26 -95t-45.5 -85t-70.5 -64t-95 -24q-103 0 -163 80zM520 397q53 0 89.5 31t53 82.5t23 98t6.5 97.5q0 49 -7 96t-24 98t-53.5 82.5t-87.5 31.5q-48 0 -83.5 -28.5t-54 -74
t-26.5 -91t-8 -90.5q0 -65 2.5 -103t18.5 -91t47 -90q42 -49 104 -49zM522 -440q151 0 260 74q107 73 109 176q0 118 -164 129l-356 18q-52 5 -64 8q-109 -76 -109 -178q0 -62 30 -108.5t79.5 -71t103 -36t111.5 -11.5zM1063 -86q0 -68 -28 -128.5t-76.5 -104.5t-105 -76.5
t-121.5 -52.5q-138 -44 -296 -44q-159 0 -300 65q-138 65 -138 169q0 159 268 238q-114 41 -112 155q0 72 50 137t122 111q-107 42 -166 125t-60 197q0 114 58.5 198.5t151.5 125t206 40.5q110 0 219 -55l357 55l-23 -143l-240 16q113 -92 113 -244q0 -151 -122 -252
q-121 -100 -298 -100q-86 0 -164 25q-66 -56 -65 -109q0 -70 119 -76l295 -14q58 -2 104.5 -9t95.5 -24.5t81.5 -45t53.5 -73t21 -106.5z" />
    <glyph glyph-name="Gdotaccent" unicode="&#x120;" horiz-adv-x="1587" 
d="M655 1681q0 58 39.5 99t97.5 41t99 -40.5t41 -98.5t-40.5 -98t-98.5 -40t-98 39.5t-40 97.5zM1186 104v326q0 114 -32.5 170t-133.5 88v8h536v-8q-80 -32 -104 -79q-23 -47 -25 -179v-379q-338 -82 -542 -82q-319 0 -554 202q-234 202 -235 527q0 249 150 429.5
t399 265.5q144 49 277 49q110 0 243.5 -21t223.5 -57v-299h-9q-181 307 -460 307q-226 0 -384 -182q-157 -181 -157 -479q0 -296 161 -474q160 -176 400 -178q129 0 246 45z" />
    <glyph glyph-name="gdotaccent" unicode="&#x121;" horiz-adv-x="1058" 
d="M387 1313q0 57 40 98t97 41t98.5 -41t41.5 -98q0 -58 -41 -97.5t-99 -39.5t-97.5 39.5t-39.5 97.5zM520 397q53 0 89.5 31t53 82.5t23 98t6.5 97.5q0 49 -7 96t-24 98t-53.5 82.5t-87.5 31.5q-48 0 -83.5 -28.5t-54 -74t-26.5 -91t-8 -90.5q0 -65 2.5 -103t18.5 -91
t47 -90q42 -49 104 -49zM522 -440q151 0 260 74q107 73 109 176q0 118 -164 129l-356 18q-52 5 -64 8q-109 -76 -109 -178q0 -62 30 -108.5t79.5 -71t103 -36t111.5 -11.5zM1063 -86q0 -68 -28 -128.5t-76.5 -104.5t-105 -76.5t-121.5 -52.5q-138 -44 -296 -44
q-159 0 -300 65q-138 65 -138 169q0 159 268 238q-114 41 -112 155q0 72 50 137t122 111q-107 42 -166 125t-60 197q0 114 58.5 198.5t151.5 125t206 40.5q110 0 219 -55l357 55l-23 -143l-240 16q113 -92 113 -244q0 -151 -122 -252q-121 -100 -298 -100q-86 0 -164 25
q-66 -56 -65 -109q0 -70 119 -76l295 -14q58 -2 104.5 -9t95.5 -24.5t81.5 -45t53.5 -73t21 -106.5z" />
    <glyph glyph-name="Gcommaaccent" unicode="&#x122;" horiz-adv-x="1587" 
d="M813 -371q0 30 -31 71q-30 42 -30 88q0 49 34.5 80.5t83.5 31.5q58 0 88.5 -42.5t30.5 -103.5q0 -41 -25.5 -88t-66 -89t-79.5 -75t-77 -57l-6 6q78 97 78 178zM1186 104v326q0 114 -32.5 170t-133.5 88v8h536v-8q-80 -32 -104 -79q-23 -47 -25 -179v-379
q-338 -82 -542 -82q-319 0 -554 202q-234 202 -235 527q0 249 150 429.5t399 265.5q144 49 277 49q110 0 243.5 -21t223.5 -57v-299h-9q-181 307 -460 307q-226 0 -384 -182q-157 -181 -157 -479q0 -296 161 -474q160 -176 400 -178q129 0 246 45z" />
    <glyph glyph-name="gcommaaccent" unicode="&#x123;" horiz-adv-x="1058" 
d="M575 1440q0 -32 31 -72t31 -87q0 -49 -35 -80.5t-84 -31.5q-59 0 -89 43t-30 104q0 41 25.5 88t66 88t79.5 73t77 57l6 -4q-78 -101 -78 -178zM520 397q53 0 89.5 31t53 82.5t23 98t6.5 97.5q0 49 -7 96t-24 98t-53.5 82.5t-87.5 31.5q-48 0 -83.5 -28.5t-54 -74
t-26.5 -91t-8 -90.5q0 -65 2.5 -103t18.5 -91t47 -90q42 -49 104 -49zM522 -440q151 0 260 74q107 73 109 176q0 118 -164 129l-356 18q-52 5 -64 8q-109 -76 -109 -178q0 -62 30 -108.5t79.5 -71t103 -36t111.5 -11.5zM1063 -86q0 -68 -28 -128.5t-76.5 -104.5t-105 -76.5
t-121.5 -52.5q-138 -44 -296 -44q-159 0 -300 65q-138 65 -138 169q0 159 268 238q-114 41 -112 155q0 72 50 137t122 111q-107 42 -166 125t-60 197q0 114 58.5 198.5t151.5 125t206 40.5q110 0 219 -55l357 55l-23 -143l-240 16q113 -92 113 -244q0 -151 -122 -252
q-121 -100 -298 -100q-86 0 -164 25q-66 -56 -65 -109q0 -70 119 -76l295 -14q58 -2 104.5 -9t95.5 -24.5t81.5 -45t53.5 -73t21 -106.5z" />
    <glyph glyph-name="Hcircumflex" unicode="&#x124;" horiz-adv-x="1689" 
d="M899 1796l191 -264h-17l-231 115l-230 -115h-16l186 264h117zM1618 8v-8h-594v8q102 32 135 88q33 57 33 185v401h-692v-401q0 -126 32 -185q33 -56 134 -88v-8h-594v8q102 32 135 88q33 57 33 185v854q0 120 -32 179t-136 91v8h594v-8q-100 -31 -134 -88
q-34 -55 -32 -182v-369h692v369q0 120 -32 179t-136 91v8h594v-8q-54 -17 -87.5 -40.5t-50.5 -59t-22.5 -73t-5.5 -97.5v-854q0 -60 5.5 -98t22 -74.5t50.5 -60.5t88 -40z" />
    <glyph glyph-name="hcircumflex" unicode="&#x125;" horiz-adv-x="1302" 
d="M375 1851l190 -264h-16l-232 115l-229 -115h-16l186 264h117zM1255 8v-8h-526v8q85 32 114 87q29 56 27 184v446q0 100 -51.5 154.5t-150.5 54.5q-98 0 -213 -64v-591q0 -127 27 -184q28 -55 114 -87v-8h-533v8q83 31 112 87q28 55 28 184v886q0 136 -29 189
q-28 52 -135 90v8q194 12 407 92h9v-641q194 166 342 166q146 0 232 -86q85 -85 85 -270v-434q0 -38 1.5 -62t5.5 -54t13.5 -50t24.5 -41t39 -36.5t57 -27.5z" />
    <glyph glyph-name="Hbar" unicode="&#x126;" horiz-adv-x="1689" 
d="M500 764h692v240h-692v-240zM1618 8v-8h-594v8q102 32 135 88q33 57 33 185v403h-692v-403q0 -126 32 -185q33 -56 134 -88v-8h-594v8q102 32 135 88q33 57 33 185v723h-148v79h148v52q0 120 -32 179t-136 91v8h594v-8q-100 -31 -134 -88q-34 -55 -32 -182v-52h692v52
q0 120 -32 179t-136 91v8h594v-8q-54 -17 -87.5 -40.5t-50.5 -59t-22.5 -73t-5.5 -97.5v-52h147v-79h-147v-723q0 -60 5.5 -98t22 -74.5t50.5 -60.5t88 -40z" />
    <glyph glyph-name="hbar" unicode="&#x127;" horiz-adv-x="1302" 
d="M1255 8v-8h-526v8q85 32 114 87q29 56 27 184v446q0 98 -50.5 153.5t-147.5 55.5q-95 0 -217 -64v-591q0 -127 27 -184q28 -55 114 -87v-8h-530v8q86 32 114 87q29 56 27 184v905h-129v86h125q-8 74 -44.5 110t-115.5 64v8q187 12 403 92h9v-274h268v-86h-268v-281
q194 166 342 166q84 0 146 -27.5t99 -77.5t54.5 -115.5t17.5 -146.5v-423q0 -38 1.5 -62t5.5 -54t13.5 -50t24.5 -41t39 -36.5t57 -27.5z" />
    <glyph glyph-name="Itilde" unicode="&#x128;" horiz-adv-x="739" 
d="M480 1573q-56 0 -149 36t-124 36q-85 0 -125 -76l-14 4q23 87 79 145q55 58 110 58t146 -33t129 -33q81 0 125 72l13 -4q-18 -74 -70.5 -139.5t-119.5 -65.5zM666 8v-8h-594v8q55 17 89 40t51 58.5t22.5 73t5.5 99.5v856q0 120 -32 179t-136 91v8h594v-8
q-100 -31 -134 -88q-34 -55 -32 -182v-856q0 -126 32 -184q33 -55 134 -87z" />
    <glyph glyph-name="itilde" unicode="&#x129;" horiz-adv-x="643" 
d="M596 8v-8h-526v8q86 32 114 87q29 56 27 184v411q0 135 -29 188q-28 52 -135 91v8q183 12 399 92h9v-790q0 -127 27 -184q28 -55 114 -87zM432 1204q-55 0 -148 36t-124 36q-85 0 -125 -76l-15 4q23 86 79 144q57 59 111 59t146 -33t129 -33q81 0 125 72l13 -4
q-20 -74 -72 -139.5t-119 -65.5z" />
    <glyph glyph-name="Imacron" unicode="&#x12a;" horiz-adv-x="739" 
d="M625 1720v-108h-512v108h512zM666 8v-8h-594v8q55 17 89 40t51 58.5t22.5 73t5.5 99.5v856q0 120 -32 179t-136 91v8h594v-8q-100 -31 -134 -88q-34 -55 -32 -182v-856q0 -126 32 -184q33 -55 134 -87z" />
    <glyph glyph-name="imacron" unicode="&#x12b;" horiz-adv-x="643" 
d="M596 8v-8h-526v8q86 32 114 87q29 56 27 184v411q0 135 -29 188q-28 52 -135 91v8q183 12 399 92h9v-790q0 -127 27 -184q28 -55 114 -87zM575 1352v-109h-512v109h512z" />
    <glyph glyph-name="Ibreve" unicode="&#x12c;" horiz-adv-x="739" 
d="M369 1528q-53 0 -96 23.5t-71 63.5t-46 85t-27 96h8q28 -65 94 -99t142 -34q72 0 136 35.5t91 97.5h8q-8 -51 -26 -96t-46 -85t-71.5 -63.5t-95.5 -23.5zM666 8v-8h-594v8q55 17 89 40t51 58.5t22.5 73t5.5 99.5v856q0 120 -32 179t-136 91v8h594v-8q-100 -31 -134 -88
q-34 -55 -32 -182v-856q0 -126 32 -184q33 -55 134 -87z" />
    <glyph glyph-name="ibreve" unicode="&#x12d;" horiz-adv-x="643" 
d="M596 8v-8h-526v8q86 32 114 87q29 56 27 184v411q0 135 -29 188q-28 52 -135 91v8q183 12 399 92h9v-790q0 -127 27 -184q28 -55 114 -87zM82 1427h8q28 -63 93.5 -98t138.5 -35q72 0 138 35.5t93 97.5h8q-9 -50 -26.5 -95t-45 -85t-70 -64t-94.5 -24q-53 0 -97 23
t-72.5 63t-46.5 85t-27 97z" />
    <glyph glyph-name="Iogonek" unicode="&#x12e;" horiz-adv-x="739" 
d="M666 -344v-8q-60 -76 -138 -76q-68 0 -113 35t-46 101q0 54 51 115.5t108 97.5q49 33 127 79h-583v8q55 17 89 40t51 58.5t22.5 73t5.5 99.5v856q0 120 -32 179t-136 91v8h594v-8q-100 -31 -134 -88q-34 -55 -32 -182v-856q0 -126 32 -184q33 -55 134 -87v-8
q-131 -157 -131 -268q0 -34 23.5 -58.5t57.5 -26.5q23 0 50 9z" />
    <glyph glyph-name="iogonek" unicode="&#x12f;" horiz-adv-x="643" 
d="M467 1321q0 -57 -41 -97t-98 -40q-58 0 -98 39.5t-40 97.5t40 98.5t98 40.5t98.5 -40.5t40.5 -98.5zM469 -344v-8q-61 -76 -138 -76q-67 0 -113 35.5t-46 100.5q0 54 51.5 115.5t108.5 97.5q49 32 127 79h-389v8q86 32 114 87q29 56 27 184v411q0 135 -29 188
q-28 52 -135 91v8q183 12 399 92h9v-790q0 -127 27 -184q28 -55 114 -87v-8h-127q-131 -157 -131 -268q0 -34 23.5 -58.5t57.5 -26.5q23 0 50 9z" />
    <glyph glyph-name="Idotaccent" unicode="&#x130;" horiz-adv-x="739" 
d="M229 1681q0 58 39.5 99t97.5 41t99 -40.5t41 -98.5t-40.5 -98t-98.5 -40t-98 39.5t-40 97.5zM666 8v-8h-594v8q55 17 89 40t51 58.5t22.5 73t5.5 99.5v856q0 120 -32 179t-136 91v8h594v-8q-100 -31 -134 -88q-34 -55 -32 -182v-856q0 -126 32 -184q33 -55 134 -87z" />
    <glyph glyph-name="dotlessi" unicode="&#x131;" horiz-adv-x="643" 
d="M596 8v-8h-526v8q86 32 114 87q29 56 27 184v411q0 135 -29 188q-28 52 -135 91v8q183 12 399 92h9v-790q0 -127 27 -184q28 -55 114 -87z" />
    <glyph glyph-name="IJ" unicode="&#x132;" horiz-adv-x="1480" 
d="M979 -18v1153q0 120 -32 179t-136 91v8h594v-8q-54 -17 -87.5 -40.5t-50.5 -59t-22.5 -73t-5.5 -97.5v-1053q0 -221 -160 -348q-126 -100 -272 -162l-4 6q176 113 176 404zM666 8v-8h-594v8q55 17 89 40t51 58.5t22.5 73t5.5 99.5v856q0 120 -32 179t-136 91v8h594v-8
q-100 -31 -134 -88q-34 -55 -32 -182v-856q0 -126 32 -184q33 -55 134 -87z" />
    <glyph glyph-name="ij" unicode="&#x133;" horiz-adv-x="1280" 
d="M848 -72v762q0 135 -29 188q-28 52 -135 91v8q191 12 406 92h8v-1038q0 -232 -155 -367q-124 -107 -253 -156l-6 11q85 54 124.5 170.5t39.5 238.5zM1110 1321q0 -57 -41 -97t-98 -40q-58 0 -98 40t-39 97q0 58 39 98.5t97 40.5t99 -40.5t41 -98.5zM596 8v-8h-526v8
q86 32 114 87q29 56 27 184v411q0 135 -29 188q-28 52 -135 91v8q183 12 399 92h9v-790q0 -127 27 -184q28 -55 114 -87zM467 1321q0 -57 -41 -97t-98 -40q-58 0 -98 39.5t-40 97.5t40 98.5t98 40.5t98.5 -40.5t40.5 -98.5z" />
    <glyph glyph-name="Jcircumflex" unicode="&#x134;" horiz-adv-x="739" 
d="M426 1796l190 -264h-16l-231 115l-230 -115h-16l186 264h117zM240 -18v1153q0 120 -32 179t-136 91v8h594v-8q-100 -31 -134 -88q-34 -55 -32 -182v-1053q0 -221 -160 -348q-126 -100 -272 -162l-5 6q175 112 177 404z" />
    <glyph glyph-name="jcircumflex" unicode="&#x135;" horiz-adv-x="636" 
d="M375 1427l190 -264h-16l-232 115l-229 -115h-16l186 264h117zM207 -72v762q0 135 -29 188q-28 52 -135 91v8q187 12 403 92h9v-1038q0 -107 -39 -203.5t-115 -163.5q-121 -106 -252 -156l-6 11q85 54 124.5 170.5t39.5 238.5z" />
    <glyph glyph-name="Kcommaaccent" unicode="&#x136;" horiz-adv-x="1519" 
d="M709 -371q0 30 -31 71t-31 88q0 49 35 80.5t84 31.5q58 0 88.5 -42.5t30.5 -103.5q0 -41 -25.5 -88t-66 -89t-79.5 -75t-77 -57l-6 6q78 97 78 178zM1556 8v-8h-622v8q56 13 82 30q26 16 24 54q0 62 -120 246l-246 369l-180 -191v-237q0 -126 32 -184q33 -56 133 -87v-8
h-593v8q102 32 135 87q34 56 32 184v856q0 124 -32 182q-33 56 -135 88v8h593v-8q-100 -31 -133 -88q-33 -58 -32 -182v-519l405 449q125 137 125 218t-125 122v8h571v-8q-116 -43 -200 -102q-80 -56 -244 -230l-180 -188l379 -555q114 -168 175 -226q64 -62 156 -96z" />
    <glyph glyph-name="kcommaaccent" unicode="&#x137;" horiz-adv-x="1239" 
d="M539 -300q-31 41 -31 88q0 49 35 80.5t84 31.5q50 0 85 -38t33 -95q1 -46 -23 -95t-63.5 -91.5t-79 -75t-81.5 -60.5l-6 6q79 98 77 178q0 29 -30 71zM590 8v-8h-533v8q85 32 114 87q28 55 28 184v886q0 136 -29 189q-28 52 -135 90v8q186 12 407 92h9v-1265
q0 -127 27 -184q29 -56 112 -87zM1290 8v-8h-225q-111 0 -152 9q-42 9 -85 51q-47 45 -115 157l-215 338l192 180q104 95 104 175q0 81 -151 120v14h608v-10q-237 -57 -415 -243l-129 -132l303 -428q65 -92 125.5 -143t154.5 -80z" />
    <glyph glyph-name="kgreenlandic" unicode="&#x138;" horiz-adv-x="1239" 
d="M590 8v-8h-527v8q85 32 114 87q28 55 28 184v411q0 135 -29 188q-28 52 -135 91v8q180 12 401 92h9v-790q0 -127 27 -184q29 -56 112 -87zM1290 8v-8h-229q-141 0 -188 29q-45 27 -166 188l-226 293l213 227q99 105 101 172q0 80 -152 121v14h567v-10
q-107 -27 -170 -68.5t-145 -129.5l-205 -222l320 -383q72 -87 136 -143t144 -80z" />
    <glyph glyph-name="Lacute" unicode="&#x139;" horiz-adv-x="1159" 
d="M248 1542l-10 2q122 136 168 250l217 -12q-119 -166 -375 -240zM1077 0h-1011v8q102 32 135 87q34 56 32 184v856q0 124 -32 182q-33 56 -135 88v8h593v-8q-100 -31 -133 -88q-33 -58 -32 -182v-1061h188q82 0 111 4q46 6 96.5 39t85.5 73q61 69 133 156h10z" />
    <glyph glyph-name="lacute" unicode="&#x13a;" horiz-adv-x="620" 
d="M127 1559l-10 2q123 137 168 249l217 -12q-119 -166 -375 -239zM590 8v-8h-533v8q85 32 114 87q28 55 28 184v886q0 136 -29 189q-28 52 -135 90v8q186 12 407 92h9v-1265q0 -127 27 -184q29 -56 112 -87z" />
    <glyph glyph-name="Lcommaaccent" unicode="&#x13b;" horiz-adv-x="1159" 
d="M500 -300q-31 41 -31 88q0 49 35 80.5t84 31.5q58 0 88.5 -42.5t30.5 -103.5q0 -41 -25.5 -88t-66 -89t-79.5 -75t-77 -57l-6 6q79 98 77 178q0 29 -30 71zM1077 0h-1011v8q102 32 135 87q34 56 32 184v856q0 124 -32 182q-33 56 -135 88v8h593v-8q-100 -31 -133 -88
q-33 -58 -32 -182v-1061h188q82 0 111 4q46 6 96.5 39t85.5 73q61 69 133 156h10z" />
    <glyph glyph-name="lcommaaccent" unicode="&#x13c;" horiz-adv-x="620" 
d="M260 -371q0 30 -31 71t-31 88q0 49 35 80.5t84 31.5q58 0 88.5 -42.5t30.5 -103.5q0 -41 -25.5 -88t-66 -89t-79.5 -75t-77 -57l-6 6q78 97 78 178zM590 8v-8h-533v8q85 32 114 87q28 55 28 184v886q0 136 -29 189q-28 52 -135 90v8q186 12 407 92h9v-1265
q0 -127 27 -184q29 -56 112 -87z" />
    <glyph glyph-name="Lcaron" unicode="&#x13d;" horiz-adv-x="1159" 
d="M765 1181q-44 129 -44 163q0 40 31.5 69t71.5 29t72 -29.5t32 -69.5q0 -37 -45 -163q-44 -124 -49 -209h-21q-5 84 -48 210zM1077 0h-1011v8q102 32 135 87q34 56 32 184v856q0 124 -32 182q-33 56 -135 88v8h593v-8q-100 -31 -133 -88q-33 -58 -32 -182v-1061h188
q82 0 111 4q46 6 96.5 39t85.5 73q61 69 133 156h10z" />
    <glyph glyph-name="lcaron" unicode="&#x13e;" horiz-adv-x="718" 
d="M545 1446q-1 38 29 68t73 30q40 0 72.5 -29t32.5 -69q0 -37 -46 -163q-46 -125 -49 -210h-20q-5 84 -48 210q-44 127 -44 163zM590 8v-8h-533v8q85 32 114 87q28 55 28 184v886q0 136 -29 189q-28 52 -135 90v8q186 12 407 92h9v-1265q0 -127 27 -184q29 -56 112 -87z
" />
    <glyph glyph-name="Ldot" unicode="&#x13f;" horiz-adv-x="1159" 
d="M604 726q0 63 43.5 106t106.5 45q63 0 107 -44t44 -107q0 -62 -44 -106t-106 -44q-63 0 -107 43.5t-44 106.5zM1077 0h-1011v8q102 32 135 87q34 56 32 184v856q0 124 -32 182q-33 56 -135 88v8h593v-8q-100 -31 -133 -88q-33 -58 -32 -182v-1061h188q82 0 111 4
q46 6 96.5 39t85.5 73q61 69 133 156h10z" />
    <glyph glyph-name="ldot" unicode="&#x140;" horiz-adv-x="751" 
d="M547 730q0 63 43.5 106t106.5 45q63 0 107 -44t44 -107q0 -62 -44 -106t-106 -44q-63 0 -107 43.5t-44 106.5zM590 8v-8h-533v8q85 32 114 87q28 55 28 184v886q0 136 -29 189q-28 52 -135 90v8q186 12 407 92h9v-1265q0 -127 27 -184q29 -56 112 -87z" />
    <glyph glyph-name="Lslash" unicode="&#x141;" horiz-adv-x="1159" 
d="M1077 0h-1011v8q102 32 135 87q34 56 32 184v262q-45 -17 -135 -45v94q90 28 135 45v500q0 124 -32 182q-33 56 -135 88v8h593v-8q-100 -31 -133 -88q-33 -58 -32 -182v-414l219 74v-95l-219 -73v-553h284q79 5 141 56q61 52 189 216h10z" />
    <glyph glyph-name="lslash" unicode="&#x142;" horiz-adv-x="620" 
d="M590 8v-8h-533v8q85 32 114 87q28 55 28 184v532l-148 -53v100l148 53v254q0 136 -29 189q-28 52 -135 90v8q186 12 407 92h9v-538l143 57v-100l-143 -58v-626q0 -127 27 -184q29 -56 112 -87z" />
    <glyph glyph-name="Nacute" unicode="&#x143;" horiz-adv-x="1665" 
d="M649 1542l-10 2q122 136 168 250l217 -12q-118 -166 -375 -240zM1436 973v-987h-117q-110 131 -484 582q-329 396 -501 603v-729q0 -295 64 -369q34 -40 104 -65v-8h-443v8q74 27 106 67.5t47 119.5q15 84 15 247v746q0 66 -48 127t-150 90v8h426l874 -1038v598
q0 230 -33 313q-33 81 -135 119v8h443v-8q-74 -28 -106.5 -68t-46.5 -119q-15 -84 -15 -245z" />
    <glyph glyph-name="nacute" unicode="&#x144;" horiz-adv-x="1308" 
d="M467 1174l-10 2q123 136 168 249l217 -12q-119 -166 -375 -239zM1262 8v-8h-525v8q83 31 112 87q28 55 28 184v446q1 100 -55 155q-56 54 -152 54q-97 0 -215 -64v-591q0 -127 27 -184q28 -55 114 -87v-8h-526v8q86 32 114 87q29 56 27 184v411q0 135 -29 188
q-28 52 -135 91v8q178 11 395 92h9v-170q79 70 177 118.5t189 49.5q134 0 219 -85q86 -86 86 -269v-434q0 -45 2 -73t9.5 -62t22 -56.5t41 -43.5t65.5 -36z" />
    <glyph glyph-name="Ncommaaccent" unicode="&#x145;" horiz-adv-x="1665" 
d="M752 -300q-31 41 -31 88q0 49 35 80.5t84 31.5q50 0 85 -38t33 -95q0 -46 -24 -95t-63.5 -91t-78.5 -75t-81 -61l-6 6q79 98 77 178q0 29 -30 71zM1436 973v-987h-117q-110 131 -484 582q-329 396 -501 603v-729q0 -295 64 -369q34 -40 104 -65v-8h-443v8q74 27 106 67.5
t47 119.5q15 84 15 247v746q0 66 -48 127t-150 90v8h426l874 -1038v598q0 230 -33 313q-33 81 -135 119v8h443v-8q-74 -28 -106.5 -68t-46.5 -119q-15 -84 -15 -245z" />
    <glyph glyph-name="ncommaaccent" unicode="&#x146;" horiz-adv-x="1308" 
d="M602 -371q0 30 -31 71t-31 88q0 49 35 80.5t84 31.5q58 0 88.5 -42.5t30.5 -103.5q0 -41 -25.5 -88t-66 -89t-79.5 -75t-77 -57l-6 6q78 97 78 178zM1262 8v-8h-525v8q83 31 112 87q28 55 28 184v446q1 100 -55 155q-56 54 -152 54q-97 0 -215 -64v-591q0 -127 27 -184
q28 -55 114 -87v-8h-526v8q86 32 114 87q29 56 27 184v411q0 135 -29 188q-28 52 -135 91v8q178 11 395 92h9v-170q79 70 177 118.5t189 49.5q134 0 219 -85q86 -86 86 -269v-434q0 -45 2 -73t9.5 -62t22 -56.5t41 -43.5t65.5 -36z" />
    <glyph glyph-name="Ncaron" unicode="&#x147;" horiz-adv-x="1665" 
d="M1079 1796l-190 -264h-117l-186 264h16l229 -115l232 115h16zM1436 973v-987h-117q-110 131 -484 582q-329 396 -501 603v-729q0 -295 64 -369q34 -40 104 -65v-8h-443v8q74 27 106 67.5t47 119.5q15 84 15 247v746q0 66 -48 127t-150 90v8h426l874 -1038v598
q0 230 -33 313q-33 81 -135 119v8h443v-8q-74 -28 -106.5 -68t-46.5 -119q-15 -84 -15 -245z" />
    <glyph glyph-name="ncaron" unicode="&#x148;" horiz-adv-x="1308" 
d="M897 1427l-190 -264h-117l-187 264h17l229 -114l232 114h16zM1262 8v-8h-525v8q83 31 112 87q28 55 28 184v446q1 100 -55 155q-56 54 -152 54q-97 0 -215 -64v-591q0 -127 27 -184q28 -55 114 -87v-8h-526v8q86 32 114 87q29 56 27 184v411q0 135 -29 188
q-28 52 -135 91v8q178 11 395 92h9v-170q79 70 177 118.5t189 49.5q134 0 219 -85q86 -86 86 -269v-434q0 -45 2 -73t9.5 -62t22 -56.5t41 -43.5t65.5 -36z" />
    <glyph glyph-name="napostrophe" unicode="&#x149;" horiz-adv-x="1308" 
d="M211 1432q0 49 34.5 80.5t84.5 31.5q58 0 88.5 -42.5t30.5 -103.5q0 -41 -25.5 -89.5t-65 -90.5t-80 -76t-77.5 -57l-6 7q78 97 77 180q0 30 -30 72q-29 41 -31 88zM1262 8v-8h-525v8q83 31 112 87q28 55 28 184v446q1 100 -55 155q-56 54 -152 54q-97 0 -215 -64v-591
q0 -127 27 -184q28 -55 114 -87v-8h-526v8q86 32 114 87q29 56 27 184v411q0 135 -29 188q-28 52 -135 91v8q178 11 395 92h9v-170q79 70 177 118.5t189 49.5q134 0 219 -85q86 -86 86 -269v-434q0 -45 2 -73t9.5 -62t22 -56.5t41 -43.5t65.5 -36z" />
    <glyph glyph-name="Eng" unicode="&#x14a;" horiz-adv-x="1665" 
d="M334 1171v-729q0 -295 64 -369q34 -40 104 -65v-8h-439v8q74 27 106 67.5t47 119.5q15 84 15 247v746q0 83 -56 138t-142 79v8h422l874 -1038v618q0 220 -34 297q-34 78 -134 115v8h438v-8q-99 -37 -134 -114t-33 -296v-864q0 -228 -102 -386q-102 -157 -265 -157
q-125 0 -125 101q0 35 21 69q62 -28 124 -28q178 0 230 262z" />
    <glyph glyph-name="eng" unicode="&#x14b;" horiz-adv-x="1302" 
d="M870 -70v795q0 96 -53.5 152.5t-148.5 56.5t-213 -64v-591q0 -127 27 -184q28 -55 114 -87v-8h-526v8q86 32 114 87q29 56 27 184v411q0 135 -29 188q-28 52 -135 91v8q178 11 395 92h9v-170q67 67 167.5 117t186.5 51q136 0 225 -89q88 -88 88 -276v-671
q0 -186 -111 -319.5t-294 -203.5l-6 13q85 53 124 170t39 239z" />
    <glyph glyph-name="Omacron" unicode="&#x14c;" horiz-adv-x="1716" 
d="M1114 1720v-108h-512v108h512zM1630 705q0 -234 -134 -414.5t-359 -267.5q-138 -53 -305 -53q-169 0 -344 88q-183 93 -292.5 267t-109.5 377q0 151 64.5 289t170.5 236t247.5 156.5t289.5 58.5t289.5 -58.5t247.5 -156t170.5 -235t64.5 -287.5zM858 39q214 1 351 195
t137 473q0 280 -136 473q-136 192 -352 192q-217 0 -352 -194t-135 -471q0 -279 136 -473q137 -195 351 -195z" />
    <glyph glyph-name="omacron" unicode="&#x14d;" horiz-adv-x="1245" 
d="M877 1352v-109h-512v109h512zM897 522q0 58 -6.5 118t-25.5 129t-48.5 122t-80.5 88t-116 35q-55 0 -99.5 -24t-73 -66t-49.5 -91.5t-32 -107.5t-15.5 -107t-4.5 -96q0 -65 6 -125.5t25 -130t49 -120t83.5 -84t123.5 -33.5q86 -1 151 77q114 137 113 416zM1008 135
q-161 -160 -387 -160q-113 0 -214.5 43t-174.5 116.5t-115.5 175.5t-42.5 215q0 229 164 387q163 157 384 157q220 0 384 -156t164 -387q0 -230 -162 -391z" />
    <glyph glyph-name="Obreve" unicode="&#x14e;" horiz-adv-x="1716" 
d="M858 1528q-53 0 -96 23.5t-71 63.5t-46 85t-27 96h9q28 -64 94 -98.5t141 -34.5q72 0 136.5 35t91.5 98h8q-8 -51 -26 -96t-46.5 -85t-71.5 -63.5t-96 -23.5zM1630 705q0 -234 -134 -414.5t-359 -267.5q-138 -53 -305 -53q-169 0 -344 88q-183 93 -292.5 267t-109.5 377
q0 151 64.5 289t170.5 236t247.5 156.5t289.5 58.5t289.5 -58.5t247.5 -156t170.5 -235t64.5 -287.5zM858 39q214 1 351 195t137 473q0 280 -136 473q-136 192 -352 192q-217 0 -352 -194t-135 -471q0 -279 136 -473q137 -195 351 -195z" />
    <glyph glyph-name="obreve" unicode="&#x14f;" horiz-adv-x="1245" 
d="M381 1427h8q27 -62 93.5 -97.5t138.5 -35.5t138 35.5t93 97.5h8q-8 -50 -25.5 -95t-45.5 -85t-70.5 -64t-94.5 -24q-53 0 -97 23t-72.5 63t-46.5 85t-27 97zM897 522q0 58 -6.5 118t-25.5 129t-48.5 122t-80.5 88t-116 35q-55 0 -99.5 -24t-73 -66t-49.5 -91.5
t-32 -107.5t-15.5 -107t-4.5 -96q0 -65 6 -125.5t25 -130t49 -120t83.5 -84t123.5 -33.5q86 -1 151 77q114 137 113 416zM1008 135q-161 -160 -387 -160q-113 0 -214.5 43t-174.5 116.5t-115.5 175.5t-42.5 215q0 229 164 387q163 157 384 157q220 0 384 -156t164 -387
q0 -230 -162 -391z" />
    <glyph glyph-name="Ohungarumlaut" unicode="&#x150;" horiz-adv-x="1716" 
d="M885 1532h-19q64 148 68 250h160q-72 -148 -209 -250zM641 1532h-18q62 146 67 250h160q-72 -148 -209 -250zM1630 705q0 -234 -134 -414.5t-359 -267.5q-138 -53 -305 -53q-169 0 -344 88q-183 93 -292.5 267t-109.5 377q0 151 64.5 289t170.5 236t247.5 156.5
t289.5 58.5t289.5 -58.5t247.5 -156t170.5 -235t64.5 -287.5zM858 39q214 1 351 195t137 473q0 280 -136 473q-136 192 -352 192q-217 0 -352 -194t-135 -471q0 -279 136 -473q137 -195 351 -195z" />
    <glyph glyph-name="ohungarumlaut" unicode="&#x151;" horiz-adv-x="1245" 
d="M649 1163h-18q62 146 67 250h160q-72 -148 -209 -250zM406 1163h-19q64 148 68 250h159q-70 -148 -208 -250zM897 522q0 58 -6.5 118t-25.5 129t-48.5 122t-80.5 88t-116 35q-55 0 -99.5 -24t-73 -66t-49.5 -91.5t-32 -107.5t-15.5 -107t-4.5 -96q0 -65 6 -125.5t25 -130
t49 -120t83.5 -84t123.5 -33.5q86 -1 151 77q114 137 113 416zM1008 135q-161 -160 -387 -160q-113 0 -214.5 43t-174.5 116.5t-115.5 175.5t-42.5 215q0 229 164 387q163 157 384 157q220 0 384 -156t164 -387q0 -230 -162 -391z" />
    <glyph glyph-name="OE" unicode="&#x152;" horiz-adv-x="2318" 
d="M1210 234q136 196 136 474q0 279 -136 472q-136 192 -352 192q-217 0 -352 -194t-135 -471t136 -473t351 -196q216 0 352 196zM2210 0h-869v186q-184 -217 -483 -217q-153 0 -294.5 56t-246.5 152.5t-168 234t-63 290.5q0 151 64.5 289t170.5 236t247.5 156.5t289.5 58.5
q290 0 483 -228v199h809v-315h-8q-90 155 -148 198q-56 43 -173 43h-219v-575h223q82 0 130 30.5t95 104.5h8v-344h-8q-49 76 -94.5 104.5t-130.5 28.5h-223v-614h239q133 0 197 45q61 44 205 227h8z" />
    <glyph glyph-name="oe" unicode="&#x153;" horiz-adv-x="1849" 
d="M1370 1014q-94 0 -156 -110q-61 -109 -69 -275l43 -6q223 15 373 22q0 369 -191 369zM897 522q0 58 -6.5 118t-25.5 129t-48.5 122t-80.5 88t-116 35q-55 0 -99.5 -24t-73 -66t-49.5 -91.5t-32 -107.5t-15.5 -107t-4.5 -96q0 -65 6 -125.5t25 -130t49 -120t83.5 -84
t123.5 -33.5q86 -1 151 77q114 137 113 416zM1374 -25q-249 0 -379 193q-139 -193 -369 -193q-152 0 -279 72.5t-200 198.5t-73 279q0 229 164 387q163 157 383 157q250 0 391 -213q65 97 163 154.5t211 58.5q181 0 291 -101q109 -100 109 -327v-68h-643q0 -208 101 -321
q100 -112 255 -112t285 102l10 -9q-57 -93 -165 -175q-110 -83 -255 -83z" />
    <glyph glyph-name="Racute" unicode="&#x154;" horiz-adv-x="1366" 
d="M500 1542l-11 2q122 136 168 250l217 -12q-119 -167 -374 -240zM1421 8v-8h-155q-134 0 -188 12q-55 12 -90 46q-37 36 -101 135l-287 442h-106v-354q0 -126 32 -185q33 -57 133 -88v-8h-593v8q102 32 135 88q33 58 32 185v854q0 124 -32 182q-33 56 -135 88v8h620
q524 0 524 -369q0 -143 -110 -233q-109 -90 -260 -129l331 -459q93 -127 133 -161q42 -36 117 -54zM494 1343v-645h81q172 0 271.5 84t99.5 248q0 128 -74.5 220.5t-199.5 92.5h-178z" />
    <glyph glyph-name="racute" unicode="&#x155;" horiz-adv-x="827" 
d="M229 1174l-10 2q123 136 168 249l217 -12q-119 -166 -375 -239zM680 784q-60 0 -100.5 41t-40.5 101q0 59 40.5 101t99.5 42t100.5 -42t41.5 -101t-41 -100.5t-100 -41.5zM614 8v-8h-548v8q83 31 112 87t27 184v411q0 135 -29 188q-28 52 -135 91v8q184 11 401 92h9v-790
q0 -128 31 -184q32 -55 132 -87z" />
    <glyph glyph-name="Rcommaaccent" unicode="&#x156;" horiz-adv-x="1366" 
d="M633 -371q0 30 -31 71t-31 88q0 49 35 80.5t84 31.5q58 0 88.5 -42.5t30.5 -103.5q0 -41 -25.5 -88t-66 -89t-79.5 -75t-77 -57l-6 6q78 97 78 178zM1421 8v-8h-155q-134 0 -188 12q-55 12 -90 46q-37 36 -101 135l-287 442h-106v-354q0 -126 32 -185q33 -57 133 -88v-8
h-593v8q102 32 135 88q33 58 32 185v854q0 124 -32 182q-33 56 -135 88v8h620q524 0 524 -369q0 -143 -110 -233q-109 -90 -260 -129l331 -459q93 -127 133 -161q42 -36 117 -54zM494 1343v-645h81q172 0 271.5 84t99.5 248q0 128 -74.5 220.5t-199.5 92.5h-178z" />
    <glyph glyph-name="rcommaaccent" unicode="&#x157;" horiz-adv-x="827" 
d="M279 -371q0 30 -31 71t-31 88q0 49 35 80.5t84 31.5q58 0 88.5 -42.5t30.5 -103.5q0 -41 -25.5 -88t-66 -89t-79.5 -75t-77 -57l-6 6q78 97 78 178zM680 784q-60 0 -100.5 41t-40.5 101q0 59 40.5 101t99.5 42t100.5 -42t41.5 -101t-41 -100.5t-100 -41.5zM614 8v-8h-548
v8q83 31 112 87t27 184v411q0 135 -29 188q-28 52 -135 91v8q184 11 401 92h9v-790q0 -128 31 -184q32 -55 132 -87z" />
    <glyph glyph-name="Rcaron" unicode="&#x158;" horiz-adv-x="1366" 
d="M930 1796l-191 -264h-116l-187 264h17l229 -115l231 115h17zM1421 8v-8h-155q-134 0 -188 12q-55 12 -90 46q-37 36 -101 135l-287 442h-106v-354q0 -126 32 -185q33 -57 133 -88v-8h-593v8q102 32 135 88q33 58 32 185v854q0 124 -32 182q-33 56 -135 88v8h620
q524 0 524 -369q0 -143 -110 -233q-109 -90 -260 -129l331 -459q93 -127 133 -161q42 -36 117 -54zM494 1343v-645h81q172 0 271.5 84t99.5 248q0 128 -74.5 220.5t-199.5 92.5h-178z" />
    <glyph glyph-name="rcaron" unicode="&#x159;" horiz-adv-x="827" 
d="M659 1427l-190 -264h-117l-186 264h16l230 -114l231 114h16zM680 784q-60 0 -100.5 41t-40.5 101q0 59 40.5 101t99.5 42t100.5 -42t41.5 -101t-41 -100.5t-100 -41.5zM614 8v-8h-548v8q83 31 112 87t27 184v411q0 135 -29 188q-28 52 -135 91v8q184 11 401 92h9v-790
q0 -128 31 -184q32 -55 132 -87z" />
    <glyph glyph-name="Sacute" unicode="&#x15a;" horiz-adv-x="1071" 
d="M367 1542l-11 2q122 136 168 250l217 -12q-119 -167 -374 -240zM117 57v355h8q178 -373 401 -373q101 0 175.5 63.5t74.5 162.5q-2 161 -234 308q-119 76 -194 127q-104 70 -170 162t-65 199q0 68 26 129t70 106.5t101 78.5t121.5 50t128.5 17q170 0 368 -84v-299h-8
q-163 313 -371 313q-92 0 -157.5 -59t-65.5 -149q0 -150 235 -292q109 -64 197 -124q104 -70 170 -167.5t65 -209.5q0 -171 -135 -287q-134 -115 -357 -115t-384 88z" />
    <glyph glyph-name="sacute" unicode="&#x15b;" horiz-adv-x="868" 
d="M250 1174l-10 2q123 136 168 249l217 -12q-119 -166 -375 -239zM438 27q77 0 132.5 45t55.5 120q0 72 -54 120q-56 49 -134 83q-65 29 -156 76q-86 44 -136.5 120.5t-51.5 170.5q0 94 52 165.5t132 106.5t172 35q144 0 289 -57v-258h-8q-157 262 -299 262
q-68 0 -117 -41.5t-49 -108.5q0 -113 193 -194q66 -29 159 -76q88 -45 140 -123t53 -174q0 -81 -33.5 -144t-90.5 -101.5t-126.5 -58t-146.5 -20.5q-174 0 -322 74l-6 291h10q174 -313 342 -313z" />
    <glyph glyph-name="Scircumflex" unicode="&#x15c;" horiz-adv-x="1071" 
d="M606 1796l191 -264h-17l-231 115l-230 -115h-16l186 264h117zM117 57v355h8q178 -373 401 -373q101 0 175.5 63.5t74.5 162.5q-2 161 -234 308q-119 76 -194 127q-104 70 -170 162t-65 199q0 68 26 129t70 106.5t101 78.5t121.5 50t128.5 17q170 0 368 -84v-299h-8
q-163 313 -371 313q-92 0 -157.5 -59t-65.5 -149q0 -150 235 -292q109 -64 197 -124q104 -70 170 -167.5t65 -209.5q0 -171 -135 -287q-134 -115 -357 -115t-384 88z" />
    <glyph glyph-name="scircumflex" unicode="&#x15d;" horiz-adv-x="868" 
d="M489 1427l191 -264h-16l-232 115l-229 -115h-17l187 264h116zM438 27q77 0 132.5 45t55.5 120q0 72 -54 120q-56 49 -134 83q-65 29 -156 76q-86 44 -136.5 120.5t-51.5 170.5q0 94 52 165.5t132 106.5t172 35q144 0 289 -57v-258h-8q-157 262 -299 262q-68 0 -117 -41.5
t-49 -108.5q0 -113 193 -194q66 -29 159 -76q88 -45 140 -123t53 -174q0 -81 -33.5 -144t-90.5 -101.5t-126.5 -58t-146.5 -20.5q-174 0 -322 74l-6 291h10q174 -313 342 -313z" />
    <glyph glyph-name="Scedilla" unicode="&#x15e;" horiz-adv-x="1071" 
d="M350 -375l25 23q61 -27 117 -27q50 0 83 22t33 69q0 32 -36.5 57t-77 35.5t-72.5 11.5l119 155q-16 -2 -35 -2q-228 0 -389 88v355h8q178 -373 401 -373q101 0 175.5 63.5t74.5 162.5q-2 161 -234 308q-119 76 -194 127q-104 70 -170 162t-65 199q0 68 26 129t70 106.5
t101 78.5t121.5 50t128.5 17q170 0 368 -84v-299h-8q-163 313 -371 313q-92 0 -157.5 -59t-65.5 -149q0 -150 235 -292q109 -64 197 -124q104 -70 170 -167.5t65 -209.5q0 -161 -110.5 -265t-276.5 -129l-51 -81q77 -8 136 -52t59 -116q0 -56 -39.5 -93t-89 -50t-104.5 -13
q-94 0 -167 53z" />
    <glyph glyph-name="scedilla" unicode="&#x15f;" horiz-adv-x="868" 
d="M233 -375l25 23q60 -27 116 -27q50 0 84 22t34 69q0 32 -36.5 57t-77.5 35.5t-73 11.5l123 159h-10q-176 0 -326 74l-6 291h10q174 -313 342 -313q77 0 132.5 45t55.5 120q0 72 -54 120q-56 49 -134 83q-65 29 -156 76q-86 44 -136.5 120.5t-51.5 170.5q0 94 52 165.5
t132 106.5t172 35q144 0 289 -57v-258h-8q-157 262 -299 262q-68 0 -117 -41.5t-49 -108.5q0 -113 193 -194q66 -29 159 -76t142 -126.5t51 -183.5q0 -128 -92 -208.5t-225 -95.5l-56 -86q71 -7 133 -50q61 -42 61 -118q0 -56 -39.5 -93t-88.5 -50t-104 -13q-94 0 -167 53z
" />
    <glyph glyph-name="Scaron" unicode="&#x160;" horiz-adv-x="1071" 
d="M797 1796l-191 -264h-117l-186 264h16l230 -115l231 115h17zM117 57v355h8q178 -373 401 -373q101 0 175.5 63.5t74.5 162.5q-2 161 -234 308q-119 76 -194 127q-104 70 -170 162t-65 199q0 68 26 129t70 106.5t101 78.5t121.5 50t128.5 17q170 0 368 -84v-299h-8
q-163 313 -371 313q-92 0 -157.5 -59t-65.5 -149q0 -150 235 -292q109 -64 197 -124q104 -70 170 -167.5t65 -209.5q0 -171 -135 -287q-134 -115 -357 -115t-384 88z" />
    <glyph glyph-name="scaron" unicode="&#x161;" horiz-adv-x="868" 
d="M680 1427l-191 -264h-116l-187 264h17l229 -114l232 114h16zM438 27q77 0 132.5 45t55.5 120q0 72 -54 120q-56 49 -134 83q-65 29 -156 76q-86 44 -136.5 120.5t-51.5 170.5q0 94 52 165.5t132 106.5t172 35q144 0 289 -57v-258h-8q-157 262 -299 262q-68 0 -117 -41.5
t-49 -108.5q0 -113 193 -194q66 -29 159 -76q88 -45 140 -123t53 -174q0 -81 -33.5 -144t-90.5 -101.5t-126.5 -58t-146.5 -20.5q-174 0 -322 74l-6 291h10q174 -313 342 -313z" />
    <glyph glyph-name="Tcommaaccent" unicode="&#x162;" horiz-adv-x="1363" 
d="M631 -371q0 30 -31 71t-31 88q0 49 35 80.5t84 31.5q58 0 88.5 -42.5t30.5 -103.5q0 -41 -25.5 -88t-66 -89t-79.5 -75t-77 -57l-6 6q78 97 78 178zM979 8v-8h-594v8q102 32 135 88q33 57 33 185v1058h-96q-79 0 -149 -17q-28 -7 -79 -63q-55 -59 -155 -186h-8l36 340
h1162l36 -340h-10q-151 194 -203 231q-50 35 -178 35h-96v-1058q0 -60 5.5 -98t22 -74.5t50.5 -60.5t88 -40z" />
    <glyph glyph-name="tcommaaccent" unicode="&#x163;" horiz-adv-x="737" 
d="M324 -371q0 30 -31 71t-31 88q0 49 35 80.5t84 31.5q58 0 88.5 -42.5t30.5 -103.5q0 -41 -25.5 -88t-66 -89t-79.5 -75t-77 -57l-6 6q78 97 78 178zM195 295v643h-150v10l90 49q50 28 112.5 82.5t94.5 100.5q1 1 88 118h10v-254h271v-110h-271v-627q0 -85 44 -136.5
t128 -51.5q82 0 144 39l8 -11q-130 -164 -295 -163q-124 0 -200 74q-75 74 -74 237z" />
    <glyph glyph-name="Tcaron" unicode="&#x164;" horiz-adv-x="1363" 
d="M928 1796l-191 -264h-116l-187 264h17l229 -115l231 115h17zM979 8v-8h-594v8q102 32 135 88q33 57 33 185v1058h-96q-79 0 -149 -17q-28 -7 -79 -63q-55 -59 -155 -186h-8l36 340h1162l36 -340h-10q-151 194 -203 231q-50 35 -178 35h-96v-1058q0 -60 5.5 -98t22 -74.5
t50.5 -60.5t88 -40z" />
    <glyph glyph-name="tcaron" unicode="&#x165;" horiz-adv-x="737" 
d="M542 1379q-32 69 -32 107q0 43 33.5 74.5t76.5 31.5q50 0 79.5 -38.5t29.5 -90.5q0 -58 -74 -177q-75 -120 -92 -158q-6 0 -12 2q49 124 -9 249zM195 295v643h-170v10l90 49q161 89 315 301h10v-254h271v-110h-271v-627q0 -85 44 -136.5t128 -51.5q82 0 144 39l8 -11
q-130 -164 -295 -163q-124 0 -200 74q-75 74 -74 237z" />
    <glyph glyph-name="Tbar" unicode="&#x166;" horiz-adv-x="1363" 
d="M979 8v-8h-594v8q102 32 135 88q33 57 33 185v405h-199v88h199v565h-117q-94 0 -113 -9t-32 -12q-14 -4 -29 -20q-19 -19 -25 -24q-13 -12 -67 -79l-44 -55q-51 -65 -52 -67h-8l36 340h1162l36 -340h-10q-45 57 -88 113q-64 83 -79 95q-18 13 -35 27q-18 15 -32 17
q-9 1 -34 8q-23 6 -43 6h-166v-565h197v-88h-197v-405q0 -60 5.5 -98t22 -74.5t50.5 -60.5t88 -40z" />
    <glyph glyph-name="tbar" unicode="&#x167;" horiz-adv-x="749" 
d="M195 295v233h-144v107h144v303h-191v10q139 56 231 135t195 215h10v-254h271v-106h-271v-303h265v-107h-265v-221q0 -85 44 -136.5t128 -51.5q82 0 144 39l8 -11q-130 -164 -295 -163q-124 0 -200 74q-75 74 -74 237z" />
    <glyph glyph-name="Utilde" unicode="&#x168;" horiz-adv-x="1591" 
d="M994 1629q-56 -56 -111 -56t-149 36t-124 36q-85 0 -125 -76l-14 4q19 72 71.5 137.5t117.5 65.5q54 0 146 -33t130 -33q82 0 125 72l12 -4q-24 -94 -79 -149zM1260 391v582q0 292 -69 367q-36 39 -104 65v8h451v-8q-72 -27 -106 -64q-68 -77 -68 -368v-588
q0 -90 -32.5 -162t-86.5 -118.5t-127.5 -77.5t-150 -44t-159.5 -14q-83 0 -161 13t-154.5 44t-133 77.5t-91.5 119t-35 162.5v750q0 124 -32 182q-33 56 -135 88v8h593v-8q-100 -31 -133 -88q-33 -58 -32 -182v-779q0 -130 91 -209t272 -79q81 0 151 18t127.5 55.5t91 101.5
t33.5 148z" />
    <glyph glyph-name="utilde" unicode="&#x169;" horiz-adv-x="1253" 
d="M736 1204q-56 0 -149 36t-124 36q-85 0 -125 -76l-14 4q23 87 79 145q55 58 110 58t146 -33t129 -33q82 0 125 72l13 -4q-18 -74 -70.5 -139.5t-119.5 -65.5zM848 -25h-8v177q-187 -176 -328 -176q-142 0 -227 76q-86 77 -86 257v381q0 135 -29 188q-28 52 -135 91v8
q184 11 401 92h8v-743q0 -94 62 -144q63 -50 154 -49q93 0 174 45v512q0 135 -29 188q-28 52 -135 91v8q184 11 401 92h8v-715q0 -136 29 -188q28 -51 135 -90v-8q-192 -18 -395 -93z" />
    <glyph glyph-name="Umacron" unicode="&#x16a;" horiz-adv-x="1591" 
d="M1028 1720v-108h-512v108h512zM1260 391v582q0 292 -69 367q-36 39 -104 65v8h451v-8q-72 -27 -106 -64q-68 -77 -68 -368v-588q0 -90 -32.5 -162t-86.5 -118.5t-127.5 -77.5t-150 -44t-159.5 -14q-83 0 -161 13t-154.5 44t-133 77.5t-91.5 119t-35 162.5v750
q0 124 -32 182q-33 56 -135 88v8h593v-8q-100 -31 -133 -88q-33 -58 -32 -182v-779q0 -130 91 -209t272 -79q81 0 151 18t127.5 55.5t91 101.5t33.5 148z" />
    <glyph glyph-name="umacron" unicode="&#x16b;" horiz-adv-x="1253" 
d="M883 1352v-109h-512v109h512zM848 -25h-8v177q-187 -176 -328 -176q-142 0 -227 76q-86 77 -86 257v381q0 135 -29 188q-28 52 -135 91v8q184 11 401 92h8v-743q0 -94 62 -144q63 -50 154 -49q93 0 174 45v512q0 135 -29 188q-28 52 -135 91v8q184 11 401 92h8v-715
q0 -136 29 -188q28 -51 135 -90v-8q-192 -18 -395 -93z" />
    <glyph glyph-name="Ubreve" unicode="&#x16c;" horiz-adv-x="1591" 
d="M772 1528q-53 0 -96 23.5t-71 63.5t-46 85t-27 96h9q28 -64 94 -98.5t141 -34.5q72 0 136.5 35t91.5 98h8q-8 -51 -26 -96t-46.5 -85t-71.5 -63.5t-96 -23.5zM1260 391v582q0 292 -69 367q-36 39 -104 65v8h451v-8q-72 -27 -106 -64q-68 -77 -68 -368v-588
q0 -90 -32.5 -162t-86.5 -118.5t-127.5 -77.5t-150 -44t-159.5 -14q-83 0 -161 13t-154.5 44t-133 77.5t-91.5 119t-35 162.5v750q0 124 -32 182q-33 56 -135 88v8h593v-8q-100 -31 -133 -88q-33 -58 -32 -182v-779q0 -130 91 -209t272 -79q81 0 151 18t127.5 55.5t91 101.5
t33.5 148z" />
    <glyph glyph-name="ubreve" unicode="&#x16d;" horiz-adv-x="1253" 
d="M387 1427h8q27 -62 93.5 -97.5t139.5 -35.5q72 0 137.5 35.5t92.5 97.5h8q-8 -50 -25.5 -95t-45.5 -85t-70.5 -64t-94.5 -24q-53 0 -97 23t-72.5 63t-46.5 85t-27 97zM848 -25h-8v177q-187 -176 -328 -176q-142 0 -227 76q-86 77 -86 257v381q0 135 -29 188
q-28 52 -135 91v8q184 11 401 92h8v-743q0 -94 62 -144q63 -50 154 -49q93 0 174 45v512q0 135 -29 188q-28 52 -135 91v8q184 11 401 92h8v-715q0 -136 29 -188q28 -51 135 -90v-8q-192 -18 -395 -93z" />
    <glyph glyph-name="Uring" unicode="&#x16e;" horiz-adv-x="1591" 
d="M897 1735q0 52 -36.5 90.5t-88.5 38.5t-88.5 -38.5t-36.5 -90.5t36.5 -90.5t88.5 -38.5t88.5 38.5t36.5 90.5zM772 1526q-87 0 -149.5 61t-62.5 147q0 87 62.5 148.5t149.5 61.5q86 0 150 -61.5t63 -147.5q0 -87 -62.5 -148t-150.5 -61zM1260 391v582q0 292 -69 367
q-36 39 -104 65v8h451v-8q-72 -27 -106 -64q-68 -77 -68 -368v-588q0 -90 -32.5 -162t-86.5 -118.5t-127.5 -77.5t-150 -44t-159.5 -14q-83 0 -161 13t-154.5 44t-133 77.5t-91.5 119t-35 162.5v750q0 124 -32 182q-33 56 -135 88v8h593v-8q-100 -31 -133 -88
q-33 -58 -32 -182v-779q0 -130 91 -209t272 -79q81 0 151 18t127.5 55.5t91 101.5t33.5 148z" />
    <glyph glyph-name="uring" unicode="&#x16f;" horiz-adv-x="1253" 
d="M752 1366q0 52 -36.5 90.5t-88.5 38.5t-88.5 -38.5t-36.5 -90.5t36.5 -90.5t88.5 -38.5t88.5 38.5t36.5 90.5zM627 1157q-87 0 -150 61t-63 148q0 86 62.5 147t149.5 61q88 0 151 -60.5t63 -147.5t-63 -148t-150 -61zM848 -25h-8v177q-187 -176 -328 -176q-142 0 -227 76
q-86 77 -86 257v381q0 135 -29 188q-28 52 -135 91v8q184 11 401 92h8v-743q0 -94 62 -144q63 -50 154 -49q93 0 174 45v512q0 135 -29 188q-28 52 -135 91v8q184 11 401 92h8v-715q0 -136 29 -188q28 -51 135 -90v-8q-192 -18 -395 -93z" />
    <glyph glyph-name="Uhungarumlaut" unicode="&#x170;" horiz-adv-x="1591" 
d="M799 1532h-19q64 148 68 250h160q-72 -148 -209 -250zM555 1532h-18q62 146 67 250h160q-72 -148 -209 -250zM1260 391v582q0 292 -69 367q-36 39 -104 65v8h451v-8q-72 -27 -106 -64q-68 -77 -68 -368v-588q0 -90 -32.5 -162t-86.5 -118.5t-127.5 -77.5t-150 -44
t-159.5 -14q-83 0 -161 13t-154.5 44t-133 77.5t-91.5 119t-35 162.5v750q0 124 -32 182q-33 56 -135 88v8h593v-8q-100 -31 -133 -88q-33 -58 -32 -182v-779q0 -130 91 -209t272 -79q81 0 151 18t127.5 55.5t91 101.5t33.5 148z" />
    <glyph glyph-name="uhungarumlaut" unicode="&#x171;" horiz-adv-x="1253" 
d="M653 1163h-18q62 146 67 250h160q-72 -148 -209 -250zM410 1163h-19q64 148 68 250h159q-70 -148 -208 -250zM848 -25h-8v177q-187 -176 -328 -176q-142 0 -227 76q-86 77 -86 257v381q0 135 -29 188q-28 52 -135 91v8q184 11 401 92h8v-743q0 -94 62 -144
q63 -50 154 -49q93 0 174 45v512q0 135 -29 188q-28 52 -135 91v8q184 11 401 92h8v-715q0 -136 29 -188q28 -51 135 -90v-8q-192 -18 -395 -93z" />
    <glyph glyph-name="Uogonek" unicode="&#x172;" horiz-adv-x="1591" 
d="M965 -344v-8q-61 -76 -139 -76q-69 0 -113.5 35t-44.5 102q0 118 241 266q-49 -6 -100 -6q-83 0 -161.5 13t-155 44t-133 77t-91.5 119t-35 163v750q0 124 -32 182q-33 56 -135 88v8h593v-8q-100 -31 -133 -88q-33 -58 -32 -182v-779q0 -130 91 -209t272 -79q81 0 151 18
t127.5 55.5t91 101.5t33.5 148v582q0 292 -69 367q-36 39 -104 65v8h451v-8q-72 -27 -106 -64q-68 -77 -68 -368v-588q0 -91 -33 -164t-91 -121.5t-132 -78t-162 -41.5q-113 -141 -112 -248q0 -34 23.5 -58.5t57.5 -26.5q23 0 50 9z" />
    <glyph glyph-name="uogonek" unicode="&#x173;" horiz-adv-x="1253" 
d="M1243 -344v-8q-61 -76 -138 -76q-74 0 -116.5 38.5t-42.5 111.5q0 53 53.5 127t117 130.5t114.5 86.5q-178 -17 -383 -91h-8v177q-187 -176 -328 -176q-142 0 -227 76q-86 77 -86 257v381q0 135 -29 188q-28 52 -135 91v8q184 11 401 92h8v-743q0 -94 62 -144
q63 -50 154 -49q93 0 174 45v512q0 135 -29 188q-28 52 -135 91v8q184 11 401 92h8v-715q0 -136 29 -188q28 -51 135 -90v-8q-44 -52 -87.5 -155t-43.5 -165q0 -50 23.5 -74.5t70.5 -23.5q19 0 37 6z" />
    <glyph glyph-name="Wcircumflex" unicode="&#x174;" horiz-adv-x="2183" 
d="M1147 1796l190 -264h-16l-231 115l-230 -115h-16l186 264h117zM16 1405v8h564v-8q-60 -20 -84.5 -55t-24.5 -98q0 -69 76 -363l188 -735l211 714q66 218 66 320q0 91 -30.5 139t-113.5 78v8h518v-8q-62 -21 -86 -56.5t-24 -103.5q0 -73 51 -258l223 -805l219 688
q74 231 74 328q0 87 -29 132.5t-108 74.5v8h481v-8q-59 -27 -98 -68q-86 -90 -217 -479l-291 -858h-221l-279 995l-307 -995h-244l-243 866q-79 290 -135 396q-55 105 -136 143z" />
    <glyph glyph-name="wcircumflex" unicode="&#x175;" horiz-adv-x="1785" 
d="M948 1427l191 -264h-17l-231 115l-229 -115h-17l186 264h117zM12 1036v8h549v-8q-62 -14 -85.5 -43t-23.5 -93q0 -69 64 -294l119 -432l278 870h82l262 -870l123 361q86 253 86 336q0 75 -28.5 112.5t-100.5 52.5v8h439v-8q-80 -27 -137 -102q-58 -79 -130 -279
l-241 -655h-185l-215 657l-225 -657h-188l-211 655q-66 205 -111 279t-121 102z" />
    <glyph glyph-name="Ycircumflex" unicode="&#x176;" horiz-adv-x="1343" 
d="M727 1796l191 -264h-17l-231 115l-230 -115h-16l186 264h117zM975 8v-8h-594v8q102 32 135 88q33 57 33 185v340l-213 393q-114 207 -178 284q-67 80 -142 107v8h574v-8q-102 -27 -102 -107t102 -278l168 -324l155 324q91 189 91 252q0 60 -28.5 87.5t-92.5 45.5v8h450
v-8q-97 -22 -201 -185q-99 -154 -323 -597v-342q0 -60 5.5 -98t22 -74.5t50.5 -60.5t88 -40z" />
    <glyph glyph-name="ycircumflex" unicode="&#x177;" horiz-adv-x="1159" 
d="M635 1427l190 -264h-16l-231 115l-230 -115h-16l186 264h117zM16 1036v8h531v-10q-61 -17 -86 -45t-25 -89q0 -66 64 -255l162 -491l147 446q57 174 57 279q0 131 -114 155v10h405v-8q-74 -35 -127 -133q-54 -100 -149 -360l-226 -619q-14 -38 -24 -64t-30.5 -73
t-39 -80.5t-46 -73.5t-54.5 -65t-61.5 -42.5t-69.5 -17.5q-87 0 -130 40q-46 40 -46 94q0 57 36 96t92 39q61 0 92.5 -44.5t31.5 -107.5q45 23 84 87q41 68 92 206l30 82h-133l-254 721q-67 186 -101 240q-34 51 -108 75z" />
    <glyph glyph-name="Ydieresis" unicode="&#x178;" horiz-adv-x="1343" 
d="M705 1688q0 52 36 88t88 36q53 0 89 -36t36 -88t-36 -87.5t-88 -35.5t-88.5 35.5t-36.5 87.5zM385 1688q0 52 36.5 88t88.5 36t88.5 -36t36.5 -88q0 -51 -37 -87t-88 -36t-88 36t-37 87zM975 8v-8h-594v8q102 32 135 88q33 57 33 185v340l-213 393q-114 207 -178 284
q-67 80 -142 107v8h574v-8q-102 -27 -102 -107t102 -278l168 -324l155 324q91 189 91 252q0 60 -28.5 87.5t-92.5 45.5v8h450v-8q-97 -22 -201 -185q-99 -154 -323 -597v-342q0 -60 5.5 -98t22 -74.5t50.5 -60.5t88 -40z" />
    <glyph glyph-name="Zacute" unicode="&#x179;" horiz-adv-x="1183" 
d="M408 1542l-11 2q122 136 168 250l217 -12q-119 -167 -374 -240zM1098 0h-1051v8l768 1331h-280q-140 0 -211 -37q-72 -38 -240 -204h-8l41 315h1001v-8l-758 -1331h310q181 0 243 37q64 38 183 194q21 30 32 43h9z" />
    <glyph glyph-name="zacute" unicode="&#x17a;" horiz-adv-x="1030" 
d="M330 1174l-11 2q123 136 168 249l218 -12q-119 -166 -375 -239zM936 0h-873v8l586 965h-246q-30 0 -50.5 -5.5t-33.5 -14t-41 -30.5q-28 -23 -84 -81q-52 -54 -88 -86h-8l41 288h803v-10l-575 -964h288q71 0 117 36t197 185h8z" />
    <glyph glyph-name="Zdotaccent" unicode="&#x17b;" horiz-adv-x="1183" 
d="M453 1681q0 58 39.5 99t97.5 41t98.5 -40.5t40.5 -98.5t-40.5 -98t-98.5 -40t-97.5 39.5t-39.5 97.5zM1098 0h-1051v8l768 1331h-280q-140 0 -211 -37q-72 -38 -240 -204h-8l41 315h1001v-8l-758 -1331h310q181 0 243 37q64 38 183 194q21 30 32 43h9z" />
    <glyph glyph-name="zdotaccent" unicode="&#x17c;" horiz-adv-x="1030" 
d="M375 1313q0 57 40 98t97 41t98 -41t41 -98t-41 -97t-98 -40q-58 0 -97.5 39.5t-39.5 97.5zM936 0h-873v8l586 965h-246q-30 0 -50.5 -5.5t-33.5 -14t-41 -30.5q-28 -23 -84 -81q-52 -54 -88 -86h-8l41 288h803v-10l-575 -964h288q71 0 117 36t197 185h8z" />
    <glyph glyph-name="Zcaron" unicode="&#x17d;" horiz-adv-x="1183" 
d="M838 1796l-191 -264h-117l-186 264h16l230 -115l231 115h17zM1098 0h-1051v8l768 1331h-280q-140 0 -211 -37q-72 -38 -240 -204h-8l41 315h1001v-8l-758 -1331h310q181 0 243 37q64 38 183 194q21 30 32 43h9z" />
    <glyph glyph-name="zcaron" unicode="&#x17e;" horiz-adv-x="1030" 
d="M760 1427l-191 -264h-116l-187 264h17l229 -114l231 114h17zM936 0h-873v8l586 965h-246q-30 0 -50.5 -5.5t-33.5 -14t-41 -30.5q-28 -23 -84 -81q-52 -54 -88 -86h-8l41 288h803v-10l-575 -964h288q71 0 117 36t197 185h8z" />
    <glyph glyph-name="longs" unicode="&#x17f;" horiz-adv-x="665" 
d="M612 8v-8h-555v8q83 31 112 87q28 55 28 184v669h-177l23 96h154v89q-1 194 121 303q121 108 290 108q96 0 162 -51t66 -113q0 -57 -35.5 -98t-91.5 -41q-54 0 -87.5 31t-33.5 84q0 92 86 139q-29 8 -58 8q-87 0 -127 -82q-41 -84 -40 -260v-882q0 -128 31 -184
q32 -55 132 -87z" />
    <glyph glyph-name="uni0180" unicode="&#x180;" horiz-adv-x="1282" 
d="M575 29q160 0 271 133q110 134 110 346q0 213 -98 322q-98 108 -222 108q-125 0 -214 -55v-813q79 -41 153 -41zM170 37v1147h-113v86h109q-8 74 -44.5 110t-113.5 64v8q191 12 406 92h8v-274h311v-86h-311v-275q160 160 346 160t315 -132t129 -355q0 -135 -59.5 -259
t-166.5 -201q-107 -78 -211.5 -112.5t-235.5 -34.5q-86 2 -190.5 18.5t-178.5 43.5z" />
    <glyph glyph-name="uni0181" unicode="&#x181;" horiz-adv-x="1486" 
d="M829 0h-593v8q105 27 139 84q35 58 35 187v806q0 175 -48 227t-165 52q-40 -5 -54 -10v-4q80 -44 80 -136q0 -51 -37 -82.5t-89 -31.5q-54 0 -90 39.5t-36 93.5q0 180 359 180h483q526 0 526 -346q0 -129 -91 -205t-216 -106v-8q71 -5 140 -30.5t127 -67t93.5 -105.5
t34.5 -139q0 -300 -380 -383q-106 -23 -218 -23zM670 1339v-577h110q142 0 222 78.5t80 220.5q0 144 -83.5 211t-230.5 67h-98zM670 690v-616h153q152 0 243 75.5t91 224.5q0 152 -105 234q-104 82 -251 82h-131z" />
    <glyph glyph-name="uni0182" unicode="&#x182;" horiz-adv-x="1269" 
d="M494 721v-653h141q170 0 240 100q71 101 71 230q0 131 -76 226t-252 97h-124zM662 0h-596v8q102 32 135 87q34 56 32 184v854q0 120 -32 180t-135 92v8h1003v-315h-10q-92 165 -162 211q-41 27 -105 28q-90 2 -141 2h-157v-551h170q271 0 407 -93.5t135 -280.5
q0 -91 -31 -163.5t-82 -118.5t-122.5 -76.5t-147.5 -43t-161 -12.5z" />
    <glyph glyph-name="uni0183" unicode="&#x183;" horiz-adv-x="1282" 
d="M575 29q163 0 272 124t109 335q0 212 -97 310q-97 99 -222 99q-126 0 -215 -55v-772q79 -41 153 -41zM170 37v1096q0 48 -3 80t-13 64.5t-28 54t-48 40.5t-74 33v8h993v-305h-8q-91 158 -144 195q-51 36 -186 36h-237v-471q160 160 347 160t315 -123t128 -344
q0 -135 -59 -255.5t-167 -193.5q-202 -137 -447 -137q-86 2 -190.5 18.5t-178.5 43.5z" />
    <glyph glyph-name="uni0184" unicode="&#x184;" horiz-adv-x="1269" 
d="M494 721v-653h141q170 0 240 100q71 101 71 230q0 131 -76 226t-252 97h-124zM662 0h-596v8q102 32 135 87q34 56 32 184v706l-202 199v37l424 221h39v-654h170q271 0 407 -93.5t135 -280.5q0 -91 -31 -163.5t-82 -118.5t-122.5 -76.5t-147.5 -43t-161 -12.5z" />
    <glyph glyph-name="uni0185" unicode="&#x185;" horiz-adv-x="1282" 
d="M575 29q160 0 271 133q110 134 110 346q0 213 -98 322q-98 108 -222 108q-125 0 -214 -55v-813q79 -41 153 -41zM389 1493h33v-584q160 160 346 160t315 -132t129 -355q0 -135 -59.5 -259t-166.5 -201q-107 -78 -211.5 -112.5t-235.5 -34.5q-86 2 -190.5 18.5
t-178.5 43.5v999l-201 199v37z" />
    <glyph glyph-name="uni0186" unicode="&#x186;" horiz-adv-x="1468" 
d="M557 37q236 0 393 184q158 184 158 485q0 302 -150 484t-370 182q-285 0 -438 -311h-9v299q84 36 214 59t229 23q211 0 389.5 -85t295.5 -251q122 -173 122 -399q0 -324 -239 -531q-238 -207 -585 -207q-120 -1 -249 25q-121 25 -195 61l-27 314h8q156 -332 453 -332z
" />
    <glyph glyph-name="uni0187" unicode="&#x187;" horiz-adv-x="1468" 
d="M920 -31q-348 0 -586 198t-238 519q0 248 145 432.5t387 271.5q144 52 294 52q148 0 303 -45q13 170 64 239q50 68 184 68q84 0 151 -50q66 -50 66 -110q0 -55 -35.5 -93t-90.5 -38q-49 0 -84.5 29.5t-35.5 77.5q0 46 23.5 83.5t64.5 55.5q-29 8 -53 8q-82 -1 -108 -64
q-26 -64 -25 -231v-311h-9q-155 311 -438 311q-221 0 -371 -182t-150 -483t159 -485q157 -183 393 -185q296 0 452 332h9q-17 -211 -27 -314q-74 -36 -195 -61q-129 -26 -249 -25z" />
    <glyph glyph-name="uni0188" unicode="&#x188;" horiz-adv-x="954" 
d="M551 -25q-198 1 -338 141q-139 139 -139 390q0 249 164 407q164 156 383 156q55 0 108 -12q0 48 2.5 82t13.5 74t29.5 64.5t53.5 41t84 16.5q97 0 164 -50q66 -50 65 -109q0 -56 -35.5 -94t-90.5 -38q-49 0 -84.5 29.5t-35.5 77.5q0 45 23.5 83t64.5 56q-29 8 -53 8
q-80 -2 -107 -61q-27 -60 -26 -203q121 -55 121 -151q0 -62 -39.5 -105t-100.5 -43q-55 0 -98 33t-43 87q0 46 22 86t60 63q-40 8 -64 8q-74 0 -131 -25t-92.5 -66t-58.5 -98.5t-32 -117.5t-9 -129q0 -214 100 -323q101 -110 250 -110q150 0 260 78q3 -2 5.5 -3.5t4 -2
t2.5 -1.5t2 -1q-168 -238 -405 -238z" />
    <glyph glyph-name="uni0189" unicode="&#x189;" horiz-adv-x="1622" 
d="M494 684v-610h225q259 0 404 184q147 184 147 456q0 271 -152 449q-152 176 -375 176h-249v-567h241v-88h-241zM719 0h-653v8q102 32 135 88q33 58 32 185v403h-143v88h143v363q0 115 -33.5 176t-133.5 94v8h675q342 0 577 -176q234 -176 234 -508q0 -141 -43.5 -260
t-121 -204.5t-182.5 -146t-228 -89.5t-258 -29z" />
    <glyph glyph-name="uni018A" unicode="&#x18a;" horiz-adv-x="1808" 
d="M895 0h-653v8q102 32 135 88q33 57 33 185v804q0 164 -44 223q-43 58 -141 58q-50 0 -82 -12v-4q80 -44 80 -136q0 -51 -37 -82.5t-89 -31.5q-54 0 -90 39.5t-36 93.5q0 51 29.5 88.5t77 56.5t94.5 27t94 8h652q472 0 696 -302q115 -157 115 -372q-1 -343 -235 -541
t-599 -198zM670 1339v-1265h225q259 0 404 184q147 184 147 456q0 271 -152 449q-152 176 -374 176h-250z" />
    <glyph glyph-name="uni018B" unicode="&#x18b;" horiz-adv-x="1269" 
d="M635 68h141v653h-125q-185 0 -262 -110q-65 -94 -65 -223q0 -130 72 -225t239 -95zM1202 8v-8h-604q-535 0 -535 383q1 92 32 163.5t81.5 116t122 73.5t146.5 40.5t161 11.5h170v551h-160q-197 0 -249 -32q-49 -31 -86 -88q-32 -49 -72 -121h-8v315h1001v-8
q-44 -14 -74 -33t-48 -40.5t-28 -54t-13 -64.5t-3 -80v-854q0 -127 32 -183q32 -57 134 -88z" />
    <glyph glyph-name="uni018C" unicode="&#x18c;" horiz-adv-x="1265" 
d="M856 -25h-8v177q-152 -176 -335 -176q-184 0 -315 124q-132 126 -132 326t93 338q88 131 224 197.5t299 66.5q74 0 166 -18v329h-236q-134 -2 -186 -37q-53 -36 -143 -194h-11v305h996v-8q-54 -17 -88 -40.5t-51.5 -59t-23 -74t-5.5 -98.5v-779q0 -136 29 -188
q29 -51 135 -90v-8q-208 -18 -408 -93zM670 133q99 0 178 43v744q-30 23 -79 37t-93 16q-72 0 -132 -25t-102 -68t-71 -100.5t-43 -121t-14 -130.5q0 -194 107 -295q107 -100 249 -100z" />
    <glyph glyph-name="uni018D" unicode="&#x18d;" horiz-adv-x="1243" 
d="M344 549q0 -134 73 -235q76 -105 212 -212q264 109 268 468q0 181 -76 312q-75 132 -201 132t-201 -129t-75 -336zM1167 569q-2 -197 -151 -327q-148 -129 -348 -170l63 -47q83 -66 117 -97q37 -34 73 -88q36 -56 35 -112q0 -59 -34.5 -102.5t-90.5 -65t-110.5 -31.5
t-109.5 -10q-154 0 -271 53t-115 139q0 41 26.5 70t66.5 29q41 0 88.5 -36t85.5 -80q101 -116 208 -116q61 0 107.5 34t46.5 93q0 82 -141 172q-60 39 -145 87q-69 38 -196 118q-80 49 -130.5 94t-101.5 114q-66 92 -66 236q0 248 169 396t385 147q217 0 378 -127
q162 -128 161 -373z" />
    <glyph glyph-name="uni018E" unicode="&#x18e;" horiz-adv-x="1216" 
d="M1145 8v-8h-1036l-41 346h8q111 -141 162 -189q60 -54 122.5 -68.5t167.5 -14.5h189v614h-223q-58 0 -97.5 -14t-67 -41t-61.5 -78h-8v344h8q48 -74 96 -104.5t130 -30.5h223v575h-219q-114 0 -173 -44q-56 -42 -149 -197h-8v315h977v-8q-104 -32 -136 -91t-32 -179v-854
q0 -127 33 -185t135 -88z" />
    <glyph glyph-name="uni018F" unicode="&#x18f;" horiz-adv-x="1488" 
d="M729 41q162 0 279 125q51 55 82.5 147.5t41 175t9.5 170.5l-2 7v8l-779 -27q0 -289 104 -447q103 -157 265 -159zM588 1245q-271 0 -488 -125l-12 10q260 310 612 312q286 0 489 -188q202 -187 202 -513q-2 -160 -49 -297t-147.5 -248.5t-245.5 -175.5q-119 -51 -231 -51
q-224 0 -407 171q-99 92 -146.5 234.5t-47.5 293.5q0 38 4 63h1016q-23 253 -180 383q-158 131 -369 131z" />
    <glyph glyph-name="uni0190" unicode="&#x190;" horiz-adv-x="1273" 
d="M815 782v-67h-125q-167 0 -247 -90q-79 -90 -78 -217q0 -182 105 -278q106 -96 261 -95q198 -1 303 67q104 68 131 158q-49 -51 -111 -51q-64 0 -105.5 36t-41.5 99q0 70 41.5 112t112.5 42q76 0 125 -51.5t49 -127.5q0 -133 -132 -241q-133 -107 -393 -109
q-259 0 -443 110q-183 109 -183 289q0 179 131 280q132 102 303 112v12q-205 52 -289 121q-86 71 -86 192q0 66 25.5 121.5t70 93.5t100 66.5t119.5 44.5t124 23.5t118 7.5q102 0 230.5 -21.5t206.5 -58.5v-297h-9q-168 323 -423 321q-123 0 -205 -76t-82 -218
q0 -143 83 -226.5t226 -83.5h88z" />
    <glyph glyph-name="uni0191" unicode="&#x191;" horiz-adv-x="1169" 
d="M991 881v-351h-8q-50 76 -96.5 107t-128.5 31h-264v-748q0 -196 -125 -304q-124 -108 -301 -108q-85 0 -152 52q-68 53 -68 116q0 59 34 97.5t92 38.5q54 0 89 -31t35 -84q0 -94 -88 -139q27 -7 56 -9q87 0 128 80t39 262v1244q0 124 -32 182q-33 56 -135 88v8h1003v-315
h-10q-99 172 -155 207q-54 34 -222 34h-188v-596h264q85 0 131 30t94 108h8z" />
    <glyph glyph-name="florin" unicode="&#x192;" 
d="M430 -109v748h-201q4 17 12 49.5t11 46.5h178v295q0 196 122 304t296 108q85 0 152 -52q68 -53 67 -116q0 -60 -35 -97.5t-94 -37.5q-53 0 -87 30.5t-34 83.5q0 94 88 140q-40 8 -57 8q-34 0 -61.5 -13.5t-44.5 -33t-29.5 -52t-18.5 -59t-9.5 -66t-4 -62t-0.5 -56.5v-324
h221v-96h-221v-719q0 -196 -122 -304t-296 -108q-85 0 -152 52q-68 53 -67 116q0 59 34 97.5t92 38.5q54 0 89 -31t35 -84q0 -94 -88 -139q27 -8 55 -9q35 0 62 13.5t44.5 33t30.5 51.5t19 59t9.5 66t4 62t0.5 57z" />
    <glyph glyph-name="uni0193" unicode="&#x193;" horiz-adv-x="1587" 
d="M1186 104v326q0 114 -32.5 170t-133.5 88v8h536v-8q-80 -32 -104 -79q-23 -47 -25 -179v-373q-311 -86 -542 -86q-319 0 -554 201q-234 201 -235 526q0 249 150 429.5t399 265.5q144 49 297 49q155 0 328 -43q14 173 63 239t183 66q85 0 152 -50t65 -110q0 -55 -35.5 -93
t-90.5 -38q-49 0 -84.5 29.5t-35.5 77.5q0 46 23.5 83.5t64.5 55.5q-29 8 -53 8q-82 -1 -108 -64q-26 -64 -25 -231v-307h-9q-181 307 -460 307q-226 0 -384 -182q-157 -181 -157 -479q0 -296 161 -474q160 -176 400 -178q129 0 246 45z" />
    <glyph glyph-name="uni0194" unicode="&#x194;" horiz-adv-x="1554" 
d="M743 -154l-43 111q-57 -133 -57 -210t57 -77q56 0 58 90q-1 54 -15 86zM762 -428q-217 0 -217 195q0 105 112 299l-346 882q-139 354 -216 417q-34 28 -87 40v8h580v-8q-60 -17 -82 -48q-53 -74 76 -409l262 -678l225 592q85 226 105 338q18 112 -13 150t-123 55v8h510
v-8q-76 -16 -122 -52q-93 -73 -259 -503l-272 -715l2 -4q85 -225 69 -388q-11 -84 -64.5 -127.5t-139.5 -43.5z" />
    <glyph glyph-name="uni0195" unicode="&#x195;" horiz-adv-x="1929" 
d="M1513 264v502q0 125 -27 182q-28 57 -112 88v8h385v-757q0 -78 -25 -135.5t-64 -90.5t-98.5 -52.5t-117.5 -25.5t-133 -6q-74 0 -133 6t-121 25.5t-103 52.5t-67.5 90.5t-26.5 135.5v438q0 100 -51.5 154.5t-150.5 54.5q-98 0 -213 -64v-591q0 -127 27 -184
q28 -55 114 -87v-8h-533v8q83 31 112 87q28 55 28 184v886q0 136 -29 189q-28 52 -135 90v8q194 12 407 92h9v-641q194 166 342 166q146 0 232 -86q85 -85 85 -270v-422q0 -117 47.5 -175t160.5 -58q106 0 148.5 49t42.5 157z" />
    <glyph glyph-name="uni0196" unicode="&#x196;" horiz-adv-x="620" 
d="M428 -29q-229 0 -229 256v938q0 136 -29 189q-28 52 -135 90v8q186 12 407 92h9v-1304q0 -91 16 -122q17 -32 57 -32q48 0 79 39.5t40 91.5h21q-10 -112 -69 -179.5t-167 -66.5z" />
    <glyph glyph-name="uni0197" unicode="&#x197;" horiz-adv-x="739" 
d="M666 8v-8h-594v8q55 17 89 40t51 58.5t22.5 73t5.5 99.5v405h-191v88h191v363q0 120 -32 179t-136 91v8h594v-8q-100 -31 -134 -88q-34 -55 -32 -182v-363h184v-88h-184v-405q0 -126 32 -184q33 -55 134 -87z" />
    <glyph glyph-name="uni0198" unicode="&#x198;" horiz-adv-x="1515" 
d="M1556 8v-8h-622v8q56 13 82 30q26 16 24 54q0 62 -120 246l-246 369l-180 -191v-237q0 -126 32 -184q33 -56 133 -87v-8h-593v8q102 32 135 87q34 56 32 184v751q0 196 126 304t303 108q85 0 152 -52q68 -53 67 -116q0 -60 -35 -97.5t-94 -37.5q-53 0 -87 30.5t-34 83.5
q0 94 88 140q-40 8 -57 8q-34 0 -61.5 -13.5t-44.5 -33t-29.5 -52t-18.5 -59t-9.5 -66t-4 -62t-0.5 -56.5v-443l405 457q125 140 125 211q0 80 -125 121v8h571v-8q-118 -40 -200 -100q-80 -59 -244 -232l-180 -188l379 -555q114 -168 175 -226q64 -62 156 -96z" />
    <glyph glyph-name="uni0199" unicode="&#x199;" horiz-adv-x="1222" 
d="M1280 8v-8h-219q-147 0 -194 30q-46 30 -154 187l-25 31l-196 293l202 202q98 98 101 164q0 84 -152 123v14h586v-10q-109 -25 -211 -108q-105 -85 -311 -291l303 -404q45 -60 76.5 -96t84 -74t109.5 -53zM590 8v-8h-533v8q85 32 114 87q28 55 28 184v854q0 197 123 305
q120 106 296 106q85 0 152 -52q68 -53 68 -116q0 -58 -34 -96.5t-92 -38.5q-54 0 -89 31t-35 84q0 94 88 139q-40 8 -58 8q-87 0 -128 -80t-39 -262v-882q0 -127 27 -184q29 -56 112 -87z" />
    <glyph glyph-name="uni019A" unicode="&#x19a;" horiz-adv-x="620" 
d="M590 8v-8h-533v8q85 32 114 87q28 55 28 184v405h-150v88h150v393q0 136 -29 189q-28 52 -135 90v8q186 12 407 92h9v-772h133v-88h-133v-405q0 -127 27 -184q29 -56 112 -87z" />
    <glyph glyph-name="uni019B" unicode="&#x19b;" horiz-adv-x="1030" 
d="M1075 80h35v-12q-33 -38 -82 -63q-118 -63 -195 14q-76 76 -121 313q-64 334 -96 448l-297 -659q-23 -48 -47 -121h-290l534 1044l-33 91l-315 -209v86l287 188q-15 29 -56 96q-123 -24 -179 -24q-55 0 -94.5 40t-39.5 95q0 53 43 95q44 42 128 42q85 0 130 -49t115 -209
q3 -7 7 -16.5t6.5 -16t4.5 -10.5l268 178v-86l-243 -161q55 -148 144 -398q105 -298 143 -397q60 -159 94 -211q57 -88 149 -88z" />
    <glyph glyph-name="uni019C" unicode="&#x19c;" horiz-adv-x="1918" 
d="M432 1135v-816q0 -208 190 -208q96 0 226 69q-23 74 -23 160v795q0 125 -27 182q-28 57 -112 88v8h524v-8q-84 -31 -112 -88q-29 -57 -27 -182v-816q0 -104 43 -156.5t129 -51.5q109 0 221 63v961q0 125 -27 182q-28 56 -114 88v8h526v-8q-85 -31 -113 -88
q-28 -56 -28 -182v-781q0 -136 29 -188q29 -51 135 -90v-8q-175 -11 -395 -93h-9v168q-73 -68 -167.5 -116.5t-180.5 -49.5q-201 0 -266 179q-77 -70 -182 -125t-193 -56q-79 -1 -137.5 28.5t-91.5 81.5t-48.5 115.5t-15.5 139.5v795q0 125 -27 182q-28 57 -112 88v8h524v-8
q-83 -32 -111 -88t-28 -182z" />
    <glyph glyph-name="uni019D" unicode="&#x19d;" horiz-adv-x="1644" 
d="M1436 973v-987h-117q-110 131 -484 582q-329 396 -501 603v-1263q0 -201 -60 -300t-211 -100q-84 0 -151 52q-68 53 -68 116q0 59 34 97.5t92 38.5q54 0 89 -31t35 -84q0 -94 -88 -139q148 5 191 121q30 84 30 215v1294q0 83 -56 138t-142 79v8h426l874 -1038v598
q0 230 -33 313q-33 81 -135 119v8h443v-8q-74 -28 -106.5 -68t-46.5 -119q-15 -84 -15 -245z" />
    <glyph glyph-name="uni019E" unicode="&#x19e;" horiz-adv-x="1280" 
d="M1122 713v-1184h-245v1196q1 100 -55 155q-56 54 -152 54q-97 0 -215 -64v-591q0 -127 27 -184q28 -55 114 -87v-8h-526v8q86 32 114 87q29 56 27 184v411q0 135 -29 188q-28 52 -135 91v8q178 11 395 92h9v-170q79 70 177 118.5t189 49.5q134 0 219 -85q86 -86 86 -269z
" />
    <glyph glyph-name="uni019F" unicode="&#x19f;" horiz-adv-x="1716" 
d="M1194 1199q-134 173 -337 173t-337 -173q-132 -171 -149 -433h972q-17 262 -149 433zM858 39q211 -1 348 187q135 186 140 458h-975q5 -272 140 -458q137 -188 347 -187zM86 702q0 151 64.5 289t170.5 236t247.5 156.5t289.5 58.5t289 -58.5t247.5 -156.5t171 -235.5
t64.5 -286.5q0 -234 -134 -414.5t-359 -267.5q-138 -53 -305 -53q-169 0 -344 88q-184 93 -293 266.5t-109 377.5z" />
    <glyph glyph-name="Ohorn" unicode="&#x1a0;" horiz-adv-x="1716" 
d="M858 39q214 1 351 195t137 473q0 280 -136 473q-136 192 -352 192q-217 0 -352 -194t-135 -471q0 -279 136 -473q137 -195 351 -195zM1630 705q0 -234 -134 -414.5t-359 -267.5q-138 -53 -305 -53q-169 0 -344 88q-183 93 -292.5 267t-109.5 377q0 151 64.5 289
t170.5 236t247.5 156.5t289.5 58.5q85 0 232 -16q140 -15 213 -17q16 0 36.5 2t46.5 7.5t43 18t17 29.5q0 25 -46 62t-46 86q0 51 32.5 81.5t83.5 30.5q52 0 98 -37t46 -110q0 -225 -314 -225q-46 0 -102 6v-4q195 -97 313.5 -269t118.5 -382z" />
    <glyph glyph-name="ohorn" unicode="&#x1a1;" horiz-adv-x="1245" 
d="M621 -25q-113 0 -214.5 43t-174.5 116.5t-115.5 175.5t-42.5 215q0 229 164 387q163 157 383 157q65 0 189 -14q120 -14 175 -15q123 0 123 50q0 26 -46 62t-46 85q0 50 33.5 81.5t83.5 31.5t97 -38q46 -37 46 -110q0 -221 -266 -221q-46 0 -101 6q122 -74 191.5 -198
t68.5 -265q1 -112 -42 -214t-116.5 -175.5t-175.5 -116.5t-214 -43zM897 522q0 58 -6.5 118t-25.5 129t-48.5 122t-80.5 88t-116 35q-55 0 -99.5 -24t-73 -66t-49.5 -91.5t-32 -107.5t-15.5 -107t-4.5 -96q0 -65 6 -125.5t25 -130t49 -120t83.5 -84t123.5 -33.5
q86 -1 151 77q114 137 113 416z" />
    <glyph glyph-name="uni01A2" unicode="&#x1a2;" horiz-adv-x="2013" 
d="M838 1370q-212 0 -340 -188q-127 -187 -127 -482t138 -479t357 -184q170 0 264 63v1231q-174 39 -292 39zM1978 -426v-8h-551v8q98 35 127 91.5t29 170.5v1317q0 178 -98 178h-113v-1268q-179 -61 -291 -76q-106 -14 -290 -16q-297 0 -505 207t-208 511q0 306 217 529
q218 224 526 224q85 0 263 -27q176 -26 232 -26q297 0 484 53h41v-1606q0 -55 4 -88.5t17 -69t41.5 -60.5t74.5 -44z" />
    <glyph glyph-name="uni01A3" unicode="&#x1a3;" horiz-adv-x="1654" 
d="M1630 -432v-8h-532v8q94 34 123 89q29 56 28 173v987q0 115 -80 115h-59v-447q0 -245 -150 -377t-365 -132q-216 0 -372 150q-155 152 -155 402q0 251 157 396t377 145q68 0 264 -43t262 -43q74 0 178 25t160 61h39v-1239q0 -122 24 -174q24 -53 101 -88zM858 483v471
q-112 58 -256 60q-52 0 -94 -24.5t-69 -67.5t-45.5 -92.5t-28 -107.5t-13.5 -104.5t-4 -91.5q0 -57 4 -113t20 -129t41 -126.5t72.5 -91t110.5 -37.5q121 -1 192 121q70 121 70 333z" />
    <glyph glyph-name="uni01A4" unicode="&#x1a4;" horiz-adv-x="1454" 
d="M670 1343v-651h145q162 0 236 102q73 101 73 235q0 132 -70 223t-223 91h-161zM868 8v-8h-626v8q102 32 135 88q33 57 33 185v804q0 175 -48 227t-165 52q-40 -5 -54 -10v-4q80 -44 80 -136q0 -51 -37 -82.5t-89 -31.5q-54 0 -90 39.5t-36 93.5q0 180 353 180h555
q251 0 376.5 -94.5t124.5 -282.5q0 -90 -28 -161.5t-76 -118t-115 -77t-141.5 -43.5t-159.5 -13h-190v-342q0 -123 41 -182t157 -91z" />
    <glyph glyph-name="uni01A5" unicode="&#x1a5;" horiz-adv-x="1300" 
d="M588 27q159 0 272 134q112 133 111 339q2 206 -99 323q-100 117 -241 117q-106 0 -195 -59v-813q74 -41 152 -41zM600 -463v-8h-557v8q86 32 114 88q29 57 27 182v1326q0 197 123 305q119 106 297 106q85 0 152 -52q68 -53 68 -116q0 -58 -35 -96.5t-92 -38.5
q-54 0 -89 31t-35 84q0 94 89 139q-40 8 -58 8q-34 0 -61.5 -13.5t-44.5 -33t-29.5 -52t-18.5 -59t-9.5 -66t-4 -62t-0.5 -56.5v-250q158 158 350 158t316 -138q125 -139 125 -356q2 -203 -117 -349t-320 -214q-108 -37 -194 -37q-80 0 -160 11v-179q0 -127 32 -183t132 -87
z" />
    <glyph glyph-name="uni01A6" unicode="&#x1a6;" horiz-adv-x="1366" 
d="M494 1098v-598h79q373 0 373 305q0 128 -74 210.5t-200 82.5h-178zM1470 -311v-8h-161q-132 0 -189 11q-53 10 -92 46q-38 34 -96 135l-336 563h-102v-155q0 -126 32 -185q33 -57 133 -88v-8h-593v8q102 32 135 88q33 58 32 185v852q0 120 -32 180t-135 92v8h593v-8
q-95 -32 -128.5 -83t-36.5 -155h192q68 0 125 -5t119.5 -17.5t110 -37.5t87.5 -62t61 -94.5t21 -131.5q0 -241 -374 -336q20 -28 170 -256q140 -211 219 -327q80 -116 124 -154q43 -37 121 -57z" />
    <glyph glyph-name="uni01A7" unicode="&#x1a7;" horiz-adv-x="1071" 
d="M977 412h8v-355q-161 -88 -384 -88t-357 115q-135 116 -135 287q0 114 65 210.5t170 166.5q83 56 196 124q236 142 236 292q0 90 -65.5 149t-157.5 59q-208 0 -371 -313h-8v299q198 84 368 84t308 -108q137 -108 139 -273q-1 -108 -66.5 -200t-167.5 -161
q-87 -59 -195 -127q-236 -149 -234 -303q0 -102 73 -166.5t176 -64.5q224 0 402 373z" />
    <glyph glyph-name="uni01A8" unicode="&#x1a8;" horiz-adv-x="868" 
d="M801 340l-4 -291q-151 -74 -325 -74q-77 0 -146.5 19.5t-126.5 58t-90.5 102t-32.5 144.5q0 96 52 174t140 123q87 44 160 76q29 13 51.5 24t50.5 30t46 38.5t31 46t13 55.5q0 68 -48 109t-117 41q-140 0 -297 -262h-11v258q145 57 291 57q93 0 173 -35t131.5 -106.5
t52.5 -165.5q0 -78 -37 -147.5t-102 -110.5q-117 -74 -257 -135q-139 -63 -139 -181q0 -73 57 -117t132 -44q170 0 344 313h8z" />
    <glyph glyph-name="uni01A9" unicode="&#x1a9;" 
d="M1036 0h-1013v8l561 633l-559 762v10h1032v-289h-8q-77 140 -133 178q-53 37 -166 37h-383l426 -565v-14l-519 -582h467q105 0 163 35q57 35 179 180h9z" />
    <glyph glyph-name="uni01AA" unicode="&#x1aa;" horiz-adv-x="966" 
d="M317 -80v1286q-51 -43 -127 -43q-77 0 -131.5 56.5t-54.5 134.5q0 85 58 137.5t143 52.5q145 0 255 -99q110 -100 109 -261v-1293q0 -34 0.5 -56.5t4 -62t9.5 -66t18.5 -59t29.5 -52t44.5 -33t61.5 -13.5q29 0 56 9q-88 45 -88 139q0 54 34 84.5t89 30.5q52 0 90 -36
q37 -36 36 -100q0 -64 -68 -115q-66 -51 -151 -53q-175 0 -296 108q-122 108 -122 304zM317 1354q0 52 -34.5 87.5t-86.5 35.5q-51 0 -86.5 -35.5t-35.5 -86.5q0 -50 36 -86t86 -36q51 0 86 35t35 86z" />
    <glyph glyph-name="uni01AB" unicode="&#x1ab;" horiz-adv-x="737" 
d="M557 -145v141q-57 -12 -88 -12q-124 0 -200 74q-75 74 -74 237v643h-170v10l90 49q161 89 315 301h10v-254h271v-110h-271v-627q0 -79 42 -133.5t118 -54.5q70 0 160 33v-191q0 -453 -336 -453q-85 0 -152 52q-68 53 -68 116q0 58 35 97t92 39q54 0 89 -31t35 -84
q0 -94 -88 -139q27 -8 55 -9q42 0 71.5 35t42 90t17 98t4.5 83z" />
    <glyph glyph-name="uni01AC" unicode="&#x1ac;" horiz-adv-x="1363" 
d="M979 8v-8h-594v8q102 32 135 88q33 57 33 185v1058h-246q-103 0 -151 -22v-6q41 -22 64.5 -62.5t23.5 -87.5q0 -52 -37 -83.5t-89 -31.5q-55 0 -89.5 39t-34.5 95q0 54 21 96.5t54.5 67.5t80 41t91.5 22t95 6h928l36 -340h-10q-157 200 -203 232q-48 34 -182 34h-92
v-1058q0 -60 5.5 -98t22 -74.5t50.5 -60.5t88 -40z" />
    <glyph glyph-name="uni01AD" unicode="&#x1ad;" horiz-adv-x="737" 
d="M195 295v643h-170v10q96 50 157 101v92q0 197 123 300q122 103 299 103q85 0 152 -52q68 -53 68 -116q0 -58 -35 -96.5t-92 -38.5q-54 0 -89 31t-35 84q0 94 89 139q-40 8 -58 8q-34 0 -60.5 -14t-43.5 -33.5t-29 -53t-18 -59.5t-9 -66.5t-3.5 -61.5t-0.5 -56v-115h271
v-110h-271v-627q0 -88 44.5 -137t131.5 -49t140 37l8 -11q-130 -164 -295 -163q-124 0 -200 74q-75 74 -74 237z" />
    <glyph glyph-name="uni01AE" unicode="&#x1ae;" horiz-adv-x="1363" 
d="M553 -80v1419h-147q-87 0 -136 -40q-53 -44 -118 -127q-68 -87 -78 -99h-8l36 340h1162l36 -340h-10q-140 180 -190 222q-52 44 -142 44h-145v-1448q0 -34 0.5 -56.5t4 -62t9.5 -66t18.5 -59t29.5 -52t44.5 -33t61.5 -13.5q29 0 55 9q-88 45 -88 139q0 53 35 84t89 31
q58 0 92 -38.5t34 -97.5q0 -64 -68 -115q-66 -51 -151 -53q-176 0 -301 108t-125 304z" />
    <glyph glyph-name="Uhorn" unicode="&#x1af;" horiz-adv-x="1576" 
d="M1364 973v-588q0 -90 -32.5 -162t-86.5 -118.5t-127.5 -77.5t-150 -44t-159.5 -14q-83 0 -161 13t-154.5 44t-133 77.5t-91.5 119t-35 162.5v750q0 124 -32 182q-33 56 -135 88v8h593v-8q-100 -31 -133 -88q-33 -58 -32 -182v-779q0 -130 91 -209t272 -79q81 0 151 18
t127.5 55.5t91 101.5t33.5 148v582q0 292 -69 367q-36 39 -104 65v8h396q102 0 102 45q0 24 -25 40q-38 25 -58 50.5t-20 63.5q0 48 34 78t82 30q50 0 94 -38q43 -37 45 -109q0 -213 -260 -213l-29 2q-48 -39 -66 -125q-18 -85 -18 -264z" />
    <glyph glyph-name="uhorn" unicode="&#x1b0;" horiz-adv-x="1253" 
d="M848 -25h-8v177q-187 -176 -326 -176q-140 0 -228 76q-87 76 -87 257v381q0 135 -29 188q-28 52 -135 91v8q184 11 401 92h8v-743q0 -94 62 -144q63 -50 154 -49q93 0 174 45v512q0 135 -29 188q-28 52 -135 91v8q497 20 495 121q0 26 -46 60t-46 83q0 50 33.5 81.5
t83.5 31.5t97 -38q46 -37 46 -110q0 -197 -254 -217v-635q0 -136 29 -188q28 -51 135 -90v-8q-192 -18 -395 -93z" />
    <glyph glyph-name="uni01B1" unicode="&#x1b1;" horiz-adv-x="1683" 
d="M995 1405v8h537l41 -323h-8q-63 80 -89 104q-31 30 -64.5 38.5t-86.5 8.5h-156q45 -67 129 -159l144 -156q153 -171 153 -373q1 -121 -77 -238t-189 -187q-111 -71 -239 -114t-248 -43q-114 0 -244 42q-299 98 -434 306q-76 116 -76 233q0 102 41 198.5t113 175.5
q49 55 143 156q84 90 129 159h-156q-52 0 -86.5 -9t-63.5 -38q-32 -32 -89 -104h-8l41 323h536v-8q-133 -187 -226 -409t-93 -440q0 -139 57 -255.5t166.5 -187.5t249.5 -72q141 0 250 71.5t166 188t57 255.5q0 212 -88.5 430.5t-231.5 418.5z" />
    <glyph glyph-name="uni01B2" unicode="&#x1b2;" horiz-adv-x="1529" 
d="M221 391v750q0 115 -28.5 170.5t-126.5 91.5v10h587v-10q-101 -39 -136.5 -95t-35.5 -167v-770q0 -130 85 -215q86 -86 251 -86q269 0 366 225q97 224 97 770q0 52 -9 99t-29.5 92t-60.5 72t-94 28q33 -97 -27 -151q-37 -34 -90 -34q-55 0 -91.5 36.5t-36.5 92.5
q0 58 63 100t170 42q303 0 303 -400q0 -86 -1.5 -149t-6.5 -157.5t-17.5 -170t-31.5 -157t-51.5 -150.5t-74.5 -121q-137 -168 -411 -168q-563 0 -563 422z" />
    <glyph glyph-name="uni01B3" unicode="&#x1b3;" horiz-adv-x="1515" 
d="M1147 8v-8h-594v8q54 17 88 40.5t50.5 60t22 74.5t5.5 98v340l-219 405q-97 181 -160 253q-62 71 -141 95v-4q31 -44 31 -92q0 -47 -33 -81t-80 -34q-52 0 -90.5 40t-38.5 92q0 55 66 102q68 45 161 45q94 0 153 -12t126 -54q34 -21 67 -53.5t57.5 -64.5t52.5 -77
t44.5 -75.5t40.5 -75.5l172 -334l155 324q88 183 91 266q0 53 -31.5 78.5t-89.5 40.5v8h452v-8q-77 -18 -147 -102q-69 -82 -176 -289l-203 -391v-342q0 -127 33 -185t135 -88z" />
    <glyph glyph-name="uni01B4" unicode="&#x1b4;" horiz-adv-x="1331" 
d="M16 1036v8h531v-10q-60 -17 -85.5 -43.5t-25.5 -84.5q0 -59 49 -206l177 -546l135 399q103 309 184 413q79 101 221 103q63 0 113.5 -42.5t50.5 -104.5q0 -59 -42 -103.5t-100 -44.5t-101.5 41.5t-49.5 99.5q-26 -21 -49 -51q-50 -67 -145 -325l-240 -660
q-135 -371 -307 -371q-89 0 -132 40q-46 40 -46 96q0 50 31 91.5t79 41.5q76 0 76 -58q31 -5 47.5 -32t18.5 -62q45 23 84 87q41 68 92 206l30 82h-133l-207 584q-59 158 -84 230q-49 142 -94 183q-20 19 -78 39z" />
    <glyph glyph-name="uni01B5" unicode="&#x1b5;" horiz-adv-x="1183" 
d="M1098 0h-1051v8l389 676h-387v88h438l328 567h-280q-140 0 -211 -37q-72 -38 -240 -204h-8l41 315h1001v-8l-360 -633h385v-88h-436l-347 -610h310q181 0 243 37q64 38 183 194q21 30 32 43h9z" />
    <glyph glyph-name="uni01B6" unicode="&#x1b6;" horiz-adv-x="1030" 
d="M936 0h-873v8l297 492h-311v88h365l235 385h-246q-30 0 -50.5 -5.5t-33.5 -14t-41 -30.5q-28 -23 -84 -81q-52 -54 -88 -86h-8l41 288h803v-10l-266 -446h274v-88h-327l-256 -430h288q71 0 117 36t197 185h8z" />
    <glyph glyph-name="uni01B7" unicode="&#x1b7;" horiz-adv-x="1120" 
d="M674 1200h-557v213h809v-8l-357 -477q174 -28 311 -155q136 -126 136 -298q0 -114 -53.5 -211t-140 -160t-193 -98.5t-215.5 -36.5q-161 0 -261 70q-101 71 -102 176q0 65 46 107.5t111 42.5q62 0 107 -40.5t45 -102.5q0 -57 -32 -100.5t-86 -64.5q62 -31 141 -30
q161 0 266 98.5t105 258.5q0 165 -127 253t-291 88l-6 10z" />
    <glyph glyph-name="uni01B8" unicode="&#x1b8;" horiz-adv-x="1120" 
d="M481 637q-127 -88 -127 -253t109 -261q110 -96 262 -96q79 0 141 30q-53 18 -85.5 63t-32.5 101q0 61 44.5 101.5t107.5 42.5q66 0 111.5 -42.5t45.5 -107.5q1 -105 -101 -176q-101 -70 -262 -70q-86 0 -171.5 19.5t-163 60.5t-137 97.5t-95 136.5t-35.5 172
q0 116 64.5 220t166 169.5t216.5 83.5l-357 477v8h809v-213h-557l344 -465l-6 -10q-164 0 -291 -88z" />
    <glyph glyph-name="uni01B9" unicode="&#x1b9;" horiz-adv-x="1021" 
d="M448 268q-126 -88 -126 -254q0 -163 103.5 -259.5t268.5 -96.5q77 0 142 31q-54 20 -86.5 64t-32.5 100q0 62 44 102.5t107 40.5q66 0 112 -42.5t46 -107.5q0 -106 -102 -176q-100 -69 -262 -69q-241 0 -419 144q-179 144 -180 361q1 116 66 215t165 159.5t214 78.5
l-356 477v8h809v-213h-558l345 -464l-9 -11q-166 0 -291 -88z" />
    <glyph glyph-name="uni01BA" unicode="&#x1ba;" horiz-adv-x="1005" 
d="M463 -434q-109 0 -200.5 39.5t-150.5 122t-59 193.5q-1 75 22.5 132.5t61 94t95 61.5t114 37t129.5 20q34 4 65 13t61.5 25t48.5 43t18 63q0 84 -77 114q-76 29 -276 29v41l297 289h-534v161h846v-43l-381 -387q179 -16 255 -63q76 -46 76 -141q0 -94 -84 -141
q-83 -46 -307 -70q-96 -10 -159.5 -70t-63.5 -153q0 -92 72 -156q71 -64 192 -64q125 0 222 66.5t147 183.5h14q-21 -186 -141.5 -313t-302.5 -127z" />
    <glyph glyph-name="uni01BB" unicode="&#x1bb;" 
d="M1004 0h-887v53l418 514q45 54 86 117h-572v88h625q80 149 80 274q0 123 -79 211t-200 89q-159 0 -256 -109q10 2 25 2q68 0 121 -43.5t53 -109.5t-41 -112t-107 -46q-70 0 -111.5 52t-43.5 124q0 118 134 228q136 110 329 110q88 0 165 -22.5t138.5 -65.5t97 -114.5
t35.5 -162.5q0 -125 -156 -305h285v-88h-367q-19 -21 -131 -133q-102 -102 -164 -176l-145 -170h682q-7 -78 -14 -205z" />
    <glyph glyph-name="uni01BC" unicode="&#x1bc;" 
d="M461 707h-260v428q0 120 -32 179t-136 91v8h915v-213h-672v-418q156 49 324 49q165 1 298 -107q132 -108 132 -290q0 -111 -52 -207t-146 -151q-179 -107 -359 -107q-179 0 -277 65q-96 64 -98 169q0 66 45 110.5t111 44.5q65 0 108 -40.5t44 -104.5q0 -109 -111 -164
q75 -27 133 -26q154 0 249 107t95 263q0 158 -89 236t-222 78z" />
    <glyph glyph-name="uni01BD" unicode="&#x1bd;" horiz-adv-x="1009" 
d="M838 1044v-208h-592v-271q106 51 282 51q58 0 112 -10.5t104 -33.5t86.5 -57t58.5 -85.5t22 -113.5q0 -134 -83 -214q-44 -42 -95 -69.5t-110 -40.5t-110 -17.5t-121 -5.5q-141 -1 -239 59q-96 59 -98 158q0 60 40.5 100t100.5 40q61 0 102.5 -39t41.5 -99
q0 -92 -102 -143q51 -25 160 -25q108 0 188 60t80 185q0 118 -69.5 175.5t-190.5 59.5h-240v266q0 60 -5.5 97.5t-22.5 73t-50.5 59t-87.5 40.5v8h838z" />
    <glyph glyph-name="uni01BE" unicode="&#x1be;" horiz-adv-x="968" 
d="M539 27q79 0 133.5 46.5t54.5 124.5t-55 127q-56 50 -133 84q-52 23 -156 73q-87 42 -137.5 114.5t-50.5 165.5v176h-170v10q239 118 405 350h10v-254h271v-110h-271v-74q0 -106 166 -188q52 -25 140 -76q79 -45 122 -124.5t43 -172.5q0 -81 -33.5 -144.5t-89.5 -102
t-125.5 -58t-147.5 -19.5q-174 0 -322 74l-7 291h11q174 -313 342 -313z" />
    <glyph glyph-name="uni01BF" unicode="&#x1bf;" horiz-adv-x="1228" 
d="M930 639q0 276 -228 276q-64 -2 -133.5 -26t-117.5 -64v-841q203 68 341 234q138 167 138 421zM201 -199v897q0 135 -28 184q-29 50 -128 87v8q198 19 352 74l54 18v-207q60 82 173.5 144.5t211.5 62.5q179 0 263.5 -108.5t84.5 -292.5q0 -199 -125 -345
q-63 -75 -125 -131q-123 -111 -483 -274v-278l-400 -115v12q89 40 119.5 99.5t30.5 164.5z" />
    <glyph glyph-name="clickdental" unicode="&#x1c0;" horiz-adv-x="409" 
d="M248 1544v-1780h-78v1780h78z" />
    <glyph glyph-name="clicklateral" unicode="&#x1c1;" horiz-adv-x="819" 
d="M248 1544v-1780h-78v1780h78zM657 1544v-1780h-77v1780h77z" />
    <glyph glyph-name="uni01C2" unicode="&#x1c2;" horiz-adv-x="571" 
d="M340 467v-467h-109v467h-211v111h211v196h-211v109h211v503h109v-503h213v-109h-213v-196h213v-111h-213z" />
    <glyph glyph-name="uni01C3" unicode="&#x1c3;" horiz-adv-x="530" 
d="M265 -25q-61 0 -103.5 42t-42.5 103t42.5 103.5t103.5 42.5q60 0 103.5 -43t43.5 -103q0 -61 -43 -103t-104 -42zM180 892q-63 324 -63 398q0 67 40 109.5t107 42.5t107.5 -42.5t40.5 -109.5q0 -74 -63 -398q-64 -330 -77 -501h-14q-14 175 -78 501z" />
    <glyph glyph-name="uni01C4" unicode="&#x1c4;" horiz-adv-x="2646" 
d="M2302 1788l-191 -264h-116l-187 264h17l229 -115l232 115h16zM2560 0h-1051v8l768 1331h-280q-140 0 -211 -37q-72 -38 -240 -204h-8l41 315h1001v-8l-757 -1331h309q180 0 244 37q65 39 182 194q22 32 33 43h8zM494 1339v-1265h225q259 0 404 184q147 184 147 456
q0 271 -152 449q-152 176 -375 176h-249zM719 0h-653v8q102 32 135 88q33 58 32 185v854q0 124 -32 182q-33 56 -135 88v8h675q342 0 577 -176q234 -176 234 -508q0 -141 -43.5 -260t-121 -204.5t-182.5 -146t-228 -89.5t-258 -29z" />
    <glyph glyph-name="uni01C5" unicode="&#x1c5;" horiz-adv-x="2553" 
d="M2275 1427l-190 -264h-117l-186 264h16l230 -114l231 114h16zM2460 0h-873v8l586 965h-246q-42 0 -67 -11t-60 -40q-28 -24 -84 -81q-59 -60 -86 -85h-8l41 288h803v-10l-576 -964h289q71 0 117 36q49 38 196 185h9zM494 1339v-1265h225q259 0 404 184q147 184 147 456
q0 271 -152 449q-152 176 -375 176h-249zM719 0h-653v8q102 32 135 88q33 58 32 185v854q0 124 -32 182q-33 56 -135 88v8h675q342 0 577 -176q234 -176 234 -508q0 -141 -43.5 -260t-121 -204.5t-182.5 -146t-228 -89.5t-258 -29z" />
    <glyph glyph-name="uni01C6" unicode="&#x1c6;" horiz-adv-x="2226" 
d="M1950 1436l-191 -265h-117l-186 265h17l229 -115l231 115h17zM2132 0h-872v8l585 965h-246q-30 0 -50.5 -5.5t-33.5 -14t-41 -30.5q-28 -23 -84 -81q-44 -45 -87 -86h-9l41 288h803v-10l-575 -964h288q71 0 117 36t197 185h8zM856 -25h-8v177q-144 -176 -328 -176
q-183 0 -319 134q-135 133 -135 353q0 273 186 440q185 166 430 166q74 0 166 -18v114q0 137 -31 189t-147 90v8q95 6 213.5 32t208.5 60h8v-1190q0 -136 29 -188q29 -51 135 -90v-8q-208 -18 -408 -93zM670 133q99 0 178 43v785q-30 23 -79 37t-93 16q-158 0 -260 -134
t-102 -331t108 -307q110 -110 248 -109z" />
    <glyph glyph-name="uni01C7" unicode="&#x1c7;" horiz-adv-x="1720" 
d="M1077 0h-1011v8q102 32 135 87q34 56 32 184v856q0 124 -32 182q-33 56 -135 88v8h593v-8q-100 -31 -133 -88q-33 -58 -32 -182v-1061h188q82 0 111 4q46 6 96.5 39t85.5 73q61 69 133 156h10zM1225 -18v1153q0 120 -32 179t-136 91v8h594v-8q-54 -17 -87.5 -40.5
t-50.5 -59t-22.5 -73t-5.5 -97.5v-1053q0 -221 -160 -348q-126 -100 -272 -162l-4 6q176 113 176 404z" />
    <glyph glyph-name="uni01C8" unicode="&#x1c8;" horiz-adv-x="1642" 
d="M1210 -72v762q0 137 -28 189q-28 51 -135 90v8q192 12 405 92h8v-1038q0 -107 -39 -203.5t-115 -163.5q-124 -107 -253 -156l-6 11q85 53 124 170t39 239zM1473 1321q0 -57 -41 -97t-98 -40q-58 0 -98 39.5t-40 97.5q0 57 40 98t97 41q56 0 99 -41t41 -98zM1077 0h-1011
v8q102 32 135 87q34 56 32 184v856q0 124 -32 182q-33 56 -135 88v8h593v-8q-100 -31 -133 -88q-33 -58 -32 -182v-1061h188q82 0 111 4q46 6 96.5 39t85.5 73q61 69 133 156h10z" />
    <glyph glyph-name="uni01C9" unicode="&#x1c9;" horiz-adv-x="1206" 
d="M590 8v-8h-533v8q85 32 114 87q28 55 28 184v886q0 136 -29 189q-28 52 -135 90v8q186 12 407 92h9v-1265q0 -127 27 -184q29 -56 112 -87zM774 -72v762q0 135 -29 188q-28 52 -135 91v8q191 12 406 92h8v-1038q0 -232 -155 -367q-124 -107 -253 -156l-6 11
q85 54 124.5 170.5t39.5 238.5zM1036 1321q0 -57 -41 -97t-98 -40q-58 0 -97.5 39.5t-39.5 97.5q0 57 40 98t97 41t98 -41t41 -98z" />
    <glyph glyph-name="uni01CA" unicode="&#x1ca;" horiz-adv-x="2312" 
d="M1436 973v-987h-117q-110 131 -484 582q-329 396 -501 603v-729q0 -295 64 -369q34 -40 104 -65v-8h-443v8q74 27 106 67.5t47 119.5q15 84 15 247v746q0 66 -48 127t-150 90v8h426l874 -1038v598q0 230 -33 313q-33 81 -135 119v8h443v-8q-74 -28 -106.5 -68t-46.5 -119
q-15 -84 -15 -245zM1817 -16v1153q0 120 -32 179t-136 91v8h594v-8q-99 -31 -133 -88q-35 -57 -33 -182v-1053q0 -221 -160 -348q-126 -100 -272 -162l-5 6q175 112 177 404z" />
    <glyph glyph-name="uni01CB" unicode="&#x1cb;" horiz-adv-x="2156" 
d="M1724 -72v762q0 137 -28 189q-28 51 -135 90v8q192 12 405 92h8v-1038q0 -107 -39 -203.5t-115 -163.5q-124 -107 -253 -156l-6 11q85 53 124 170t39 239zM1987 1321q0 -57 -41 -97t-98 -40q-58 0 -98 39.5t-40 97.5q0 57 40 98t97 41q56 0 99 -41t41 -98zM1436 973v-987
h-117q-110 131 -484 582q-329 396 -501 603v-729q0 -295 64 -369q34 -40 104 -65v-8h-443v8q74 27 106 67.5t47 119.5q15 84 15 247v746q0 66 -48 127t-150 90v8h426l874 -1038v598q0 230 -33 313q-33 81 -135 119v8h443v-8q-74 -28 -106.5 -68t-46.5 -119q-15 -84 -15 -245
z" />
    <glyph glyph-name="uni01CC" unicode="&#x1cc;" horiz-adv-x="1804" 
d="M1262 8v-8h-525v8q83 31 112 87q28 55 28 184v446q1 100 -55 155q-56 54 -152 54q-97 0 -215 -64v-591q0 -127 27 -184q28 -55 114 -87v-8h-526v8q86 32 114 87q29 56 27 184v411q0 135 -29 188q-28 52 -135 91v8q178 11 395 92h9v-170q79 70 177 118.5t189 49.5
q134 0 219 -85q86 -86 86 -269v-434q0 -45 2 -73t9.5 -62t22 -56.5t41 -43.5t65.5 -36zM1372 -72v762q0 135 -29 188q-28 52 -135 91v8q191 12 406 92h8v-1038q0 -232 -155 -367q-124 -107 -253 -156l-6 11q85 54 124.5 170.5t39.5 238.5zM1634 1321q0 -57 -41 -97t-98 -40
q-58 0 -97.5 39.5t-39.5 97.5q0 57 40 98t97 41t98 -41t41 -98z" />
    <glyph glyph-name="uni01CD" unicode="&#x1cd;" horiz-adv-x="1482" 
d="M1006 1796l-191 -264h-117l-186 264h16l230 -115l231 115h17zM444 582h465l-235 684zM1477 8v-8h-564v8q66 15 92.5 45.5t26.5 96.5q0 70 -96 354h-518q-84 -258 -84 -334q0 -73 31 -108t104 -54v-8h-463v8q92 38 150 132q58 96 170 413l305 860h246l358 -1024
q66 -187 119 -269q51 -79 123 -112z" />
    <glyph glyph-name="uni01CE" unicode="&#x1ce;" horiz-adv-x="1071" 
d="M768 1440l-190 -264h-117l-187 264h17l229 -115l232 115h16zM649 584v125q1 127 -65 207t-174 81q-109 0 -183 -55q53 -10 88 -44.5t35 -85.5t-36 -84.5t-87 -33.5t-88 35.5t-37 85.5q0 98 140 176q139 78 304 78q164 0 256.5 -82t92.5 -244v-485q0 -106 39 -146.5
t145 -48.5v-8q-48 -29 -126.5 -50.5t-133.5 -21.5q-70 0 -114.5 32.5t-53.5 99.5q-159 -138 -313 -140q-114 0 -190.5 68t-75.5 180q0 133 141 233q139 99 436 128zM588 528q-108 0 -188.5 -60t-80.5 -164q2 -103 59 -150q59 -50 136 -50t135 35v383q-32 6 -61 6z" />
    <glyph glyph-name="uni01CF" unicode="&#x1cf;" horiz-adv-x="739" 
d="M616 1796l-190 -264h-117l-186 264h16l230 -115l231 115h16zM666 8v-8h-594v8q55 17 89 40t51 58.5t22.5 73t5.5 99.5v856q0 120 -32 179t-136 91v8h594v-8q-100 -31 -134 -88q-34 -55 -32 -182v-856q0 -126 32 -184q33 -55 134 -87z" />
    <glyph glyph-name="uni01D0" unicode="&#x1d0;" horiz-adv-x="643" 
d="M596 8v-8h-526v8q86 32 114 87q29 56 27 184v411q0 135 -29 188q-28 52 -135 91v8q183 12 399 92h9v-790q0 -127 27 -184q28 -55 114 -87zM555 1450l-190 -264h-117l-187 264h17l229 -115l232 115h16z" />
    <glyph glyph-name="uni01D1" unicode="&#x1d1;" horiz-adv-x="1716" 
d="M1106 1796l-191 -264h-116l-187 264h17l229 -115l232 115h16zM1630 705q0 -234 -134 -414.5t-359 -267.5q-138 -53 -305 -53q-169 0 -344 88q-183 93 -292.5 267t-109.5 377q0 151 64.5 289t170.5 236t247.5 156.5t289.5 58.5t289.5 -58.5t247.5 -156t170.5 -235
t64.5 -287.5zM858 39q214 1 351 195t137 473q0 280 -136 473q-136 192 -352 192q-217 0 -352 -194t-135 -471q0 -279 136 -473q137 -195 351 -195z" />
    <glyph glyph-name="uni01D2" unicode="&#x1d2;" horiz-adv-x="1245" 
d="M868 1456l-190 -264h-117l-186 264h16l230 -115l231 115h16zM897 522q0 58 -6.5 118t-25.5 129t-48.5 122t-80.5 88t-116 35q-55 0 -99.5 -24t-73 -66t-49.5 -91.5t-32 -107.5t-15.5 -107t-4.5 -96q0 -65 6 -125.5t25 -130t49 -120t83.5 -84t123.5 -33.5q86 -1 151 77
q114 137 113 416zM1008 135q-161 -160 -387 -160q-113 0 -214.5 43t-174.5 116.5t-115.5 175.5t-42.5 215q0 229 164 387q163 157 384 157q220 0 384 -156t164 -387q0 -230 -162 -391z" />
    <glyph glyph-name="uni01D3" unicode="&#x1d3;" horiz-adv-x="1591" 
d="M1087 1776l-190 -265h-117l-186 265h16l230 -115l231 115h16zM1260 391v582q0 292 -69 367q-36 39 -104 65v8h451v-8q-72 -27 -106 -64q-68 -77 -68 -368v-588q0 -90 -32.5 -162t-86.5 -118.5t-127.5 -77.5t-150 -44t-159.5 -14q-83 0 -161 13t-154.5 44t-133 77.5
t-91.5 119t-35 162.5v750q0 124 -32 182q-33 56 -135 88v8h593v-8q-100 -31 -133 -88q-33 -58 -32 -182v-779q0 -130 91 -209t272 -79q81 0 151 18t127.5 55.5t91 101.5t33.5 148z" />
    <glyph glyph-name="uni01D4" unicode="&#x1d4;" horiz-adv-x="1253" 
d="M872 1442l-190 -264h-117l-186 264h16l230 -115l231 115h16zM848 -25h-8v177q-187 -176 -328 -176q-142 0 -227 76q-86 77 -86 257v381q0 135 -29 188q-28 52 -135 91v8q184 11 401 92h8v-743q0 -94 62 -144q63 -50 154 -49q93 0 174 45v512q0 135 -29 188
q-28 52 -135 91v8q184 11 401 92h8v-715q0 -136 29 -188q28 -51 135 -90v-8q-192 -18 -395 -93z" />
    <glyph glyph-name="uni01D5" unicode="&#x1d5;" horiz-adv-x="1591" 
d="M899 1636q0 52 36.5 88.5t88.5 36.5t88.5 -36.5t36.5 -88.5q0 -51 -37 -87t-88 -36t-88 36t-37 87zM580 1636q0 52 36 88.5t88 36.5t89 -36.5t37 -88.5q0 -51 -37 -87t-88 -36q-52 0 -88.5 35.5t-36.5 87.5zM1124 1935v-108h-512v108h512zM1260 391v582q0 292 -69 367
q-36 39 -104 65v8h451v-8q-72 -27 -106 -64q-68 -77 -68 -368v-588q0 -90 -32.5 -162t-86.5 -118.5t-127.5 -77.5t-150 -44t-159.5 -14q-83 0 -161 13t-154.5 44t-133 77.5t-91.5 119t-35 162.5v750q0 124 -32 182q-33 56 -135 88v8h593v-8q-100 -31 -133 -88
q-33 -58 -32 -182v-779q0 -130 91 -209t272 -79q81 0 151 18t127.5 55.5t91 101.5t33.5 148z" />
    <glyph glyph-name="uni01D6" unicode="&#x1d6;" horiz-adv-x="1253" 
d="M891 1618v-109h-512v109h512zM674 1319q0 52 36.5 88.5t88.5 36.5t88.5 -36.5t36.5 -88.5q0 -51 -37 -87t-88 -36t-88 36t-37 87zM354 1319q0 52 36.5 88.5t88.5 36.5t88.5 -36.5t36.5 -88.5q0 -51 -37 -87t-88 -36t-88 36t-37 87zM848 -25h-8v177q-187 -176 -328 -176
q-142 0 -227 76q-86 77 -86 257v381q0 135 -29 188q-28 52 -135 91v8q184 11 401 92h8v-743q0 -94 62 -144q63 -50 154 -49q93 0 174 45v512q0 135 -29 188q-28 52 -135 91v8q184 11 401 92h8v-715q0 -136 29 -188q28 -51 135 -90v-8q-192 -18 -395 -93z" />
    <glyph glyph-name="uni01D7" unicode="&#x1d7;" horiz-adv-x="1591" 
d="M856 1636q0 52 36.5 88.5t88.5 36.5t88.5 -36.5t36.5 -88.5q0 -51 -37 -87t-88 -36t-88 36t-37 87zM537 1636q0 52 36.5 88.5t88.5 36.5t88 -36.5t36 -88.5t-36 -87.5t-88 -35.5t-88.5 35.5t-36.5 87.5zM633 1815l-10 2q123 137 168 249l217 -12q-119 -166 -375 -239z
M1260 391v582q0 292 -69 367q-36 39 -104 65v8h451v-8q-72 -27 -106 -64q-68 -77 -68 -368v-588q0 -90 -32.5 -162t-86.5 -118.5t-127.5 -77.5t-150 -44t-159.5 -14q-83 0 -161 13t-154.5 44t-133 77.5t-91.5 119t-35 162.5v750q0 124 -32 182q-33 56 -135 88v8h593v-8
q-100 -31 -133 -88q-33 -58 -32 -182v-779q0 -130 91 -209t272 -79q81 0 151 18t127.5 55.5t91 101.5t33.5 148z" />
    <glyph glyph-name="uni01D8" unicode="&#x1d8;" horiz-adv-x="1253" 
d="M674 1264q0 52 36.5 88.5t88.5 36.5t88.5 -36.5t36.5 -88.5q0 -51 -37 -87t-88 -36t-88 36t-37 87zM354 1264q0 52 36.5 88.5t88.5 36.5t88.5 -36.5t36.5 -88.5q0 -51 -37 -87t-88 -36t-88 36t-37 87zM459 1413l-10 2q123 137 167 250l218 -12q-118 -167 -375 -240z
M848 -25h-8v177q-187 -176 -328 -176q-142 0 -227 76q-86 77 -86 257v381q0 135 -29 188q-28 52 -135 91v8q184 11 401 92h8v-743q0 -94 62 -144q63 -50 154 -49q93 0 174 45v512q0 135 -29 188q-28 52 -135 91v8q184 11 401 92h8v-715q0 -136 29 -188q28 -51 135 -90v-8
q-192 -18 -395 -93z" />
    <glyph glyph-name="uni01D9" unicode="&#x1d9;" horiz-adv-x="1591" 
d="M848 1616q0 52 36.5 88.5t88.5 36.5t88.5 -36.5t36.5 -88.5q0 -51 -37 -87t-88 -36t-88 36t-37 87zM528 1616q0 52 36.5 88.5t88.5 36.5t88.5 -36.5t36.5 -88.5q0 -51 -37 -87t-88 -36t-88 36t-37 87zM1061 2068l-191 -264h-116l-187 264h17l229 -114l231 114h17z
M1260 391v582q0 292 -69 367q-36 39 -104 65v8h451v-8q-72 -27 -106 -64q-68 -77 -68 -368v-588q0 -90 -32.5 -162t-86.5 -118.5t-127.5 -77.5t-150 -44t-159.5 -14q-83 0 -161 13t-154.5 44t-133 77.5t-91.5 119t-35 162.5v750q0 124 -32 182q-33 56 -135 88v8h593v-8
q-100 -31 -133 -88q-33 -58 -32 -182v-779q0 -130 91 -209t272 -79q81 0 151 18t127.5 55.5t91 101.5t33.5 148z" />
    <glyph glyph-name="uni01DA" unicode="&#x1da;" horiz-adv-x="1253" 
d="M674 1264q0 52 36.5 88.5t88.5 36.5t88.5 -36.5t36.5 -88.5q0 -51 -37 -87t-88 -36t-88 36t-37 87zM354 1264q0 52 36.5 88.5t88.5 36.5t88.5 -36.5t36.5 -88.5q0 -51 -37 -87t-88 -36t-88 36t-37 87zM872 1698l-190 -264h-117l-186 264h16l230 -115l231 115h16zM848 -25
h-8v177q-187 -176 -328 -176q-142 0 -227 76q-86 77 -86 257v381q0 135 -29 188q-28 52 -135 91v8q184 11 401 92h8v-743q0 -94 62 -144q63 -50 154 -49q93 0 174 45v512q0 135 -29 188q-28 52 -135 91v8q184 11 401 92h8v-715q0 -136 29 -188q28 -51 135 -90v-8
q-192 -18 -395 -93z" />
    <glyph glyph-name="uni01DB" unicode="&#x1db;" horiz-adv-x="1591" 
d="M848 1636q0 52 36.5 88.5t88.5 36.5t88.5 -36.5t36.5 -88.5q0 -51 -37 -87t-88 -36t-88 36t-37 87zM528 1636q0 52 36.5 88.5t88.5 36.5t88.5 -36.5t36.5 -88.5q0 -51 -37 -87t-88 -36t-88 36t-37 87zM1008 1796l-11 -2q-253 74 -374 240l217 12q45 -109 168 -250z
M1260 391v582q0 292 -69 367q-36 39 -104 65v8h451v-8q-72 -27 -106 -64q-68 -77 -68 -368v-588q0 -90 -32.5 -162t-86.5 -118.5t-127.5 -77.5t-150 -44t-159.5 -14q-83 0 -161 13t-154.5 44t-133 77.5t-91.5 119t-35 162.5v750q0 124 -32 182q-33 56 -135 88v8h593v-8
q-100 -31 -133 -88q-33 -58 -32 -182v-779q0 -130 91 -209t272 -79q81 0 151 18t127.5 55.5t91 101.5t33.5 148z" />
    <glyph glyph-name="uni01DC" unicode="&#x1dc;" horiz-adv-x="1253" 
d="M674 1264q0 52 36.5 88.5t88.5 36.5t88.5 -36.5t36.5 -88.5q0 -51 -37 -87t-88 -36t-88 36t-37 87zM354 1264q0 52 36.5 88.5t88.5 36.5t88.5 -36.5t36.5 -88.5q0 -51 -37 -87t-88 -36t-88 36t-37 87zM834 1458l-11 -2q-253 74 -374 240l217 12q45 -109 168 -250z
M848 -25h-8v177q-187 -176 -328 -176q-142 0 -227 76q-86 77 -86 257v381q0 135 -29 188q-28 52 -135 91v8q184 11 401 92h8v-743q0 -94 62 -144q63 -50 154 -49q93 0 174 45v512q0 135 -29 188q-28 52 -135 91v8q184 11 401 92h8v-715q0 -136 29 -188q28 -51 135 -90v-8
q-192 -18 -395 -93z" />
    <glyph glyph-name="uni01DD" unicode="&#x1dd;" horiz-adv-x="1038" 
d="M729 424l-418 -27q0 -185 48 -277t145 -91q94 -1 156 109q61 109 69 286zM88 471h643q0 208 -103 321q-104 114 -257 114t-287 -105l-10 8q57 95 166 177q110 83 256 83q217 0 355 -144t138 -385q1 -240 -149 -403q-150 -162 -353 -162q-401 0 -401 428q0 32 2 68z" />
    <glyph glyph-name="uni01DE" unicode="&#x1de;" horiz-adv-x="1482" 
d="M776 1616q0 52 36.5 88.5t88.5 36.5t88.5 -36.5t36.5 -88.5q0 -51 -37 -87t-88 -36t-88 36t-37 87zM457 1616q0 52 36.5 88.5t88.5 36.5t88.5 -36.5t36.5 -88.5q0 -51 -37 -87t-88 -36t-88 36t-37 87zM997 1925v-108h-512v108h512zM444 582h465l-235 684zM1477 8v-8h-564
v8q66 15 92.5 45.5t26.5 96.5q0 70 -96 354h-518q-84 -258 -84 -334q0 -73 31 -108t104 -54v-8h-463v8q92 38 150 132q58 96 170 413l305 860h246l358 -1024q66 -187 119 -269q51 -79 123 -112z" />
    <glyph glyph-name="uni01DF" unicode="&#x1df;" horiz-adv-x="1071" 
d="M803 1638v-108h-512v108h512zM584 1319q0 52 36.5 88.5t88.5 36.5t88.5 -36.5t36.5 -88.5q0 -51 -37 -87t-88 -36t-88 36t-37 87zM264 1319q0 52 36.5 88.5t88.5 36.5t88.5 -36.5t36.5 -88.5q0 -51 -37 -87t-88 -36t-88 36t-37 87zM649 584v125q1 127 -65 207t-174 81
q-109 0 -183 -55q53 -10 88 -44.5t35 -85.5t-36 -84.5t-87 -33.5t-88 35.5t-37 85.5q0 98 140 176q139 78 304 78q164 0 256.5 -82t92.5 -244v-485q0 -106 39 -146.5t145 -48.5v-8q-48 -29 -126.5 -50.5t-133.5 -21.5q-70 0 -114.5 32.5t-53.5 99.5q-159 -138 -313 -140
q-114 0 -190.5 68t-75.5 180q0 133 141 233q139 99 436 128zM588 528q-108 0 -188.5 -60t-80.5 -164q2 -103 59 -150q59 -50 136 -50t135 35v383q-32 6 -61 6z" />
    <glyph glyph-name="uni01E0" unicode="&#x1e0;" horiz-adv-x="1482" 
d="M608 1620q0 57 40 98t97 41q56 0 99 -41t41 -98q0 -57 -41 -97t-98 -40q-58 0 -98 39.5t-40 97.5zM997 1915v-109h-512v109h512zM444 582h465l-235 684zM1477 8v-8h-564v8q66 15 92.5 45.5t26.5 96.5q0 70 -96 354h-518q-84 -258 -84 -334q0 -73 31 -108t104 -54v-8h-463
v8q92 38 150 132q58 96 170 413l305 860h246l358 -1024q66 -187 119 -269q51 -79 123 -112z" />
    <glyph glyph-name="uni01E1" unicode="&#x1e1;" horiz-adv-x="1071" 
d="M791 1638v-108h-512v108h512zM395 1313q0 57 40 98t97 41t98.5 -41t41.5 -98q0 -58 -41 -97.5t-99 -39.5t-97.5 39.5t-39.5 97.5zM649 584v125q1 127 -65 207t-174 81q-109 0 -183 -55q53 -10 88 -44.5t35 -85.5t-36 -84.5t-87 -33.5t-88 35.5t-37 85.5q0 98 140 176
q139 78 304 78q164 0 256.5 -82t92.5 -244v-485q0 -106 39 -146.5t145 -48.5v-8q-48 -29 -126.5 -50.5t-133.5 -21.5q-70 0 -114.5 32.5t-53.5 99.5q-159 -138 -313 -140q-114 0 -190.5 68t-75.5 180q0 133 141 233q139 99 436 128zM588 528q-108 0 -188.5 -60t-80.5 -164
q2 -103 59 -150q59 -50 136 -50t135 35v383q-32 6 -61 6z" />
    <glyph glyph-name="uni01E2" unicode="&#x1e2;" horiz-adv-x="1990" 
d="M1503 1638v-108h-512v108h512zM571 582h445v761h-12zM1882 0h-1034v8q102 32 135 88q33 57 33 185v213h-496q-154 -269 -154 -356q0 -86 119 -130v-8h-479v8q93 38 179 146q89 112 257 399l338 582q36 60 41 118q0 57 -51 89q-51 31 -158 63v8h1211v-315h-11
q-51 89 -86 137q-68 90 -151 101q-27 3 -76 3h-26h-201v-575h223q79 0 128.5 32t96.5 103h11v-344h-11q-46 71 -95.5 102t-129.5 31h-223v-614h203q164 0 213 32q71 50 121 110q43 50 104 130h10z" />
    <glyph glyph-name="uni01E3" unicode="&#x1e3;" horiz-adv-x="1562" 
d="M1049 1352v-109h-512v109h512zM637 498v24l-45 6q-113 0 -193 -59t-80 -182q-1 -78 57 -132q58 -55 156 -55t187 78q-82 133 -82 320zM1096 1016q-47 0 -86.5 -28.5t-63.5 -70.5t-41.5 -96.5t-25.5 -101t-11 -88.5v-15l406 27q0 35 -0.5 60t-4.5 67t-10.5 72t-19.5 65
t-31.5 57t-47 37t-64.5 15zM1104 -23q-236 0 -363 168q-57 -46 -95.5 -72t-87.5 -51t-101.5 -36t-115.5 -11q-112 0 -190.5 68t-78.5 178q0 135 135 235q133 99 432 128v123q2 129 -63 209q-64 80 -168 81q-105 0 -181 -55q54 -10 88.5 -44t34.5 -86t-35.5 -85t-87.5 -33
q-51 0 -88 35.5t-37 85.5q0 98 138 176t297 78q189 0 266 -135q131 135 307 135q389 0 389 -428v-68h-633q0 -215 98 -325q95 -108 250 -108q152 0 283 102l10 -9q-59 -97 -165 -177q-106 -79 -238 -79z" />
    <glyph glyph-name="uni01E4" unicode="&#x1e4;" horiz-adv-x="1587" 
d="M1556 395v-88h-129v-256q-338 -82 -542 -82q-319 0 -554 202q-234 202 -235 527q0 249 150 429.5t399 265.5q144 49 277 49q110 0 243.5 -21t223.5 -57v-299h-9q-181 307 -460 307q-226 0 -384 -182q-157 -181 -157 -479q0 -296 161 -474q160 -176 400 -178q129 0 246 45
v203h-264v88h264v35q0 114 -32.5 170t-133.5 88v8h536v-8q-80 -32 -104 -79q-23 -47 -25 -179v-35h129z" />
    <glyph glyph-name="uni01E5" unicode="&#x1e5;" horiz-adv-x="1069" 
d="M520 397q53 0 89.5 31t53 82.5t23 98t6.5 97.5q0 49 -7 96t-24 98t-53.5 82.5t-87.5 31.5q-48 0 -83.5 -28.5t-54 -74t-26.5 -91t-8 -90.5q0 -65 2.5 -103t18.5 -91t47 -90q42 -49 104 -49zM868 -274h-264v88h287q-1 114 -164 125l-356 18q-52 5 -64 8
q-109 -76 -109 -178q0 -59 28 -104.5t74 -71t98 -38.5t107 -13q52 0 103 9t101.5 27.5t92.5 52t66 77.5zM1239 -186v-88h-240q-85 -109 -239.5 -162.5t-315.5 -55.5q-169 0 -308 65q-138 65 -138 169q0 159 268 238q-114 41 -112 155q0 72 50 137t122 111q-107 42 -166 125
t-60 197q0 114 58.5 198.5t151.5 125t206 40.5q110 0 219 -55l357 55l-23 -143l-240 16q113 -92 113 -244q0 -151 -122 -252q-121 -100 -298 -100q-86 0 -164 25q-66 -56 -65 -109q0 -70 119 -76l295 -14q179 -7 268 -68q88 -60 88 -196q0 -46 -16 -94h192z" />
    <glyph glyph-name="Gcaron" unicode="&#x1e6;" horiz-adv-x="1587" 
d="M1161 1776l-190 -265h-117l-186 265h16l229 -115l232 115h16zM1186 104v326q0 114 -32.5 170t-133.5 88v8h536v-8q-80 -32 -104 -79q-23 -47 -25 -179v-379q-338 -82 -542 -82q-319 0 -554 202q-234 202 -235 527q0 249 150 429.5t399 265.5q144 49 277 49
q110 0 243.5 -21t223.5 -57v-299h-9q-181 307 -460 307q-226 0 -384 -182q-157 -181 -157 -479q0 -296 161 -474q160 -176 400 -178q129 0 246 45z" />
    <glyph glyph-name="gcaron" unicode="&#x1e7;" horiz-adv-x="1069" 
d="M784 1436l-190 -265h-117l-186 265h16l230 -115l231 115h16zM520 397q53 0 89.5 31t53 82.5t23 98t6.5 97.5q0 49 -7 96t-24 98t-53.5 82.5t-87.5 31.5q-48 0 -83.5 -28.5t-54 -74t-26.5 -91t-8 -90.5q0 -65 2.5 -103t18.5 -91t47 -90q42 -49 104 -49zM522 -440
q151 0 260 74q107 73 109 176q0 118 -164 129l-356 18q-52 5 -64 8q-109 -76 -109 -178q0 -62 30 -108.5t79.5 -71t103 -36t111.5 -11.5zM1063 -86q0 -68 -28 -128.5t-76.5 -104.5t-105 -76.5t-121.5 -52.5q-138 -44 -296 -44q-159 0 -300 65q-138 65 -138 169
q0 159 268 238q-114 41 -112 155q0 72 50 137t122 111q-107 42 -166 125t-60 197q0 114 58.5 198.5t151.5 125t206 40.5q110 0 219 -55l357 55l-23 -143l-240 16q113 -92 113 -244q0 -151 -122 -252q-121 -100 -298 -100q-86 0 -164 25q-66 -56 -65 -109q0 -70 119 -76
l295 -14q58 -2 104.5 -9t95.5 -24.5t81.5 -45t53.5 -73t21 -106.5z" />
    <glyph glyph-name="uni01E8" unicode="&#x1e8;" horiz-adv-x="1515" 
d="M991 1796l-190 -264h-117l-186 264h16l229 -115l232 115h16zM1556 8v-8h-622v8q56 13 82 30q26 16 24 54q0 62 -120 246l-246 369l-180 -191v-237q0 -126 32 -184q33 -56 133 -87v-8h-593v8q102 32 135 87q34 56 32 184v856q0 124 -32 182q-33 56 -135 88v8h593v-8
q-100 -31 -133 -88q-33 -58 -32 -182v-519l405 449q125 137 125 218t-125 122v8h571v-8q-116 -43 -200 -102q-80 -56 -244 -230l-180 -188l379 -555q114 -168 175 -226q64 -62 156 -96z" />
    <glyph glyph-name="uni01E9" unicode="&#x1e9;" horiz-adv-x="1222" 
d="M858 1837l-190 -264h-117l-186 264h16l229 -115l232 115h16zM590 8v-8h-533v8q85 32 114 87q28 55 28 184v886q0 136 -29 189q-28 52 -135 90v8q186 12 407 92h9v-1265q0 -127 27 -184q29 -56 112 -87zM1290 8v-8h-225q-111 0 -152 9q-42 9 -85 51q-47 45 -115 157
l-215 338l192 180q104 95 104 175q0 81 -151 120v14h608v-10q-237 -57 -415 -243l-129 -132l303 -428q65 -92 125.5 -143t154.5 -80z" />
    <glyph glyph-name="uni01EA" unicode="&#x1ea;" horiz-adv-x="1716" 
d="M1210 234q136 196 136 474q0 279 -136 472q-136 192 -352 192q-217 0 -352 -194t-135 -471t136 -473t351 -196q216 0 352 196zM983 -344v-8q-61 -76 -138 -76q-67 0 -113 35.5t-46 101.5q0 117 240 264q-40 -4 -68 -4q-153 0 -294.5 56t-246.5 152.5t-168 234t-63 290.5
q0 151 64.5 289t170.5 236t247.5 156.5t289.5 58.5t289 -58.5t247.5 -156.5t171 -235.5t64.5 -286.5q0 -291 -198 -491t-469 -237q-111 -141 -111 -245q0 -34 23.5 -58.5t57.5 -26.5q23 0 50 9z" />
    <glyph glyph-name="uni01EB" unicode="&#x1eb;" horiz-adv-x="1245" 
d="M897 522q0 58 -6.5 118t-25.5 129t-48.5 122t-80.5 88t-116 35q-64 0 -114.5 -34.5t-79.5 -86.5t-48 -120t-25.5 -127t-6.5 -116q0 -202 60 -342q68 -159 227 -159q86 -1 151 77q114 137 113 416zM727 -344v-8q-61 -76 -138 -76q-67 0 -113 35.5t-46 101.5q0 120 250 271
q-3 0 -59 -5q-113 0 -214.5 43t-174.5 116.5t-115.5 175.5t-42.5 215q0 229 164 387q163 157 384 157q144 0 270 -70t202 -193t76 -268q0 -220 -132 -372q-131 -152 -325 -182q-117 -150 -117 -252q0 -34 23.5 -58.5t57.5 -26.5q23 0 50 9z" />
    <glyph glyph-name="uni01EC" unicode="&#x1ec;" horiz-adv-x="1716" 
d="M1210 234q136 196 136 474q0 279 -136 472q-136 192 -352 192q-217 0 -352 -194t-135 -471t136 -473t351 -196q216 0 352 196zM983 -344v-8q-61 -76 -138 -76q-67 0 -113 35.5t-46 101.5q0 117 240 264q-40 -4 -68 -4q-153 0 -294.5 56t-246.5 152.5t-168 234t-63 290.5
q0 151 64.5 289t170.5 236t247.5 156.5t289.5 58.5t289 -58.5t247.5 -156.5t171 -235.5t64.5 -286.5q0 -291 -198 -491t-469 -237q-111 -141 -111 -245q0 -34 23.5 -58.5t57.5 -26.5q23 0 50 9zM1114 1700v-109h-512v109h512z" />
    <glyph glyph-name="uni01ED" unicode="&#x1ed;" horiz-adv-x="1245" 
d="M897 522q0 58 -6.5 118t-25.5 129t-48.5 122t-80.5 88t-116 35q-64 0 -114.5 -34.5t-79.5 -86.5t-48 -120t-25.5 -127t-6.5 -116q0 -202 60 -342q68 -159 227 -159q86 -1 151 77q114 137 113 416zM727 -344v-8q-61 -76 -138 -76q-67 0 -113 35.5t-46 101.5q0 120 250 271
q-3 0 -59 -5q-113 0 -214.5 43t-174.5 116.5t-115.5 175.5t-42.5 215q0 229 164 387q163 157 384 157q144 0 270 -70t202 -193t76 -268q0 -220 -132 -372q-131 -152 -325 -182q-117 -150 -117 -252q0 -34 23.5 -58.5t57.5 -26.5q23 0 50 9zM877 1352v-109h-512v109h512z" />
    <glyph glyph-name="uni01EE" unicode="&#x1ee;" horiz-adv-x="1075" 
d="M743 1796l-190 -264h-117l-186 264h16l230 -115l231 115h16zM674 1200h-557v213h809v-8l-357 -477q174 -28 311 -155q136 -126 136 -298q0 -114 -53.5 -211t-140 -160t-193 -98.5t-215.5 -36.5q-161 0 -261 70q-101 71 -102 176q0 65 46 107.5t111 42.5q62 0 107 -40.5
t45 -102.5q0 -57 -32 -100.5t-86 -64.5q62 -31 141 -30q161 0 266 98.5t105 258.5q0 165 -127 253t-291 88l-6 10z" />
    <glyph glyph-name="uni01EF" unicode="&#x1ef;" horiz-adv-x="997" 
d="M625 834h-557v210h809v-8l-357 -475q176 -29 310 -155t135 -300q1 -217 -179 -361t-421 -144q-160 0 -262 69q-101 71 -101 176q0 64 46 108t110 44q63 0 108 -41t45 -103q0 -55 -32.5 -100t-85.5 -63q61 -31 141 -31q164 0 267 96.5t103 259.5q0 165 -125 254
q-127 86 -292 86l-6 13zM745 1427l-190 -264h-117l-186 264h16l230 -114l231 114h16z" />
    <glyph glyph-name="jcaron" unicode="&#x1f0;" horiz-adv-x="636" 
d="M207 -72v762q0 135 -29 188q-28 52 -135 91v8q187 12 403 92h9v-1038q0 -107 -39 -203.5t-115 -163.5q-121 -106 -252 -156l-6 11q85 54 124.5 170.5t39.5 238.5zM563 1530l-190 -264h-117l-186 264h16l229 -115l232 115h16z" />
    <glyph glyph-name="uni01F1" unicode="&#x1f1;" horiz-adv-x="2652" 
d="M2566 0h-1050v8l768 1331h-281q-140 0 -211 -37q-72 -38 -240 -204h-8l41 315h1002v-8l-758 -1331h309q180 0 244 37q65 39 182 194q22 32 33 43h8zM494 1339v-1265h225q259 0 404 184q147 184 147 456q0 271 -152 449q-152 176 -375 176h-249zM719 0h-653v8
q102 32 135 88q33 58 32 185v854q0 124 -32 182q-33 56 -135 88v8h675q342 0 577 -176q234 -176 234 -508q0 -141 -43.5 -260t-121 -204.5t-182.5 -146t-228 -89.5t-258 -29z" />
    <glyph glyph-name="uni01F2" unicode="&#x1f2;" horiz-adv-x="2562" 
d="M2468 0h-873v8l586 965h-246q-42 0 -67 -11t-60 -40q-28 -24 -84 -81q-59 -60 -86 -85h-8l41 288h803v-10l-576 -964h289q71 0 117 36t197 185h8zM494 1339v-1265h225q259 0 404 184q147 184 147 456q0 271 -152 449q-152 176 -375 176h-249zM719 0h-653v8q102 32 135 88
q33 58 32 185v854q0 124 -32 182q-33 56 -135 88v8h675q342 0 577 -176q234 -176 234 -508q0 -141 -43.5 -260t-121 -204.5t-182.5 -146t-228 -89.5t-258 -29z" />
    <glyph glyph-name="uni01F3" unicode="&#x1f3;" horiz-adv-x="2224" 
d="M2130 0h-873v8l586 965h-246q-43 0 -65 -10t-61 -40q-29 -23 -84 -81q-49 -51 -87 -86h-8l41 288h803v-10l-575 -964h288q71 0 117 36t197 185h8zM856 -25h-8v177q-144 -176 -328 -176q-183 0 -319 134q-135 133 -135 353q0 273 186 440q185 166 430 166q74 0 166 -18
v114q0 137 -31 189t-147 90v8q95 6 213.5 32t208.5 60h8v-1190q0 -136 29 -188q29 -51 135 -90v-8q-208 -18 -408 -93zM670 133q99 0 178 43v785q-30 23 -79 37t-93 16q-158 0 -260 -134t-102 -331t108 -307q110 -110 248 -109z" />
    <glyph glyph-name="uni01F4" unicode="&#x1f4;" horiz-adv-x="1587" 
d="M766 1511l-10 2q122 136 168 250l217 -12q-119 -167 -375 -240zM1186 104v326q0 114 -32.5 170t-133.5 88v8h536v-8q-80 -32 -104 -79q-23 -47 -25 -179v-379q-338 -82 -542 -82q-319 0 -554 202q-234 202 -235 527q0 249 150 429.5t399 265.5q144 49 277 49
q110 0 243.5 -21t223.5 -57v-299h-9q-181 307 -460 307q-226 0 -384 -182q-157 -181 -157 -479q0 -296 161 -474q160 -176 400 -178q129 0 246 45z" />
    <glyph glyph-name="uni01F5" unicode="&#x1f5;" horiz-adv-x="1069" 
d="M371 1188l-11 2q122 136 168 250l217 -13q-119 -166 -374 -239zM520 397q53 0 89.5 31t53 82.5t23 98t6.5 97.5q0 49 -7 96t-24 98t-53.5 82.5t-87.5 31.5q-48 0 -83.5 -28.5t-54 -74t-26.5 -91t-8 -90.5q0 -65 2.5 -103t18.5 -91t47 -90q42 -49 104 -49zM522 -440
q151 0 260 74q107 73 109 176q0 118 -164 129l-356 18q-52 5 -64 8q-109 -76 -109 -178q0 -62 30 -108.5t79.5 -71t103 -36t111.5 -11.5zM1063 -86q0 -68 -28 -128.5t-76.5 -104.5t-105 -76.5t-121.5 -52.5q-138 -44 -296 -44q-159 0 -300 65q-138 65 -138 169
q0 159 268 238q-114 41 -112 155q0 72 50 137t122 111q-107 42 -166 125t-60 197q0 114 58.5 198.5t151.5 125t206 40.5q110 0 219 -55l357 55l-23 -143l-240 16q113 -92 113 -244q0 -151 -122 -252q-121 -100 -298 -100q-86 0 -164 25q-66 -56 -65 -109q0 -70 119 -76
l295 -14q58 -2 104.5 -9t95.5 -24.5t81.5 -45t53.5 -73t21 -106.5z" />
    <glyph glyph-name="uni01F6" unicode="&#x1f6;" horiz-adv-x="2385" 
d="M1974 264v502q0 125 -27 182q-28 56 -114 88v8h385v-757q0 -309 -489 -310q-58 0 -111.5 4.5t-118 15.5t-116.5 34t-96.5 55.5t-69.5 84t-25 116.5v395h-692v-401q0 -126 32 -185q33 -56 134 -88v-8h-594v8q102 32 135 88q33 57 33 185v854q0 120 -32 179t-136 91v8h594
v-8q-100 -31 -134 -88q-34 -55 -32 -182v-369h692v369q0 120 -32 179t-136 91v8h594v-8q-54 -17 -87.5 -40.5t-50.5 -59t-22.5 -73t-5.5 -97.5v-844q0 -116 76.5 -174.5t195.5 -58.5q109 0 179.5 51t70.5 155z" />
    <glyph glyph-name="uni01F7" unicode="&#x1f7;" horiz-adv-x="1323" 
d="M735 1288q-66 0 -145.5 -25t-126.5 -65v-1214q228 107 377 350q150 245 149 575q0 68 -12 129.5t-38.5 120.5t-79 94t-124.5 35zM207 -219v1300q0 132 -28 176q-29 45 -130 84v11q200 19 359 71l55 19v-207q56 80 181.5 143.5t223.5 63.5q99 0 173.5 -38.5t118 -105
t65 -148t22.5 -176.5q0 -197 -69.5 -374.5t-205.5 -315.5q-225 -229 -509 -366v-278l-406 -115v18q54 22 74 76q47 33 61.5 66.5t14.5 95.5z" />
    <glyph glyph-name="uni01F8" unicode="&#x1f8;" horiz-adv-x="1644" 
d="M1014 1544l-10 -2q-252 74 -375 240l217 12q45 -109 168 -250zM1436 973v-987h-117q-110 131 -484 582q-329 396 -501 603v-729q0 -295 64 -369q34 -40 104 -65v-8h-443v8q74 27 106 67.5t47 119.5q15 84 15 247v746q0 66 -48 127t-150 90v8h426l874 -1038v598
q0 230 -33 313q-33 81 -135 119v8h443v-8q-74 -28 -106.5 -68t-46.5 -119q-15 -84 -15 -245z" />
    <glyph glyph-name="uni01F9" unicode="&#x1f9;" horiz-adv-x="1308" 
d="M846 1176l-10 -2q-252 73 -375 239l217 12q45 -108 168 -249zM1262 8v-8h-525v8q83 31 112 87q28 55 28 184v446q1 100 -55 155q-56 54 -152 54q-97 0 -215 -64v-591q0 -127 27 -184q28 -55 114 -87v-8h-526v8q86 32 114 87q29 56 27 184v411q0 135 -29 188
q-28 52 -135 91v8q178 11 395 92h9v-170q79 70 177 118.5t189 49.5q134 0 219 -85q86 -86 86 -269v-434q0 -45 2 -73t9.5 -62t22 -56.5t41 -43.5t65.5 -36z" />
    <glyph glyph-name="Aringacute" unicode="&#x1fa;" horiz-adv-x="1482" 
d="M555 1747l-10 2q122 136 168 250l217 -12q-118 -167 -375 -240zM748 1356q58 0 97.5 41.5t39.5 99.5t-39.5 99.5t-97.5 41.5q-59 0 -98.5 -41t-39.5 -100t39.5 -100t98.5 -41zM444 582h465l-235 684zM1477 8v-8h-564v8q66 15 92.5 45.5t26.5 96.5q0 70 -96 354h-518
q-84 -258 -84 -334q0 -73 31 -108t104 -54v-8h-463v8q92 38 150 132q58 96 170 413l272 768q-84 67 -84 169q0 99 67.5 167.5t166.5 68.5q97 0 164 -68t69 -165q0 -98 -76 -164l330 -940q66 -187 119 -269q51 -79 123 -112z" />
    <glyph glyph-name="aringacute" unicode="&#x1fb;" horiz-adv-x="1071" 
d="M369 1624l-11 2q122 136 168 250l217 -12q-119 -167 -374 -240zM659 1366q0 53 -36 91t-88 38q-51 0 -89 -38t-36 -91q0 -53 35.5 -91t88.5 -38t89 38t36 91zM535 1157q-87 0 -150 61t-63 148q0 86 62.5 147t149.5 61q88 0 151 -60.5t63 -147.5t-63 -148t-150 -61z
M649 584v125q1 127 -65 207t-174 81q-109 0 -183 -55q53 -10 88 -44.5t35 -85.5t-36 -84.5t-87 -33.5t-88 35.5t-37 85.5q0 98 140 176q139 78 304 78q164 0 256.5 -82t92.5 -244v-485q0 -106 39 -146.5t145 -48.5v-8q-48 -29 -126.5 -50.5t-133.5 -21.5q-70 0 -114.5 32.5
t-53.5 99.5q-159 -138 -313 -140q-114 0 -190.5 68t-75.5 180q0 133 141 233q139 99 436 128zM588 528q-108 0 -188.5 -60t-80.5 -164q2 -103 59 -150q59 -50 136 -50t135 35v383q-32 6 -61 6z" />
    <glyph glyph-name="AEacute" unicode="&#x1fc;" horiz-adv-x="1990" 
d="M956 1552l-10 2q122 136 168 250l217 -12q-119 -166 -375 -240zM571 582h445v761h-12zM1882 0h-1034v8q102 32 135 88q33 57 33 185v213h-496q-154 -269 -154 -356q0 -86 119 -130v-8h-479v8q93 38 179 146q89 112 257 399l338 582q36 60 41 118q0 57 -51 89
q-51 31 -158 63v8h1211v-315h-11q-51 89 -86 137q-68 90 -151 101q-27 3 -76 3h-26h-201v-575h223q79 0 128.5 32t96.5 103h11v-344h-11q-46 71 -95.5 102t-129.5 31h-223v-614h203q164 0 213 32q71 50 121 110q43 50 104 130h10z" />
    </font>
</defs>
</svg>
